M48
INCH,LZ
;FILE_FORMAT=2:4
;TYPE=PLATED
;Layer: PTH_Through
;EasyEDA v6.5.34, 2023-10-02 14:14:04
;f8cec7c47a1a460abc9a27ceab174a81,9d3d63f08f7d425b882531a970cedf0e,10
;Gerber Generator version 0.2
;Holesize 1 = 0.0120 inch
T01C0.0120
;Holesize 2 = 0.0320 inch
T02C0.0320
;Holesize 3 = 0.0330 inch
T03C0.0330
;Holesize 4 = 0.0360 inch
T04C0.0360
;Holesize 5 = 0.0430 inch
T05C0.0430
%
G05
G90
T01
X053650Y040200
X055150Y032850
X058850Y028850
X057950Y029800
X060900Y031400
X057450Y042400
X060950Y043450
X059100Y041400
X037250Y030800
X035900Y021250
X018850Y022300
X020550Y021950
X023700Y035350
X016850Y015100
X015050Y016150
X024450Y018150
T02
X010356Y048285G85X010356Y047222
X012777Y049131G85X011714Y049131
X011714Y046769G85X012777Y046769
T03
X021500Y024300
X020500Y024300
X019500Y024300
X018500Y024300
X017500Y024300
X016500Y024300
X015500Y024300
X014500Y024300
X013500Y024300
X012500Y024300
X030100Y024300
X029100Y024300
X028100Y024300
X027100Y024300
X026100Y024300
X025100Y024300
X024100Y024300
X023100Y024300
X025100Y043300
X026100Y043300
X027100Y043300
X028100Y043300
X029100Y043300
X030100Y043300
X016100Y043300
X017100Y043300
X018100Y043300
X019100Y043300
X020100Y043300
X021100Y043300
X022100Y043300
X023100Y043300
T04
X043721Y037270
X043721Y038264
X043721Y039259
X043721Y040253
X043721Y041247
X043721Y042241
X043721Y043236
X043721Y044230
X038720Y037270
X038720Y038265
X038720Y039259
X038720Y040253
X038720Y041247
X038720Y042242
X038720Y043236
X038720Y044230
X043721Y024770
X043721Y025764
X043721Y026759
X043721Y027753
X043721Y028747
X043721Y029741
X043721Y030736
X043721Y031730
X038720Y024770
X038720Y025765
X038720Y026759
X038720Y027753
X038720Y028747
X038720Y029742
X038720Y030736
X038720Y031730
X056221Y037270
X056221Y038264
X056221Y039259
X056221Y040253
X056221Y041247
X056221Y042241
X056221Y043236
X056221Y044230
X051220Y037270
X051220Y038265
X051220Y039259
X051220Y040253
X051220Y041247
X051220Y042242
X051220Y043236
X051220Y044230
X056221Y024770
X056221Y025764
X056221Y026759
X056221Y027753
X056221Y028747
X056221Y029741
X056221Y030736
X056221Y031730
X051220Y024770
X051220Y025765
X051220Y026759
X051220Y027753
X051220Y028747
X051220Y029742
X051220Y030736
X051220Y031730
T05
X020600Y013151G85X020600Y013149
X020600Y014151G85X020600Y014149
X020600Y015151G85X020600Y015149
X020600Y016151G85X020600Y016149
X020600Y017151G85X020600Y017149
X020600Y018151G85X020600Y018149
X035800Y039050
X035800Y040050
X035800Y041050
X035800Y042050
X035800Y026550
X035800Y027550
X035800Y028550
X035800Y029550
X048300Y039050
X048300Y040050
X048300Y041050
X048300Y042050
X048300Y026550
X048300Y027550
X048300Y028550
X048300Y029550
M30
