G04 Layer: BottomLayer*
G04 EasyEDA v6.5.34, 2023-10-02 14:14:04*
G04 f8cec7c47a1a460abc9a27ceab174a81,9d3d63f08f7d425b882531a970cedf0e,10*
G04 Gerber Generator version 0.2*
G04 Scale: 100 percent, Rotated: No, Reflected: No *
G04 Dimensions in inches *
G04 leading zeros omitted , absolute positions ,3 integer and 6 decimal *
%FSLAX36Y36*%
%MOIN*%

%AMMACRO1*21,1,$1,$2,0,0,$3*%
%ADD10C,0.0200*%
%ADD11MACRO1,0.0672X0.056X90.0000*%
%ADD12MACRO1,0.0672X0.056X-90.0000*%
%ADD13C,0.0740*%
%ADD14O,0.051181000000000004X0.15747999999999998*%
%ADD15O,0.15747999999999998X0.051181000000000004*%
%ADD16R,0.0669X0.0669*%
%ADD17C,0.0669*%
%ADD18C,0.0600*%
%ADD19C,0.0244*%
%ADD20C,0.0113*%

%LPD*%
G36*
X294200Y1035200D02*
G01*
X292660Y1035500D01*
X291380Y1036380D01*
X290500Y1037660D01*
X290200Y1039200D01*
X290200Y5190800D01*
X290500Y5192340D01*
X291380Y5193620D01*
X292660Y5194500D01*
X294200Y5194800D01*
X6365800Y5194800D01*
X6367340Y5194500D01*
X6368620Y5193620D01*
X6369500Y5192340D01*
X6369800Y5190800D01*
X6369800Y1039200D01*
X6369500Y1037660D01*
X6368620Y1036380D01*
X6367340Y1035500D01*
X6365800Y1035200D01*
G37*

%LPC*%
G36*
X2081000Y1272820D02*
G01*
X2082320Y1273420D01*
X2087260Y1276480D01*
X2091800Y1280120D01*
X2095840Y1284300D01*
X2099340Y1288940D01*
X2102260Y1294000D01*
X2081000Y1294000D01*
G37*
G36*
X2039000Y1272820D02*
G01*
X2039000Y1294000D01*
X2017740Y1294000D01*
X2020660Y1288940D01*
X2024160Y1284300D01*
X2028200Y1280120D01*
X2032740Y1276480D01*
X2037680Y1273420D01*
G37*
G36*
X2081000Y1336000D02*
G01*
X2102160Y1336000D01*
X2100860Y1338600D01*
X2097660Y1343440D01*
X2093880Y1347860D01*
X2089580Y1351759D01*
X2084840Y1355120D01*
X2081000Y1357180D01*
G37*
G36*
X2017840Y1336000D02*
G01*
X2039000Y1336000D01*
X2039000Y1357180D01*
X2035160Y1355120D01*
X2030420Y1351759D01*
X2026120Y1347860D01*
X2022340Y1343440D01*
X2019139Y1338600D01*
G37*
G36*
X2060000Y1367800D02*
G01*
X2065800Y1368160D01*
X2071519Y1369240D01*
X2077040Y1371000D01*
X2082320Y1373420D01*
X2087260Y1376480D01*
X2091800Y1380120D01*
X2095840Y1384300D01*
X2099340Y1388940D01*
X2102240Y1393959D01*
X2104500Y1399319D01*
X2106100Y1404900D01*
X2107000Y1410640D01*
X2107180Y1416459D01*
X2106640Y1422240D01*
X2104980Y1429900D01*
X2105320Y1431360D01*
X2106160Y1432580D01*
X2217200Y1543620D01*
X2218500Y1544500D01*
X2220020Y1544800D01*
X2754920Y1544800D01*
X2756760Y1544880D01*
X2758500Y1545120D01*
X2760220Y1545500D01*
X2761900Y1546020D01*
X2763540Y1546699D01*
X2765100Y1547500D01*
X2766580Y1548460D01*
X2767980Y1549520D01*
X2769340Y1550780D01*
X3322200Y2103620D01*
X3323500Y2104500D01*
X3325020Y2104800D01*
X3579660Y2104800D01*
X3581160Y2104520D01*
X3583440Y2103600D01*
X3587160Y2102800D01*
X3590960Y2102620D01*
X3594720Y2103120D01*
X3598340Y2104220D01*
X3601740Y2105940D01*
X3604800Y2108200D01*
X3607420Y2110940D01*
X3609540Y2114080D01*
X3611120Y2117540D01*
X3612060Y2121220D01*
X3612400Y2125000D01*
X3612060Y2128780D01*
X3611120Y2132460D01*
X3609540Y2135920D01*
X3607420Y2139060D01*
X3604800Y2141800D01*
X3601740Y2144060D01*
X3598340Y2145780D01*
X3594720Y2146880D01*
X3590960Y2147380D01*
X3587160Y2147200D01*
X3583440Y2146400D01*
X3581160Y2145480D01*
X3579660Y2145200D01*
X3315080Y2145200D01*
X3313240Y2145120D01*
X3311500Y2144880D01*
X3309780Y2144500D01*
X3308100Y2143980D01*
X3306460Y2143300D01*
X3304900Y2142500D01*
X3303420Y2141540D01*
X3302020Y2140480D01*
X3300659Y2139220D01*
X2747799Y1586380D01*
X2746500Y1585500D01*
X2744980Y1585200D01*
X2210080Y1585200D01*
X2208240Y1585120D01*
X2206500Y1584880D01*
X2204780Y1584500D01*
X2203100Y1583980D01*
X2201460Y1583300D01*
X2199900Y1582500D01*
X2198420Y1581540D01*
X2197020Y1580480D01*
X2195660Y1579220D01*
X2110780Y1494340D01*
X2109480Y1493480D01*
X2107940Y1493160D01*
X2106400Y1493480D01*
X2105100Y1494360D01*
X2104240Y1495660D01*
X2103940Y1497200D01*
X2106100Y1504900D01*
X2107000Y1510640D01*
X2107180Y1516459D01*
X2106640Y1522240D01*
X2105400Y1527920D01*
X2103460Y1533400D01*
X2100860Y1538600D01*
X2097660Y1543440D01*
X2093880Y1547860D01*
X2089580Y1551759D01*
X2084840Y1555120D01*
X2079720Y1557880D01*
X2074300Y1559980D01*
X2069700Y1561120D01*
X2068320Y1561780D01*
X2067260Y1562920D01*
X2066740Y1564360D01*
X2066780Y1565900D01*
X2067400Y1567300D01*
X2068520Y1568380D01*
X2069940Y1568940D01*
X2071519Y1569240D01*
X2077040Y1571000D01*
X2082320Y1573420D01*
X2087260Y1576480D01*
X2091800Y1580120D01*
X2095840Y1584300D01*
X2099340Y1588940D01*
X2102240Y1593959D01*
X2104500Y1599319D01*
X2106100Y1604900D01*
X2107000Y1610640D01*
X2107180Y1616459D01*
X2106640Y1622240D01*
X2105400Y1627920D01*
X2103460Y1633400D01*
X2100860Y1638600D01*
X2097660Y1643440D01*
X2093880Y1647860D01*
X2089580Y1651759D01*
X2084840Y1655120D01*
X2079720Y1657880D01*
X2074300Y1659980D01*
X2069700Y1661120D01*
X2068320Y1661780D01*
X2067260Y1662920D01*
X2066740Y1664360D01*
X2066780Y1665900D01*
X2067400Y1667300D01*
X2068520Y1668380D01*
X2069940Y1668940D01*
X2071519Y1669240D01*
X2077040Y1671000D01*
X2082320Y1673420D01*
X2087260Y1676480D01*
X2091800Y1680120D01*
X2095840Y1684300D01*
X2099340Y1688940D01*
X2102240Y1693959D01*
X2104500Y1699319D01*
X2106100Y1704900D01*
X2107000Y1710640D01*
X2107180Y1716459D01*
X2106640Y1722240D01*
X2105400Y1727920D01*
X2103460Y1733400D01*
X2100860Y1738600D01*
X2097660Y1743440D01*
X2093880Y1747860D01*
X2089580Y1751759D01*
X2084840Y1755120D01*
X2079720Y1757880D01*
X2074300Y1759980D01*
X2069700Y1761120D01*
X2068320Y1761780D01*
X2067260Y1762920D01*
X2066740Y1764360D01*
X2066780Y1765900D01*
X2067400Y1767300D01*
X2068520Y1768380D01*
X2069940Y1768940D01*
X2071519Y1769240D01*
X2077040Y1771000D01*
X2082320Y1773420D01*
X2087260Y1776480D01*
X2091800Y1780120D01*
X2095840Y1784300D01*
X2099340Y1788940D01*
X2101580Y1792800D01*
X2102460Y1793860D01*
X2103660Y1794560D01*
X2105040Y1794800D01*
X2434660Y1794800D01*
X2436160Y1794520D01*
X2438440Y1793600D01*
X2442160Y1792800D01*
X2445960Y1792620D01*
X2449720Y1793120D01*
X2453340Y1794220D01*
X2456740Y1795940D01*
X2459800Y1798200D01*
X2462420Y1800940D01*
X2464540Y1804079D01*
X2466120Y1807540D01*
X2467060Y1811220D01*
X2467400Y1815000D01*
X2467060Y1818779D01*
X2466120Y1822460D01*
X2464540Y1825920D01*
X2462420Y1829060D01*
X2459800Y1831800D01*
X2456740Y1834060D01*
X2453340Y1835780D01*
X2449720Y1836879D01*
X2445960Y1837380D01*
X2442160Y1837200D01*
X2438440Y1836399D01*
X2436160Y1835480D01*
X2434660Y1835200D01*
X2105040Y1835200D01*
X2103600Y1835480D01*
X2102340Y1836240D01*
X2101460Y1837420D01*
X2100860Y1838600D01*
X2097660Y1843440D01*
X2093880Y1847860D01*
X2089580Y1851759D01*
X2084840Y1855120D01*
X2079720Y1857880D01*
X2074300Y1859980D01*
X2068680Y1861380D01*
X2062900Y1862100D01*
X2057100Y1862100D01*
X2051320Y1861380D01*
X2045700Y1859980D01*
X2040280Y1857880D01*
X2035160Y1855120D01*
X2030420Y1851759D01*
X2026120Y1847860D01*
X2022340Y1843440D01*
X2019139Y1838600D01*
X2016540Y1833400D01*
X2014600Y1827920D01*
X2013360Y1822240D01*
X2012840Y1816459D01*
X2013000Y1810640D01*
X2013899Y1804900D01*
X2015500Y1799319D01*
X2017760Y1793959D01*
X2020660Y1788940D01*
X2024160Y1784300D01*
X2028200Y1780120D01*
X2032740Y1776480D01*
X2037680Y1773420D01*
X2042960Y1771000D01*
X2048480Y1769240D01*
X2050060Y1768940D01*
X2051480Y1768380D01*
X2052600Y1767300D01*
X2053220Y1765900D01*
X2053260Y1764360D01*
X2052740Y1762920D01*
X2051680Y1761780D01*
X2050300Y1761120D01*
X2045700Y1759980D01*
X2040280Y1757880D01*
X2035160Y1755120D01*
X2030420Y1751759D01*
X2026120Y1747860D01*
X2022340Y1743440D01*
X2019139Y1738600D01*
X2016540Y1733400D01*
X2014600Y1727920D01*
X2013360Y1722240D01*
X2012840Y1716459D01*
X2013000Y1710640D01*
X2013899Y1704900D01*
X2015500Y1699319D01*
X2017760Y1693959D01*
X2020660Y1688940D01*
X2024160Y1684300D01*
X2028200Y1680120D01*
X2032740Y1676480D01*
X2037680Y1673420D01*
X2042960Y1671000D01*
X2048480Y1669240D01*
X2050060Y1668940D01*
X2051480Y1668380D01*
X2052600Y1667300D01*
X2053220Y1665900D01*
X2053260Y1664360D01*
X2052740Y1662920D01*
X2051680Y1661780D01*
X2050300Y1661120D01*
X2045700Y1659980D01*
X2040280Y1657880D01*
X2035160Y1655120D01*
X2030420Y1651759D01*
X2026120Y1647860D01*
X2022340Y1643440D01*
X2019139Y1638600D01*
X2018540Y1637420D01*
X2017660Y1636240D01*
X2016399Y1635480D01*
X2014960Y1635200D01*
X1515440Y1635200D01*
X1514520Y1635300D01*
X1513340Y1635780D01*
X1509720Y1636879D01*
X1505960Y1637380D01*
X1502160Y1637200D01*
X1498440Y1636399D01*
X1494920Y1635000D01*
X1491680Y1633000D01*
X1488839Y1630500D01*
X1486440Y1627540D01*
X1484600Y1624220D01*
X1483340Y1620640D01*
X1482700Y1616900D01*
X1482700Y1613100D01*
X1483340Y1609360D01*
X1484600Y1605780D01*
X1486440Y1602460D01*
X1488839Y1599500D01*
X1491680Y1597000D01*
X1494920Y1595000D01*
X1498440Y1593600D01*
X1502160Y1592800D01*
X1505960Y1592620D01*
X1509720Y1593120D01*
X1513340Y1594220D01*
X1514520Y1594700D01*
X1515440Y1594800D01*
X2014960Y1594800D01*
X2016339Y1594560D01*
X2017540Y1593860D01*
X2018420Y1592800D01*
X2020660Y1588940D01*
X2024160Y1584300D01*
X2028200Y1580120D01*
X2032740Y1576480D01*
X2037680Y1573420D01*
X2042960Y1571000D01*
X2048480Y1569240D01*
X2050060Y1568940D01*
X2051480Y1568380D01*
X2052600Y1567300D01*
X2053220Y1565900D01*
X2053260Y1564360D01*
X2052740Y1562920D01*
X2051680Y1561780D01*
X2050300Y1561120D01*
X2045700Y1559980D01*
X2040280Y1557880D01*
X2035160Y1555120D01*
X2030420Y1551759D01*
X2026120Y1547860D01*
X2022340Y1543440D01*
X2019139Y1538600D01*
X2015520Y1531480D01*
X2014180Y1530540D01*
X2012580Y1530200D01*
X1695440Y1530200D01*
X1694520Y1530300D01*
X1693340Y1530780D01*
X1689720Y1531879D01*
X1685960Y1532380D01*
X1682160Y1532200D01*
X1678440Y1531399D01*
X1674920Y1530000D01*
X1671680Y1528000D01*
X1668839Y1525500D01*
X1666440Y1522540D01*
X1664600Y1519220D01*
X1663340Y1515640D01*
X1662700Y1511900D01*
X1662700Y1508100D01*
X1663340Y1504360D01*
X1664600Y1500780D01*
X1666440Y1497460D01*
X1668839Y1494500D01*
X1671680Y1492000D01*
X1674920Y1490000D01*
X1678440Y1488600D01*
X1682160Y1487800D01*
X1685960Y1487620D01*
X1689720Y1488120D01*
X1693340Y1489220D01*
X1694520Y1489700D01*
X1695440Y1489800D01*
X2018020Y1489800D01*
X2019220Y1489620D01*
X2020320Y1489060D01*
X2021200Y1488220D01*
X2024160Y1484300D01*
X2028200Y1480120D01*
X2032740Y1476480D01*
X2037680Y1473420D01*
X2042960Y1471000D01*
X2048480Y1469240D01*
X2050060Y1468940D01*
X2051480Y1468380D01*
X2052600Y1467300D01*
X2053220Y1465900D01*
X2053260Y1464360D01*
X2052740Y1462920D01*
X2051680Y1461780D01*
X2050300Y1461120D01*
X2045700Y1459980D01*
X2040280Y1457880D01*
X2035160Y1455120D01*
X2030420Y1451759D01*
X2026120Y1447860D01*
X2022340Y1443440D01*
X2019139Y1438600D01*
X2016540Y1433400D01*
X2014600Y1427920D01*
X2013360Y1422240D01*
X2012840Y1416459D01*
X2013000Y1410640D01*
X2013899Y1404900D01*
X2015500Y1399319D01*
X2017760Y1393959D01*
X2020660Y1388940D01*
X2024160Y1384300D01*
X2028200Y1380120D01*
X2032740Y1376480D01*
X2037680Y1373420D01*
X2042960Y1371000D01*
X2048480Y1369240D01*
X2054199Y1368160D01*
G37*
G36*
X2055960Y2172620D02*
G01*
X2059720Y2173120D01*
X2063360Y2174220D01*
X2064520Y2174700D01*
X2065460Y2174800D01*
X5814920Y2174800D01*
X5816760Y2174880D01*
X5818500Y2175120D01*
X5820220Y2175500D01*
X5821900Y2176020D01*
X5823540Y2176700D01*
X5825100Y2177500D01*
X5826580Y2178460D01*
X5827980Y2179520D01*
X5829340Y2180780D01*
X6104220Y2455660D01*
X6105480Y2457020D01*
X6106540Y2458420D01*
X6107500Y2459900D01*
X6108300Y2461460D01*
X6108980Y2463100D01*
X6109500Y2464780D01*
X6109880Y2466500D01*
X6110119Y2468240D01*
X6110200Y2470080D01*
X6110200Y3129660D01*
X6110560Y3131300D01*
X6111500Y3133320D01*
X6112480Y3134880D01*
X6113300Y3136460D01*
X6113980Y3138100D01*
X6114500Y3139780D01*
X6114880Y3141500D01*
X6115119Y3143240D01*
X6115200Y3145080D01*
X6115200Y4334660D01*
X6115560Y4336300D01*
X6116120Y4337540D01*
X6117060Y4341220D01*
X6117400Y4345000D01*
X6117060Y4348780D01*
X6116120Y4352460D01*
X6114539Y4355920D01*
X6112420Y4359060D01*
X6109800Y4361800D01*
X6106740Y4364060D01*
X6103339Y4365780D01*
X6099720Y4366880D01*
X6095960Y4367380D01*
X6092160Y4367200D01*
X6088440Y4366400D01*
X6084920Y4365000D01*
X6081680Y4363000D01*
X6078840Y4360500D01*
X6076440Y4357540D01*
X6074600Y4354220D01*
X6073339Y4350640D01*
X6072700Y4346900D01*
X6072700Y4343100D01*
X6073339Y4339360D01*
X6074580Y4335840D01*
X6074800Y4334520D01*
X6074800Y3158100D01*
X6074580Y3156760D01*
X6073920Y3155580D01*
X6071440Y3152540D01*
X6069600Y3149220D01*
X6068339Y3145640D01*
X6067700Y3141900D01*
X6067700Y3138100D01*
X6068339Y3134360D01*
X6069580Y3130840D01*
X6069800Y3129520D01*
X6069800Y2480020D01*
X6069500Y2478500D01*
X6068620Y2477200D01*
X5807800Y2216380D01*
X5806500Y2215500D01*
X5804980Y2215200D01*
X5698420Y2215200D01*
X5696900Y2215500D01*
X5695599Y2216380D01*
X5694720Y2217660D01*
X5694420Y2219200D01*
X5694720Y2220740D01*
X5695599Y2222020D01*
X5899220Y2425660D01*
X5900480Y2427020D01*
X5901540Y2428420D01*
X5902500Y2429900D01*
X5903300Y2431460D01*
X5903980Y2433100D01*
X5904500Y2434780D01*
X5904880Y2436500D01*
X5905119Y2438240D01*
X5905200Y2440080D01*
X5905200Y2874660D01*
X5905560Y2876300D01*
X5906640Y2878060D01*
X5929220Y2900659D01*
X5930540Y2902100D01*
X5931540Y2903399D01*
X5932540Y2904980D01*
X5933300Y2906460D01*
X5934020Y2908180D01*
X5934500Y2909760D01*
X5934900Y2911600D01*
X5935119Y2913240D01*
X5935200Y2915179D01*
X5930200Y4010000D01*
X5930200Y4129660D01*
X5930560Y4131300D01*
X5931120Y4132540D01*
X5932060Y4136220D01*
X5932400Y4140000D01*
X5932060Y4143780D01*
X5931120Y4147460D01*
X5929539Y4150920D01*
X5927420Y4154060D01*
X5924800Y4156800D01*
X5921740Y4159060D01*
X5918339Y4160779D01*
X5914720Y4161880D01*
X5910960Y4162380D01*
X5907160Y4162200D01*
X5903440Y4161400D01*
X5899920Y4160000D01*
X5896680Y4158000D01*
X5893840Y4155500D01*
X5891440Y4152540D01*
X5889600Y4149220D01*
X5888339Y4145640D01*
X5887700Y4141900D01*
X5887700Y4138100D01*
X5888339Y4134360D01*
X5889580Y4130840D01*
X5889800Y4129520D01*
X5889800Y4009860D01*
X5894760Y2925000D01*
X5894460Y2923460D01*
X5893579Y2922140D01*
X5878020Y2906580D01*
X5876680Y2905700D01*
X5874920Y2905000D01*
X5871680Y2903000D01*
X5868840Y2900500D01*
X5866440Y2897540D01*
X5864600Y2894220D01*
X5863339Y2890640D01*
X5862700Y2886900D01*
X5862700Y2883100D01*
X5863339Y2879360D01*
X5864580Y2875840D01*
X5864800Y2874520D01*
X5864800Y2450020D01*
X5864500Y2448500D01*
X5863620Y2447200D01*
X5667800Y2251380D01*
X5666500Y2250500D01*
X5664980Y2250200D01*
X5573420Y2250200D01*
X5571900Y2250500D01*
X5570599Y2251380D01*
X5569720Y2252660D01*
X5569420Y2254200D01*
X5569720Y2255740D01*
X5570599Y2257020D01*
X5672200Y2358620D01*
X5673500Y2359500D01*
X5675019Y2359800D01*
X5749920Y2359800D01*
X5751760Y2359880D01*
X5753500Y2360120D01*
X5755220Y2360500D01*
X5756900Y2361020D01*
X5758540Y2361700D01*
X5760100Y2362500D01*
X5761580Y2363460D01*
X5762980Y2364520D01*
X5764340Y2365780D01*
X5809220Y2410660D01*
X5810480Y2412020D01*
X5811540Y2413420D01*
X5812500Y2414900D01*
X5813300Y2416460D01*
X5813980Y2418100D01*
X5814500Y2419780D01*
X5814880Y2421500D01*
X5815119Y2423240D01*
X5815200Y2425080D01*
X5815200Y2969660D01*
X5815560Y2971300D01*
X5816120Y2972540D01*
X5817060Y2976220D01*
X5817400Y2980000D01*
X5817060Y2983780D01*
X5816120Y2987460D01*
X5814539Y2990920D01*
X5812420Y2994060D01*
X5809800Y2996800D01*
X5806760Y2999060D01*
X5802900Y3000980D01*
X5801840Y3001720D01*
X5766380Y3037200D01*
X5765500Y3038500D01*
X5765200Y3040020D01*
X5765200Y4229660D01*
X5765560Y4231300D01*
X5766120Y4232540D01*
X5767060Y4236220D01*
X5767400Y4240000D01*
X5767060Y4243780D01*
X5766120Y4247460D01*
X5764539Y4250920D01*
X5762420Y4254060D01*
X5759800Y4256800D01*
X5756740Y4259060D01*
X5753339Y4260780D01*
X5749720Y4261880D01*
X5745960Y4262380D01*
X5742160Y4262200D01*
X5738440Y4261400D01*
X5734920Y4260000D01*
X5731680Y4258000D01*
X5728840Y4255500D01*
X5726440Y4252540D01*
X5724600Y4249220D01*
X5723339Y4245640D01*
X5722700Y4241900D01*
X5722700Y4238100D01*
X5723339Y4234360D01*
X5724580Y4230840D01*
X5724800Y4229520D01*
X5724800Y3030080D01*
X5724880Y3028240D01*
X5725119Y3026500D01*
X5725500Y3024780D01*
X5726020Y3023100D01*
X5726700Y3021460D01*
X5727500Y3019900D01*
X5728460Y3018420D01*
X5729520Y3017020D01*
X5730780Y3015659D01*
X5773380Y2973060D01*
X5774320Y2971560D01*
X5774800Y2969520D01*
X5774800Y2435020D01*
X5774500Y2433500D01*
X5773620Y2432200D01*
X5742800Y2401380D01*
X5741500Y2400500D01*
X5739980Y2400200D01*
X5665080Y2400200D01*
X5663240Y2400120D01*
X5661500Y2399880D01*
X5659779Y2399500D01*
X5658099Y2398980D01*
X5656460Y2398300D01*
X5654900Y2397500D01*
X5653420Y2396540D01*
X5652020Y2395480D01*
X5650660Y2394220D01*
X5537800Y2281380D01*
X5536500Y2280500D01*
X5534980Y2280200D01*
X1735020Y2280200D01*
X1733500Y2280500D01*
X1732200Y2281380D01*
X1671380Y2342200D01*
X1670500Y2343500D01*
X1670200Y2345020D01*
X1670200Y2382200D01*
X1670500Y2383740D01*
X1671380Y2385020D01*
X1672660Y2385900D01*
X1674199Y2386200D01*
X1677780Y2386200D01*
X1680260Y2386480D01*
X1682420Y2387240D01*
X1684340Y2388440D01*
X1685960Y2390060D01*
X1687160Y2391980D01*
X1687920Y2394140D01*
X1688200Y2396620D01*
X1688200Y2463380D01*
X1687920Y2465860D01*
X1687160Y2468020D01*
X1685960Y2469940D01*
X1684340Y2471560D01*
X1682420Y2472760D01*
X1680260Y2473520D01*
X1677780Y2473800D01*
X1622220Y2473800D01*
X1619740Y2473520D01*
X1617580Y2472760D01*
X1615660Y2471560D01*
X1614040Y2469940D01*
X1612840Y2468020D01*
X1612080Y2465860D01*
X1611800Y2463380D01*
X1611800Y2396620D01*
X1612080Y2394140D01*
X1612840Y2391980D01*
X1614040Y2390060D01*
X1615660Y2388440D01*
X1617580Y2387240D01*
X1619740Y2386480D01*
X1622220Y2386200D01*
X1625800Y2386200D01*
X1627340Y2385900D01*
X1628620Y2385020D01*
X1629500Y2383740D01*
X1629800Y2382200D01*
X1629800Y2335080D01*
X1629880Y2333240D01*
X1630120Y2331500D01*
X1630500Y2329780D01*
X1631020Y2328100D01*
X1631699Y2326460D01*
X1632500Y2324900D01*
X1633460Y2323420D01*
X1634520Y2322020D01*
X1635780Y2320660D01*
X1710660Y2245780D01*
X1712020Y2244520D01*
X1713420Y2243460D01*
X1714900Y2242500D01*
X1716459Y2241700D01*
X1718100Y2241020D01*
X1719780Y2240500D01*
X1721500Y2240120D01*
X1723240Y2239880D01*
X1725080Y2239800D01*
X1859300Y2239800D01*
X1860980Y2239420D01*
X1862360Y2238380D01*
X1863160Y2236840D01*
X1863240Y2235120D01*
X1862700Y2231900D01*
X1862700Y2228100D01*
X1863340Y2224360D01*
X1864600Y2220780D01*
X1866440Y2217460D01*
X1868839Y2214500D01*
X1871680Y2212000D01*
X1874920Y2210000D01*
X1878440Y2208600D01*
X1882160Y2207800D01*
X1885960Y2207620D01*
X1889720Y2208120D01*
X1893340Y2209220D01*
X1894520Y2209700D01*
X1895440Y2209800D01*
X2030920Y2209800D01*
X2032420Y2209520D01*
X2033680Y2208680D01*
X2034560Y2207440D01*
X2034920Y2205960D01*
X2034700Y2204460D01*
X2033340Y2200640D01*
X2032700Y2196900D01*
X2032700Y2193100D01*
X2033340Y2189360D01*
X2034600Y2185780D01*
X2036459Y2182460D01*
X2038839Y2179500D01*
X2041699Y2177000D01*
X2044920Y2175000D01*
X2048460Y2173600D01*
X2052160Y2172800D01*
G37*
G36*
X1566500Y2386200D02*
G01*
X1577780Y2386200D01*
X1580260Y2386480D01*
X1582420Y2387240D01*
X1584340Y2388440D01*
X1585960Y2390060D01*
X1587160Y2391980D01*
X1587920Y2394140D01*
X1588200Y2396620D01*
X1588200Y2410700D01*
X1566500Y2410700D01*
G37*
G36*
X1522220Y2386200D02*
G01*
X1533500Y2386200D01*
X1533500Y2410700D01*
X1511800Y2410700D01*
X1511800Y2396620D01*
X1512080Y2394140D01*
X1512840Y2391980D01*
X1514040Y2390060D01*
X1515660Y2388440D01*
X1517580Y2387240D01*
X1519740Y2386480D01*
G37*
G36*
X2682220Y2386200D02*
G01*
X2737780Y2386200D01*
X2740260Y2386480D01*
X2742420Y2387240D01*
X2744340Y2388440D01*
X2745960Y2390060D01*
X2747160Y2391980D01*
X2747919Y2394140D01*
X2748200Y2396620D01*
X2748200Y2463380D01*
X2747919Y2465860D01*
X2747160Y2468020D01*
X2745960Y2469940D01*
X2744340Y2471560D01*
X2742420Y2472760D01*
X2740260Y2473520D01*
X2737780Y2473800D01*
X2682220Y2473800D01*
X2679740Y2473520D01*
X2677580Y2472760D01*
X2675659Y2471560D01*
X2674040Y2469940D01*
X2672840Y2468020D01*
X2672080Y2465860D01*
X2671800Y2463380D01*
X2671800Y2396620D01*
X2672080Y2394140D01*
X2672840Y2391980D01*
X2674040Y2390060D01*
X2675659Y2388440D01*
X2677580Y2387240D01*
X2679740Y2386480D01*
G37*
G36*
X2022220Y2386200D02*
G01*
X2077780Y2386200D01*
X2080260Y2386480D01*
X2082420Y2387240D01*
X2084340Y2388440D01*
X2085960Y2390060D01*
X2087160Y2391980D01*
X2087920Y2394140D01*
X2088200Y2396620D01*
X2088200Y2463380D01*
X2087920Y2465860D01*
X2087160Y2468020D01*
X2085960Y2469940D01*
X2084340Y2471560D01*
X2082420Y2472760D01*
X2080260Y2473520D01*
X2077780Y2473800D01*
X2022220Y2473800D01*
X2019740Y2473520D01*
X2017580Y2472760D01*
X2015660Y2471560D01*
X2014040Y2469940D01*
X2012840Y2468020D01*
X2012080Y2465860D01*
X2011800Y2463380D01*
X2011800Y2396620D01*
X2012080Y2394140D01*
X2012840Y2391980D01*
X2014040Y2390060D01*
X2015660Y2388440D01*
X2017580Y2387240D01*
X2019740Y2386480D01*
G37*
G36*
X1922220Y2386200D02*
G01*
X1977780Y2386200D01*
X1980260Y2386480D01*
X1982420Y2387240D01*
X1984340Y2388440D01*
X1985960Y2390060D01*
X1987160Y2391980D01*
X1987920Y2394140D01*
X1988200Y2396620D01*
X1988200Y2463380D01*
X1987920Y2465860D01*
X1987160Y2468020D01*
X1985960Y2469940D01*
X1984340Y2471560D01*
X1982420Y2472760D01*
X1980260Y2473520D01*
X1977780Y2473800D01*
X1922220Y2473800D01*
X1919740Y2473520D01*
X1917580Y2472760D01*
X1915660Y2471560D01*
X1914040Y2469940D01*
X1912840Y2468020D01*
X1912080Y2465860D01*
X1911800Y2463380D01*
X1911800Y2396620D01*
X1912080Y2394140D01*
X1912840Y2391980D01*
X1914040Y2390060D01*
X1915660Y2388440D01*
X1917580Y2387240D01*
X1919740Y2386480D01*
G37*
G36*
X2782220Y2386200D02*
G01*
X2837780Y2386200D01*
X2840260Y2386480D01*
X2842420Y2387240D01*
X2844340Y2388440D01*
X2845960Y2390060D01*
X2847160Y2391980D01*
X2847919Y2394140D01*
X2848200Y2396620D01*
X2848200Y2463380D01*
X2847919Y2465860D01*
X2847160Y2468020D01*
X2845960Y2469940D01*
X2844340Y2471560D01*
X2842420Y2472760D01*
X2840260Y2473520D01*
X2837780Y2473800D01*
X2782220Y2473800D01*
X2779740Y2473520D01*
X2777580Y2472760D01*
X2775659Y2471560D01*
X2774040Y2469940D01*
X2772840Y2468020D01*
X2772080Y2465860D01*
X2771800Y2463380D01*
X2771800Y2396620D01*
X2772080Y2394140D01*
X2772840Y2391980D01*
X2774040Y2390060D01*
X2775659Y2388440D01*
X2777580Y2387240D01*
X2779740Y2386480D01*
G37*
G36*
X2882220Y2386200D02*
G01*
X2937780Y2386200D01*
X2940260Y2386480D01*
X2942420Y2387240D01*
X2944340Y2388440D01*
X2945960Y2390060D01*
X2947160Y2391980D01*
X2947919Y2394140D01*
X2948200Y2396620D01*
X2948200Y2463380D01*
X2947919Y2465860D01*
X2947160Y2468020D01*
X2945960Y2469940D01*
X2944340Y2471560D01*
X2942420Y2472760D01*
X2940260Y2473520D01*
X2937780Y2473800D01*
X2882220Y2473800D01*
X2879740Y2473520D01*
X2877580Y2472760D01*
X2875659Y2471560D01*
X2874040Y2469940D01*
X2872840Y2468020D01*
X2872080Y2465860D01*
X2871800Y2463380D01*
X2871800Y2396620D01*
X2872080Y2394140D01*
X2872840Y2391980D01*
X2874040Y2390060D01*
X2875659Y2388440D01*
X2877580Y2387240D01*
X2879740Y2386480D01*
G37*
G36*
X1822220Y2386200D02*
G01*
X1877780Y2386200D01*
X1880260Y2386480D01*
X1882420Y2387240D01*
X1884340Y2388440D01*
X1885960Y2390060D01*
X1887160Y2391980D01*
X1887920Y2394140D01*
X1888200Y2396620D01*
X1888200Y2463380D01*
X1887920Y2465860D01*
X1887160Y2468020D01*
X1885960Y2469940D01*
X1884340Y2471560D01*
X1882420Y2472760D01*
X1880260Y2473520D01*
X1877780Y2473800D01*
X1822220Y2473800D01*
X1819740Y2473520D01*
X1817580Y2472760D01*
X1815660Y2471560D01*
X1814040Y2469940D01*
X1812840Y2468020D01*
X1812080Y2465860D01*
X1811800Y2463380D01*
X1811800Y2396620D01*
X1812080Y2394140D01*
X1812840Y2391980D01*
X1814040Y2390060D01*
X1815660Y2388440D01*
X1817580Y2387240D01*
X1819740Y2386480D01*
G37*
G36*
X2982220Y2386200D02*
G01*
X3037780Y2386200D01*
X3040260Y2386480D01*
X3042420Y2387240D01*
X3044340Y2388440D01*
X3045960Y2390060D01*
X3047160Y2391980D01*
X3047919Y2394140D01*
X3048200Y2396620D01*
X3048200Y2463380D01*
X3047919Y2465860D01*
X3047160Y2468020D01*
X3045960Y2469940D01*
X3044340Y2471560D01*
X3042420Y2472760D01*
X3040260Y2473520D01*
X3037780Y2473800D01*
X2982220Y2473800D01*
X2979740Y2473520D01*
X2977580Y2472760D01*
X2975659Y2471560D01*
X2974040Y2469940D01*
X2972840Y2468020D01*
X2972080Y2465860D01*
X2971800Y2463380D01*
X2971800Y2396620D01*
X2972080Y2394140D01*
X2972840Y2391980D01*
X2974040Y2390060D01*
X2975659Y2388440D01*
X2977580Y2387240D01*
X2979740Y2386480D01*
G37*
G36*
X1422220Y2386200D02*
G01*
X1477780Y2386200D01*
X1480260Y2386480D01*
X1482420Y2387240D01*
X1484340Y2388440D01*
X1485960Y2390060D01*
X1487160Y2391980D01*
X1487920Y2394140D01*
X1488200Y2396620D01*
X1488200Y2463380D01*
X1487920Y2465860D01*
X1487160Y2468020D01*
X1485960Y2469940D01*
X1484340Y2471560D01*
X1482420Y2472760D01*
X1480260Y2473520D01*
X1477780Y2473800D01*
X1422220Y2473800D01*
X1419740Y2473520D01*
X1417580Y2472760D01*
X1415660Y2471560D01*
X1414040Y2469940D01*
X1412840Y2468020D01*
X1412080Y2465860D01*
X1411800Y2463380D01*
X1411800Y2396620D01*
X1412080Y2394140D01*
X1412840Y2391980D01*
X1414040Y2390060D01*
X1415660Y2388440D01*
X1417580Y2387240D01*
X1419740Y2386480D01*
G37*
G36*
X2122220Y2386200D02*
G01*
X2177780Y2386200D01*
X2180260Y2386480D01*
X2182420Y2387240D01*
X2184340Y2388440D01*
X2185960Y2390060D01*
X2187160Y2391980D01*
X2187920Y2394140D01*
X2188200Y2396620D01*
X2188200Y2463380D01*
X2187920Y2465860D01*
X2187160Y2468020D01*
X2185960Y2469940D01*
X2184340Y2471560D01*
X2182420Y2472760D01*
X2180260Y2473520D01*
X2177780Y2473800D01*
X2122220Y2473800D01*
X2119740Y2473520D01*
X2117580Y2472760D01*
X2115660Y2471560D01*
X2114040Y2469940D01*
X2112840Y2468020D01*
X2112080Y2465860D01*
X2111800Y2463380D01*
X2111800Y2396620D01*
X2112080Y2394140D01*
X2112840Y2391980D01*
X2114040Y2390060D01*
X2115660Y2388440D01*
X2117580Y2387240D01*
X2119740Y2386480D01*
G37*
G36*
X1722220Y2386200D02*
G01*
X1777780Y2386200D01*
X1780260Y2386480D01*
X1782420Y2387240D01*
X1784340Y2388440D01*
X1785960Y2390060D01*
X1787160Y2391980D01*
X1787920Y2394140D01*
X1788200Y2396620D01*
X1788200Y2463380D01*
X1787920Y2465860D01*
X1787160Y2468020D01*
X1785960Y2469940D01*
X1784340Y2471560D01*
X1782420Y2472760D01*
X1780260Y2473520D01*
X1777780Y2473800D01*
X1722220Y2473800D01*
X1719740Y2473520D01*
X1717580Y2472760D01*
X1715660Y2471560D01*
X1714040Y2469940D01*
X1712840Y2468020D01*
X1712080Y2465860D01*
X1711800Y2463380D01*
X1711800Y2396620D01*
X1712080Y2394140D01*
X1712840Y2391980D01*
X1714040Y2390060D01*
X1715660Y2388440D01*
X1717580Y2387240D01*
X1719740Y2386480D01*
G37*
G36*
X2582220Y2386200D02*
G01*
X2637780Y2386200D01*
X2640260Y2386480D01*
X2642420Y2387240D01*
X2644340Y2388440D01*
X2645960Y2390060D01*
X2647160Y2391980D01*
X2647919Y2394140D01*
X2648200Y2396620D01*
X2648200Y2463380D01*
X2647919Y2465860D01*
X2647160Y2468020D01*
X2645960Y2469940D01*
X2644340Y2471560D01*
X2642420Y2472760D01*
X2640260Y2473520D01*
X2637780Y2473800D01*
X2582220Y2473800D01*
X2579740Y2473520D01*
X2577580Y2472760D01*
X2575659Y2471560D01*
X2574040Y2469940D01*
X2572840Y2468020D01*
X2572080Y2465860D01*
X2571800Y2463380D01*
X2571800Y2396620D01*
X2572080Y2394140D01*
X2572840Y2391980D01*
X2574040Y2390060D01*
X2575659Y2388440D01*
X2577580Y2387240D01*
X2579740Y2386480D01*
G37*
G36*
X1322220Y2386200D02*
G01*
X1377780Y2386200D01*
X1380260Y2386480D01*
X1382420Y2387240D01*
X1384340Y2388440D01*
X1385960Y2390060D01*
X1387160Y2391980D01*
X1387920Y2394140D01*
X1388200Y2396620D01*
X1388200Y2463380D01*
X1387920Y2465860D01*
X1387160Y2468020D01*
X1385960Y2469940D01*
X1384340Y2471560D01*
X1382420Y2472760D01*
X1380260Y2473520D01*
X1377780Y2473800D01*
X1322220Y2473800D01*
X1319740Y2473520D01*
X1317580Y2472760D01*
X1315660Y2471560D01*
X1314040Y2469940D01*
X1312840Y2468020D01*
X1312080Y2465860D01*
X1311800Y2463380D01*
X1311800Y2396620D01*
X1312080Y2394140D01*
X1312840Y2391980D01*
X1314040Y2390060D01*
X1315660Y2388440D01*
X1317580Y2387240D01*
X1319740Y2386480D01*
G37*
G36*
X1222220Y2386200D02*
G01*
X1277780Y2386200D01*
X1280260Y2386480D01*
X1282420Y2387240D01*
X1284340Y2388440D01*
X1285960Y2390060D01*
X1287160Y2391980D01*
X1287920Y2394140D01*
X1288200Y2396620D01*
X1288200Y2463380D01*
X1287920Y2465860D01*
X1287160Y2468020D01*
X1285960Y2469940D01*
X1284340Y2471560D01*
X1282420Y2472760D01*
X1280260Y2473520D01*
X1277780Y2473800D01*
X1222220Y2473800D01*
X1219740Y2473520D01*
X1217580Y2472760D01*
X1215660Y2471560D01*
X1214040Y2469940D01*
X1212840Y2468020D01*
X1212080Y2465860D01*
X1211800Y2463380D01*
X1211800Y2396620D01*
X1212080Y2394140D01*
X1212840Y2391980D01*
X1214040Y2390060D01*
X1215660Y2388440D01*
X1217580Y2387240D01*
X1219740Y2386480D01*
G37*
G36*
X2282220Y2386200D02*
G01*
X2337780Y2386200D01*
X2340260Y2386480D01*
X2342420Y2387240D01*
X2344340Y2388440D01*
X2345960Y2390060D01*
X2347160Y2391980D01*
X2347920Y2394140D01*
X2348200Y2396620D01*
X2348200Y2463380D01*
X2347920Y2465860D01*
X2347160Y2468020D01*
X2345960Y2469940D01*
X2344340Y2471560D01*
X2342420Y2472760D01*
X2340260Y2473520D01*
X2337780Y2473800D01*
X2334200Y2473800D01*
X2332660Y2474100D01*
X2331380Y2474980D01*
X2330500Y2476260D01*
X2330200Y2477800D01*
X2330200Y2669920D01*
X2330120Y2671760D01*
X2329880Y2673500D01*
X2329500Y2675220D01*
X2328980Y2676900D01*
X2328300Y2678540D01*
X2327500Y2680100D01*
X2326540Y2681580D01*
X2325480Y2682980D01*
X2324220Y2684340D01*
X1971380Y3037200D01*
X1970500Y3038500D01*
X1970200Y3040020D01*
X1970200Y3474980D01*
X1970500Y3476500D01*
X1971380Y3477799D01*
X1977200Y3483620D01*
X1978500Y3484500D01*
X1980020Y3484800D01*
X2076579Y3484800D01*
X2078100Y3484500D01*
X2079400Y3483620D01*
X2080280Y3482340D01*
X2080580Y3480800D01*
X2080280Y3479260D01*
X2079400Y3477980D01*
X2050780Y3449340D01*
X2049520Y3447980D01*
X2048460Y3446580D01*
X2047500Y3445100D01*
X2046699Y3443540D01*
X2046020Y3441900D01*
X2045500Y3440220D01*
X2045120Y3438500D01*
X2044880Y3436760D01*
X2044800Y3434920D01*
X2044800Y3355080D01*
X2044880Y3353240D01*
X2045120Y3351500D01*
X2045500Y3349780D01*
X2046020Y3348100D01*
X2046699Y3346460D01*
X2047500Y3344900D01*
X2048460Y3343420D01*
X2049520Y3342020D01*
X2050780Y3340659D01*
X2388620Y3002799D01*
X2389500Y3001500D01*
X2389800Y2999980D01*
X2389800Y2477800D01*
X2389500Y2476260D01*
X2388620Y2474980D01*
X2387340Y2474100D01*
X2385800Y2473800D01*
X2382220Y2473800D01*
X2379740Y2473520D01*
X2377580Y2472760D01*
X2375660Y2471560D01*
X2374040Y2469940D01*
X2372840Y2468020D01*
X2372080Y2465860D01*
X2371800Y2463380D01*
X2371800Y2396620D01*
X2372080Y2394140D01*
X2372840Y2391980D01*
X2374040Y2390060D01*
X2375660Y2388440D01*
X2377580Y2387240D01*
X2379740Y2386480D01*
X2382220Y2386200D01*
X2437780Y2386200D01*
X2440260Y2386480D01*
X2442420Y2387240D01*
X2444340Y2388440D01*
X2445960Y2390060D01*
X2447160Y2391980D01*
X2447920Y2394140D01*
X2448200Y2396620D01*
X2448200Y2463380D01*
X2447920Y2465860D01*
X2447160Y2468020D01*
X2445960Y2469940D01*
X2444340Y2471560D01*
X2442420Y2472760D01*
X2440260Y2473520D01*
X2437780Y2473800D01*
X2434200Y2473800D01*
X2432660Y2474100D01*
X2431380Y2474980D01*
X2430500Y2476260D01*
X2430200Y2477800D01*
X2430200Y3009920D01*
X2430120Y3011760D01*
X2429880Y3013500D01*
X2429500Y3015220D01*
X2428980Y3016900D01*
X2428300Y3018540D01*
X2427500Y3020100D01*
X2426540Y3021580D01*
X2425480Y3022980D01*
X2424220Y3024340D01*
X2086380Y3362200D01*
X2085500Y3363500D01*
X2085200Y3365020D01*
X2085200Y3424980D01*
X2085500Y3426500D01*
X2086380Y3427799D01*
X2112200Y3453620D01*
X2113500Y3454500D01*
X2115020Y3454800D01*
X2206580Y3454800D01*
X2208100Y3454500D01*
X2209400Y3453620D01*
X2210280Y3452340D01*
X2210580Y3450800D01*
X2210280Y3449260D01*
X2209400Y3447980D01*
X2180780Y3419340D01*
X2179520Y3417980D01*
X2178460Y3416580D01*
X2177500Y3415100D01*
X2176700Y3413540D01*
X2176020Y3411900D01*
X2175500Y3410220D01*
X2175120Y3408500D01*
X2174880Y3406760D01*
X2174800Y3404920D01*
X2174800Y3350080D01*
X2174880Y3348240D01*
X2175120Y3346500D01*
X2175500Y3344780D01*
X2176020Y3343100D01*
X2176700Y3341460D01*
X2177500Y3339900D01*
X2178460Y3338420D01*
X2179520Y3337020D01*
X2180780Y3335659D01*
X2488620Y3027799D01*
X2489500Y3026500D01*
X2489800Y3024980D01*
X2489800Y2477800D01*
X2489500Y2476260D01*
X2488620Y2474980D01*
X2487340Y2474100D01*
X2485800Y2473800D01*
X2482220Y2473800D01*
X2479740Y2473520D01*
X2477580Y2472760D01*
X2475660Y2471560D01*
X2474040Y2469940D01*
X2472840Y2468020D01*
X2472080Y2465860D01*
X2471800Y2463380D01*
X2471800Y2396620D01*
X2472080Y2394140D01*
X2472840Y2391980D01*
X2474040Y2390060D01*
X2475660Y2388440D01*
X2477580Y2387240D01*
X2479740Y2386480D01*
X2482220Y2386200D01*
X2537780Y2386200D01*
X2540260Y2386480D01*
X2542420Y2387240D01*
X2544340Y2388440D01*
X2545960Y2390060D01*
X2547160Y2391980D01*
X2547920Y2394140D01*
X2548200Y2396620D01*
X2548200Y2463380D01*
X2547920Y2465860D01*
X2547160Y2468020D01*
X2545960Y2469940D01*
X2544340Y2471560D01*
X2542420Y2472760D01*
X2540260Y2473520D01*
X2537780Y2473800D01*
X2534200Y2473800D01*
X2532660Y2474100D01*
X2531380Y2474980D01*
X2530500Y2476260D01*
X2530200Y2477800D01*
X2530200Y3034920D01*
X2530120Y3036760D01*
X2529880Y3038500D01*
X2529500Y3040220D01*
X2528980Y3041900D01*
X2528300Y3043540D01*
X2527500Y3045100D01*
X2526540Y3046580D01*
X2525480Y3047980D01*
X2524220Y3049340D01*
X2216380Y3357200D01*
X2215500Y3358500D01*
X2215200Y3360020D01*
X2215200Y3394980D01*
X2215500Y3396500D01*
X2216380Y3397799D01*
X2242200Y3423620D01*
X2243500Y3424500D01*
X2245020Y3424800D01*
X3889980Y3424800D01*
X3891500Y3424500D01*
X3892799Y3423620D01*
X4098620Y3217799D01*
X4099500Y3216500D01*
X4099800Y3214980D01*
X4099800Y3126880D01*
X4099880Y3125020D01*
X4100120Y3123279D01*
X4100500Y3121560D01*
X4101019Y3119880D01*
X4101700Y3118260D01*
X4102500Y3116700D01*
X4103460Y3115200D01*
X4104520Y3113800D01*
X4105779Y3112440D01*
X4331660Y2886560D01*
X4332380Y2885580D01*
X4332760Y2884420D01*
X4332780Y2883180D01*
X4331980Y2877380D01*
X4331980Y2872020D01*
X4332700Y2866700D01*
X4334120Y2861540D01*
X4336200Y2856580D01*
X4338940Y2851960D01*
X4342280Y2847760D01*
X4346140Y2844020D01*
X4350460Y2840840D01*
X4355160Y2838260D01*
X4360180Y2836320D01*
X4365400Y2835080D01*
X4370740Y2834540D01*
X4376100Y2834720D01*
X4381400Y2835620D01*
X4386520Y2837200D01*
X4391400Y2839460D01*
X4395920Y2842360D01*
X4400020Y2845820D01*
X4403620Y2849800D01*
X4406660Y2854240D01*
X4409080Y2859020D01*
X4410840Y2864100D01*
X4411920Y2869360D01*
X4412280Y2874720D01*
X4411920Y2880080D01*
X4410840Y2885340D01*
X4409080Y2890400D01*
X4406660Y2895200D01*
X4403620Y2899620D01*
X4400020Y2903600D01*
X4395920Y2907080D01*
X4391400Y2909960D01*
X4386520Y2912220D01*
X4381400Y2913820D01*
X4376100Y2914700D01*
X4370740Y2914880D01*
X4365400Y2914340D01*
X4364040Y2914020D01*
X4362680Y2913940D01*
X4361380Y2914300D01*
X4360280Y2915080D01*
X4141380Y3133980D01*
X4140500Y3135280D01*
X4140200Y3136820D01*
X4140200Y3224920D01*
X4140120Y3226760D01*
X4139880Y3228500D01*
X4139500Y3230220D01*
X4138980Y3231900D01*
X4138300Y3233540D01*
X4137500Y3235100D01*
X4136540Y3236580D01*
X4135480Y3237980D01*
X4134220Y3239340D01*
X3925600Y3447980D01*
X3924720Y3449260D01*
X3924420Y3450800D01*
X3924720Y3452340D01*
X3925600Y3453620D01*
X3926900Y3454500D01*
X3928420Y3454800D01*
X5314980Y3454800D01*
X5316500Y3454500D01*
X5317800Y3453620D01*
X5493380Y3278060D01*
X5494320Y3276560D01*
X5494600Y3275779D01*
X5496440Y3272460D01*
X5498840Y3269500D01*
X5501680Y3267000D01*
X5504920Y3265000D01*
X5508440Y3263600D01*
X5512160Y3262799D01*
X5515960Y3262620D01*
X5519720Y3263120D01*
X5523339Y3264220D01*
X5526740Y3265940D01*
X5529800Y3268200D01*
X5532420Y3270940D01*
X5534539Y3274080D01*
X5536120Y3277540D01*
X5537060Y3281220D01*
X5537400Y3285000D01*
X5537060Y3288780D01*
X5536120Y3292460D01*
X5534539Y3295920D01*
X5532420Y3299060D01*
X5529800Y3301800D01*
X5526760Y3304060D01*
X5522900Y3305980D01*
X5521840Y3306720D01*
X5339340Y3489220D01*
X5337980Y3490480D01*
X5336580Y3491540D01*
X5335100Y3492500D01*
X5333540Y3493300D01*
X5331900Y3493980D01*
X5330220Y3494500D01*
X5328500Y3494880D01*
X5326760Y3495120D01*
X5324920Y3495200D01*
X5168420Y3495200D01*
X5166900Y3495500D01*
X5165599Y3496380D01*
X5164720Y3497660D01*
X5164420Y3499200D01*
X5164720Y3500740D01*
X5165599Y3502020D01*
X5354220Y3690659D01*
X5355480Y3692020D01*
X5356540Y3693420D01*
X5357500Y3694900D01*
X5358300Y3696460D01*
X5358980Y3698100D01*
X5359500Y3699780D01*
X5359880Y3701500D01*
X5360119Y3703240D01*
X5360200Y3705080D01*
X5360200Y3984980D01*
X5360500Y3986500D01*
X5361380Y3987799D01*
X5371840Y3998279D01*
X5372900Y3999020D01*
X5376760Y4000940D01*
X5379800Y4003200D01*
X5382420Y4005940D01*
X5384539Y4009080D01*
X5386120Y4012540D01*
X5387060Y4016220D01*
X5387400Y4020000D01*
X5387060Y4023780D01*
X5386120Y4027460D01*
X5384539Y4030920D01*
X5382420Y4034060D01*
X5379800Y4036800D01*
X5376740Y4039060D01*
X5373339Y4040779D01*
X5369720Y4041880D01*
X5365960Y4042380D01*
X5362160Y4042200D01*
X5358440Y4041400D01*
X5354920Y4040000D01*
X5351680Y4038000D01*
X5348840Y4035500D01*
X5346440Y4032540D01*
X5344600Y4029220D01*
X5344320Y4028440D01*
X5343380Y4026940D01*
X5325780Y4009340D01*
X5324520Y4007980D01*
X5323460Y4006580D01*
X5322500Y4005100D01*
X5321700Y4003540D01*
X5321020Y4001900D01*
X5320500Y4000220D01*
X5320119Y3998500D01*
X5319880Y3996760D01*
X5319800Y3994920D01*
X5319800Y3715020D01*
X5319500Y3713500D01*
X5318620Y3712200D01*
X5132800Y3526380D01*
X5131500Y3525500D01*
X5129980Y3525200D01*
X4143420Y3525200D01*
X4141900Y3525500D01*
X4140600Y3526380D01*
X4139720Y3527660D01*
X4139420Y3529200D01*
X4139720Y3530740D01*
X4140600Y3532020D01*
X4184220Y3575659D01*
X4185480Y3577020D01*
X4186540Y3578420D01*
X4187500Y3579900D01*
X4188300Y3581460D01*
X4188980Y3583100D01*
X4189500Y3584780D01*
X4189880Y3586500D01*
X4190120Y3588240D01*
X4190200Y3590080D01*
X4190200Y3912600D01*
X4190500Y3914140D01*
X4191380Y3915440D01*
X4360280Y4084340D01*
X4361380Y4085120D01*
X4362680Y4085500D01*
X4364040Y4085400D01*
X4365400Y4085080D01*
X4370740Y4084540D01*
X4376100Y4084720D01*
X4381400Y4085620D01*
X4386520Y4087200D01*
X4391400Y4089460D01*
X4395920Y4092360D01*
X4400020Y4095820D01*
X4403620Y4099800D01*
X4406660Y4104240D01*
X4409080Y4109020D01*
X4410840Y4114100D01*
X4411920Y4119360D01*
X4412280Y4124720D01*
X4411920Y4130080D01*
X4410840Y4135340D01*
X4409080Y4140400D01*
X4406660Y4145200D01*
X4403620Y4149620D01*
X4400020Y4153600D01*
X4395920Y4157080D01*
X4391400Y4159960D01*
X4386520Y4162220D01*
X4381400Y4163820D01*
X4376100Y4164700D01*
X4370740Y4164880D01*
X4365400Y4164340D01*
X4360180Y4163100D01*
X4355160Y4161180D01*
X4350460Y4158600D01*
X4346140Y4155400D01*
X4342280Y4151680D01*
X4338940Y4147460D01*
X4336200Y4142840D01*
X4334120Y4137900D01*
X4332700Y4132720D01*
X4331980Y4127400D01*
X4331980Y4122040D01*
X4332780Y4116240D01*
X4332780Y4115000D01*
X4332380Y4113840D01*
X4331660Y4112860D01*
X4155779Y3936980D01*
X4154520Y3935620D01*
X4153460Y3934220D01*
X4152500Y3932720D01*
X4151700Y3931160D01*
X4151019Y3929540D01*
X4150500Y3927860D01*
X4150120Y3926139D01*
X4149880Y3924400D01*
X4149800Y3922540D01*
X4149800Y3600020D01*
X4149500Y3598500D01*
X4148620Y3597200D01*
X4107799Y3556380D01*
X4106500Y3555500D01*
X4104980Y3555200D01*
X2380440Y3555200D01*
X2379520Y3555299D01*
X2378340Y3555779D01*
X2374720Y3556880D01*
X2370960Y3557380D01*
X2367160Y3557200D01*
X2363440Y3556400D01*
X2359920Y3555000D01*
X2356680Y3553000D01*
X2353840Y3550500D01*
X2351440Y3547540D01*
X2349600Y3544220D01*
X2348340Y3540640D01*
X2347700Y3536900D01*
X2347700Y3533100D01*
X2348240Y3529880D01*
X2348160Y3528159D01*
X2347360Y3526620D01*
X2345980Y3525580D01*
X2344300Y3525200D01*
X1970080Y3525200D01*
X1968240Y3525120D01*
X1966500Y3524880D01*
X1964780Y3524500D01*
X1963100Y3523980D01*
X1961459Y3523300D01*
X1959900Y3522500D01*
X1958420Y3521540D01*
X1957020Y3520480D01*
X1955660Y3519220D01*
X1935780Y3499340D01*
X1934520Y3497980D01*
X1933460Y3496580D01*
X1932500Y3495100D01*
X1931699Y3493540D01*
X1931020Y3491900D01*
X1930500Y3490220D01*
X1930120Y3488500D01*
X1929880Y3486760D01*
X1929800Y3484920D01*
X1929800Y3030080D01*
X1929880Y3028240D01*
X1930120Y3026500D01*
X1930500Y3024780D01*
X1931020Y3023100D01*
X1931699Y3021460D01*
X1932500Y3019900D01*
X1933460Y3018420D01*
X1934520Y3017020D01*
X1935780Y3015659D01*
X2288620Y2662799D01*
X2289500Y2661500D01*
X2289800Y2659980D01*
X2289800Y2477800D01*
X2289500Y2476260D01*
X2288620Y2474980D01*
X2287340Y2474100D01*
X2285800Y2473800D01*
X2282220Y2473800D01*
X2279740Y2473520D01*
X2277580Y2472760D01*
X2275660Y2471560D01*
X2274040Y2469940D01*
X2272840Y2468020D01*
X2272080Y2465860D01*
X2271800Y2463380D01*
X2271800Y2396620D01*
X2272080Y2394140D01*
X2272840Y2391980D01*
X2274040Y2390060D01*
X2275660Y2388440D01*
X2277580Y2387240D01*
X2279740Y2386480D01*
G37*
G36*
X5620740Y2436840D02*
G01*
X5626100Y2437020D01*
X5631400Y2437900D01*
X5636520Y2439500D01*
X5641400Y2441760D01*
X5645920Y2444640D01*
X5650019Y2448100D01*
X5653620Y2452100D01*
X5656660Y2456520D01*
X5659080Y2461300D01*
X5660839Y2466380D01*
X5661920Y2471640D01*
X5662279Y2477000D01*
X5661920Y2482360D01*
X5660839Y2487620D01*
X5659080Y2492700D01*
X5656660Y2497480D01*
X5653620Y2501900D01*
X5650019Y2505900D01*
X5645920Y2509360D01*
X5641400Y2512240D01*
X5636520Y2514500D01*
X5631400Y2516100D01*
X5626100Y2516980D01*
X5620740Y2517160D01*
X5615400Y2516640D01*
X5610180Y2515380D01*
X5605160Y2513460D01*
X5600460Y2510880D01*
X5596140Y2507700D01*
X5592279Y2503960D01*
X5588940Y2499740D01*
X5586200Y2495120D01*
X5584120Y2490180D01*
X5582700Y2485000D01*
X5581980Y2479680D01*
X5581980Y2474320D01*
X5582700Y2469000D01*
X5584120Y2463820D01*
X5586200Y2458880D01*
X5588940Y2454260D01*
X5592279Y2450040D01*
X5596140Y2446300D01*
X5600460Y2443120D01*
X5605160Y2440540D01*
X5610180Y2438620D01*
X5615400Y2437360D01*
G37*
G36*
X4370740Y2436840D02*
G01*
X4376100Y2437020D01*
X4381400Y2437900D01*
X4386520Y2439500D01*
X4391400Y2441760D01*
X4395920Y2444640D01*
X4400020Y2448100D01*
X4403620Y2452100D01*
X4406660Y2456520D01*
X4409080Y2461300D01*
X4410840Y2466380D01*
X4411920Y2471640D01*
X4412280Y2477000D01*
X4411920Y2482360D01*
X4410840Y2487620D01*
X4409080Y2492700D01*
X4406660Y2497480D01*
X4405940Y2498540D01*
X4405280Y2500140D01*
X4405380Y2501860D01*
X4406180Y2503380D01*
X4407540Y2504420D01*
X4409240Y2504800D01*
X5070460Y2504800D01*
X5072300Y2504880D01*
X5074040Y2505120D01*
X5075760Y2505500D01*
X5077440Y2506020D01*
X5079080Y2506700D01*
X5080640Y2507500D01*
X5082120Y2508460D01*
X5083520Y2509520D01*
X5084880Y2510780D01*
X5110200Y2536080D01*
X5111300Y2536860D01*
X5112600Y2537240D01*
X5113960Y2537140D01*
X5115320Y2536820D01*
X5120660Y2536280D01*
X5126020Y2536460D01*
X5131319Y2537360D01*
X5136440Y2538960D01*
X5141319Y2541220D01*
X5145839Y2544100D01*
X5149940Y2547560D01*
X5153540Y2551540D01*
X5156580Y2555980D01*
X5159000Y2560760D01*
X5160760Y2565840D01*
X5161840Y2571100D01*
X5162200Y2576460D01*
X5161840Y2581820D01*
X5160760Y2587080D01*
X5159000Y2592140D01*
X5156580Y2596940D01*
X5153540Y2601360D01*
X5149940Y2605340D01*
X5145839Y2608820D01*
X5141319Y2611700D01*
X5136440Y2613960D01*
X5131319Y2615560D01*
X5126020Y2616440D01*
X5120660Y2616620D01*
X5115320Y2616080D01*
X5110100Y2614840D01*
X5105080Y2612919D01*
X5100380Y2610340D01*
X5096060Y2607140D01*
X5092200Y2603420D01*
X5088860Y2599200D01*
X5086120Y2594580D01*
X5084040Y2589640D01*
X5082620Y2584460D01*
X5081900Y2579140D01*
X5081900Y2573780D01*
X5082700Y2567980D01*
X5082680Y2566760D01*
X5082300Y2565600D01*
X5081580Y2564600D01*
X5063340Y2546380D01*
X5062040Y2545500D01*
X5060520Y2545200D01*
X4406880Y2545200D01*
X4405200Y2545580D01*
X4403820Y2546620D01*
X4403020Y2548140D01*
X4402940Y2549860D01*
X4403580Y2551460D01*
X4406660Y2555940D01*
X4409080Y2560740D01*
X4410840Y2565800D01*
X4411920Y2571080D01*
X4412280Y2576420D01*
X4411920Y2581780D01*
X4410840Y2587040D01*
X4409080Y2592120D01*
X4406660Y2596900D01*
X4403620Y2601340D01*
X4400020Y2605320D01*
X4395920Y2608780D01*
X4391400Y2611680D01*
X4386520Y2613940D01*
X4381400Y2615520D01*
X4376100Y2616420D01*
X4370740Y2616600D01*
X4365400Y2616060D01*
X4360180Y2614820D01*
X4355160Y2612880D01*
X4350460Y2610299D01*
X4346140Y2607120D01*
X4342280Y2603380D01*
X4338940Y2599180D01*
X4336200Y2594560D01*
X4334120Y2589620D01*
X4332700Y2584440D01*
X4331980Y2579120D01*
X4331980Y2573740D01*
X4332700Y2568420D01*
X4334120Y2563240D01*
X4336200Y2558300D01*
X4338940Y2553680D01*
X4340520Y2551680D01*
X4341280Y2550080D01*
X4341280Y2548300D01*
X4340500Y2546700D01*
X4339120Y2545600D01*
X4337380Y2545200D01*
X4335020Y2545200D01*
X4333500Y2545500D01*
X4332200Y2546380D01*
X4287880Y2590680D01*
X4286520Y2591940D01*
X4285120Y2593000D01*
X4283640Y2593960D01*
X4282080Y2594760D01*
X4280440Y2595440D01*
X4278760Y2595960D01*
X4277040Y2596340D01*
X4275300Y2596580D01*
X4273460Y2596660D01*
X3908880Y2596660D01*
X3907600Y2596860D01*
X3906460Y2597460D01*
X3905580Y2598399D01*
X3903540Y2601360D01*
X3899940Y2605340D01*
X3895840Y2608820D01*
X3891320Y2611700D01*
X3886440Y2613960D01*
X3881320Y2615560D01*
X3876019Y2616440D01*
X3870659Y2616620D01*
X3865320Y2616080D01*
X3863960Y2615760D01*
X3862600Y2615680D01*
X3861300Y2616040D01*
X3860200Y2616820D01*
X3746380Y2730659D01*
X3745500Y2731960D01*
X3745200Y2733480D01*
X3745200Y3069660D01*
X3745560Y3071300D01*
X3746120Y3072540D01*
X3747060Y3076220D01*
X3747400Y3080000D01*
X3747060Y3083780D01*
X3746120Y3087460D01*
X3744540Y3090920D01*
X3742420Y3094060D01*
X3739800Y3096800D01*
X3736740Y3099060D01*
X3733340Y3100779D01*
X3729720Y3101880D01*
X3725960Y3102380D01*
X3722160Y3102200D01*
X3718440Y3101400D01*
X3714920Y3100000D01*
X3711680Y3098000D01*
X3708840Y3095500D01*
X3706440Y3092540D01*
X3704600Y3089220D01*
X3703340Y3085640D01*
X3702700Y3081900D01*
X3702700Y3078100D01*
X3703340Y3074360D01*
X3704580Y3070840D01*
X3704800Y3069520D01*
X3704800Y2723540D01*
X3704880Y2721700D01*
X3705120Y2719960D01*
X3705500Y2718240D01*
X3706019Y2716560D01*
X3706700Y2714920D01*
X3707500Y2713360D01*
X3708460Y2711880D01*
X3709520Y2710480D01*
X3710779Y2709120D01*
X3831580Y2588320D01*
X3832300Y2587320D01*
X3832700Y2586160D01*
X3832700Y2584940D01*
X3831900Y2579140D01*
X3831900Y2573780D01*
X3832620Y2568460D01*
X3834040Y2563279D01*
X3836120Y2558320D01*
X3838860Y2553700D01*
X3842200Y2549500D01*
X3846060Y2545760D01*
X3850380Y2542580D01*
X3855080Y2540000D01*
X3860100Y2538060D01*
X3865320Y2536820D01*
X3870659Y2536280D01*
X3876019Y2536460D01*
X3881320Y2537360D01*
X3886440Y2538960D01*
X3891320Y2541220D01*
X3895840Y2544100D01*
X3899940Y2547560D01*
X3903540Y2551540D01*
X3905580Y2554520D01*
X3906480Y2555460D01*
X3907620Y2556060D01*
X3908880Y2556260D01*
X4263520Y2556260D01*
X4265040Y2555960D01*
X4266340Y2555080D01*
X4310660Y2510780D01*
X4312020Y2509520D01*
X4313420Y2508460D01*
X4314900Y2507500D01*
X4316460Y2506700D01*
X4318100Y2506020D01*
X4319780Y2505500D01*
X4321500Y2505120D01*
X4323240Y2504880D01*
X4325080Y2504800D01*
X4334920Y2504800D01*
X4336560Y2504460D01*
X4337900Y2503460D01*
X4338740Y2502020D01*
X4338900Y2500340D01*
X4338360Y2498760D01*
X4336200Y2495120D01*
X4334120Y2490180D01*
X4332700Y2485000D01*
X4331980Y2479680D01*
X4331980Y2474320D01*
X4332700Y2469000D01*
X4334120Y2463820D01*
X4336200Y2458880D01*
X4338940Y2454260D01*
X4342280Y2450040D01*
X4346140Y2446300D01*
X4350460Y2443120D01*
X4355160Y2440540D01*
X4360180Y2438620D01*
X4365400Y2437360D01*
G37*
G36*
X5104500Y2440900D02*
G01*
X5104500Y2459520D01*
X5085860Y2459520D01*
X5086120Y2458900D01*
X5088860Y2454280D01*
X5092200Y2450060D01*
X5096060Y2446340D01*
X5100380Y2443160D01*
G37*
G36*
X3854500Y2440900D02*
G01*
X3854500Y2459520D01*
X3835860Y2459520D01*
X3836120Y2458900D01*
X3838860Y2454280D01*
X3842200Y2450060D01*
X3846060Y2446340D01*
X3850380Y2443160D01*
G37*
G36*
X5139500Y2440940D02*
G01*
X5141319Y2441780D01*
X5145839Y2444680D01*
X5149940Y2448140D01*
X5153540Y2452120D01*
X5156580Y2456540D01*
X5158080Y2459520D01*
X5139500Y2459520D01*
G37*
G36*
X3889500Y2440940D02*
G01*
X3891320Y2441780D01*
X3895840Y2444680D01*
X3899940Y2448140D01*
X3903540Y2452120D01*
X3906580Y2456540D01*
X3908080Y2459520D01*
X3889500Y2459520D01*
G37*
G36*
X1511800Y2449300D02*
G01*
X1533500Y2449300D01*
X1533500Y2473800D01*
X1522220Y2473800D01*
X1519740Y2473520D01*
X1517580Y2472760D01*
X1515660Y2471560D01*
X1514040Y2469940D01*
X1512840Y2468020D01*
X1512080Y2465860D01*
X1511800Y2463380D01*
G37*
G36*
X1566500Y2449300D02*
G01*
X1588200Y2449300D01*
X1588200Y2463380D01*
X1587920Y2465860D01*
X1587160Y2468020D01*
X1585960Y2469940D01*
X1584340Y2471560D01*
X1582420Y2472760D01*
X1580260Y2473520D01*
X1577780Y2473800D01*
X1566500Y2473800D01*
G37*
G36*
X5139500Y2494520D02*
G01*
X5158080Y2494520D01*
X5156580Y2497500D01*
X5153540Y2501940D01*
X5149940Y2505920D01*
X5145839Y2509380D01*
X5141319Y2512280D01*
X5139500Y2513120D01*
G37*
G36*
X3889500Y2494520D02*
G01*
X3908080Y2494520D01*
X3906580Y2497500D01*
X3903540Y2501940D01*
X3899940Y2505920D01*
X3895840Y2509380D01*
X3891320Y2512280D01*
X3889500Y2513120D01*
G37*
G36*
X5085860Y2494520D02*
G01*
X5104500Y2494520D01*
X5104500Y2513160D01*
X5100380Y2510900D01*
X5096060Y2507720D01*
X5092200Y2503980D01*
X5088860Y2499780D01*
X5086120Y2495160D01*
G37*
G36*
X3835860Y2494520D02*
G01*
X3854500Y2494520D01*
X3854500Y2513160D01*
X3850380Y2510900D01*
X3846060Y2507720D01*
X3842200Y2503980D01*
X3838860Y2499780D01*
X3836120Y2495160D01*
G37*
G36*
X5620740Y2536260D02*
G01*
X5626100Y2536440D01*
X5631400Y2537340D01*
X5636520Y2538920D01*
X5641400Y2541180D01*
X5645920Y2544080D01*
X5650019Y2547540D01*
X5653620Y2551520D01*
X5656660Y2555940D01*
X5659080Y2560740D01*
X5660839Y2565800D01*
X5661920Y2571080D01*
X5662279Y2576420D01*
X5661920Y2581780D01*
X5660839Y2587040D01*
X5659080Y2592120D01*
X5656660Y2596900D01*
X5653620Y2601340D01*
X5650019Y2605320D01*
X5645920Y2608780D01*
X5641400Y2611680D01*
X5636520Y2613940D01*
X5631400Y2615520D01*
X5626100Y2616420D01*
X5620740Y2616600D01*
X5615400Y2616060D01*
X5610180Y2614820D01*
X5605160Y2612880D01*
X5600460Y2610299D01*
X5596140Y2607120D01*
X5592279Y2603380D01*
X5588940Y2599180D01*
X5586200Y2594560D01*
X5584120Y2589620D01*
X5582700Y2584440D01*
X5581980Y2579120D01*
X5581980Y2573740D01*
X5582700Y2568420D01*
X5584120Y2563240D01*
X5586200Y2558300D01*
X5588940Y2553680D01*
X5592279Y2549460D01*
X5596140Y2545740D01*
X5600460Y2542560D01*
X5605160Y2539980D01*
X5610180Y2538040D01*
X5615400Y2536800D01*
G37*
G36*
X3546760Y2611340D02*
G01*
X3613240Y2611340D01*
X3615720Y2611620D01*
X3617880Y2612360D01*
X3619800Y2613580D01*
X3621420Y2615200D01*
X3622640Y2617120D01*
X3623380Y2619280D01*
X3623660Y2621760D01*
X3623660Y2688240D01*
X3623380Y2690720D01*
X3622640Y2692880D01*
X3621420Y2694800D01*
X3619800Y2696420D01*
X3617880Y2697640D01*
X3615720Y2698380D01*
X3613240Y2698660D01*
X3546760Y2698660D01*
X3544280Y2698380D01*
X3542120Y2697640D01*
X3540200Y2696420D01*
X3538580Y2694800D01*
X3537360Y2692880D01*
X3536620Y2690720D01*
X3536340Y2688240D01*
X3536340Y2621760D01*
X3536620Y2619280D01*
X3537360Y2617120D01*
X3538580Y2615200D01*
X3540200Y2613580D01*
X3542120Y2612360D01*
X3544280Y2611620D01*
G37*
G36*
X4796760Y2611340D02*
G01*
X4863240Y2611340D01*
X4865720Y2611620D01*
X4867880Y2612360D01*
X4869800Y2613580D01*
X4871420Y2615200D01*
X4872640Y2617120D01*
X4873380Y2619280D01*
X4873660Y2621760D01*
X4873660Y2688240D01*
X4873380Y2690720D01*
X4872640Y2692880D01*
X4871420Y2694800D01*
X4869800Y2696420D01*
X4867880Y2697640D01*
X4865720Y2698380D01*
X4863240Y2698660D01*
X4796760Y2698660D01*
X4794280Y2698380D01*
X4792120Y2697640D01*
X4790200Y2696420D01*
X4788580Y2694800D01*
X4787360Y2692880D01*
X4786620Y2690720D01*
X4786340Y2688240D01*
X4786340Y2621760D01*
X4786620Y2619280D01*
X4787360Y2617120D01*
X4788580Y2615200D01*
X4790200Y2613580D01*
X4792120Y2612360D01*
X4794280Y2611620D01*
G37*
G36*
X5620740Y2635680D02*
G01*
X5626100Y2635860D01*
X5631400Y2636760D01*
X5636520Y2638360D01*
X5641400Y2640620D01*
X5645920Y2643500D01*
X5650019Y2646960D01*
X5653620Y2650940D01*
X5656660Y2655380D01*
X5659080Y2660160D01*
X5660839Y2665240D01*
X5661920Y2670500D01*
X5662279Y2675860D01*
X5661920Y2681220D01*
X5660839Y2686480D01*
X5659080Y2691540D01*
X5656660Y2696340D01*
X5653620Y2700760D01*
X5650019Y2704740D01*
X5645920Y2708220D01*
X5641400Y2711100D01*
X5636520Y2713360D01*
X5631400Y2714960D01*
X5626100Y2715840D01*
X5620740Y2716019D01*
X5615400Y2715480D01*
X5610180Y2714240D01*
X5605160Y2712320D01*
X5600460Y2709740D01*
X5596140Y2706540D01*
X5592279Y2702820D01*
X5588940Y2698600D01*
X5586200Y2693980D01*
X5584120Y2689040D01*
X5582700Y2683860D01*
X5581980Y2678540D01*
X5581980Y2673180D01*
X5582700Y2667860D01*
X5584120Y2662679D01*
X5586200Y2657720D01*
X5588940Y2653100D01*
X5592279Y2648900D01*
X5596140Y2645160D01*
X5600460Y2641980D01*
X5605160Y2639400D01*
X5610180Y2637460D01*
X5615400Y2636220D01*
G37*
G36*
X4370740Y2635680D02*
G01*
X4376100Y2635860D01*
X4381400Y2636760D01*
X4386520Y2638360D01*
X4391400Y2640620D01*
X4395920Y2643500D01*
X4400020Y2646960D01*
X4403620Y2650940D01*
X4406660Y2655380D01*
X4409080Y2660160D01*
X4410840Y2665240D01*
X4411920Y2670500D01*
X4412280Y2675860D01*
X4411920Y2681220D01*
X4410840Y2686480D01*
X4409080Y2691540D01*
X4406660Y2696340D01*
X4403620Y2700760D01*
X4400020Y2704740D01*
X4395920Y2708220D01*
X4391400Y2711100D01*
X4386520Y2713360D01*
X4381400Y2714960D01*
X4376100Y2715840D01*
X4370740Y2716019D01*
X4365400Y2715480D01*
X4360180Y2714240D01*
X4355160Y2712320D01*
X4350460Y2709740D01*
X4346140Y2706540D01*
X4342280Y2702820D01*
X4338940Y2698600D01*
X4336200Y2693980D01*
X4334120Y2689040D01*
X4332700Y2683860D01*
X4331980Y2678540D01*
X4331980Y2673180D01*
X4332700Y2667860D01*
X4334120Y2662679D01*
X4336200Y2657720D01*
X4338940Y2653100D01*
X4342280Y2648900D01*
X4346140Y2645160D01*
X4350460Y2641980D01*
X4355160Y2639400D01*
X4360180Y2637460D01*
X4365400Y2636220D01*
G37*
G36*
X5120660Y2635720D02*
G01*
X5126020Y2635899D01*
X5131319Y2636780D01*
X5136440Y2638380D01*
X5141319Y2640640D01*
X5145839Y2643519D01*
X5149940Y2647000D01*
X5153540Y2650980D01*
X5156580Y2655400D01*
X5159000Y2660200D01*
X5160760Y2665260D01*
X5161840Y2670520D01*
X5162200Y2675880D01*
X5161840Y2681240D01*
X5160760Y2686500D01*
X5159000Y2691580D01*
X5156580Y2696360D01*
X5153540Y2700800D01*
X5149940Y2704780D01*
X5145839Y2708240D01*
X5141319Y2711120D01*
X5136440Y2713380D01*
X5131319Y2714980D01*
X5126020Y2715880D01*
X5120660Y2716060D01*
X5115320Y2715520D01*
X5110100Y2714280D01*
X5105080Y2712340D01*
X5100380Y2709760D01*
X5096060Y2706580D01*
X5092200Y2702840D01*
X5088860Y2698620D01*
X5086120Y2694020D01*
X5084040Y2689060D01*
X5082620Y2683880D01*
X5081900Y2678560D01*
X5081900Y2673200D01*
X5082620Y2667880D01*
X5084040Y2662700D01*
X5086120Y2657760D01*
X5088860Y2653140D01*
X5092200Y2648920D01*
X5096060Y2645200D01*
X5100380Y2642000D01*
X5105080Y2639420D01*
X5110100Y2637500D01*
X5115320Y2636259D01*
G37*
G36*
X3870659Y2635720D02*
G01*
X3876019Y2635899D01*
X3881320Y2636780D01*
X3886440Y2638380D01*
X3891320Y2640640D01*
X3895840Y2643519D01*
X3899940Y2647000D01*
X3903540Y2650980D01*
X3906580Y2655400D01*
X3909000Y2660200D01*
X3910760Y2665260D01*
X3911840Y2670520D01*
X3912200Y2675880D01*
X3911840Y2681240D01*
X3910760Y2686500D01*
X3909000Y2691580D01*
X3906580Y2696360D01*
X3903540Y2700800D01*
X3899940Y2704780D01*
X3895840Y2708240D01*
X3891320Y2711120D01*
X3886440Y2713380D01*
X3881320Y2714980D01*
X3876019Y2715880D01*
X3870659Y2716060D01*
X3865320Y2715520D01*
X3860100Y2714280D01*
X3855080Y2712340D01*
X3850380Y2709760D01*
X3846060Y2706580D01*
X3842200Y2702840D01*
X3838860Y2698620D01*
X3836120Y2694020D01*
X3834040Y2689060D01*
X3832620Y2683880D01*
X3831900Y2678560D01*
X3831900Y2673200D01*
X3832620Y2667880D01*
X3834040Y2662700D01*
X3836120Y2657760D01*
X3838860Y2653140D01*
X3842200Y2648920D01*
X3846060Y2645200D01*
X3850380Y2642000D01*
X3855080Y2639420D01*
X3860100Y2637500D01*
X3865320Y2636259D01*
G37*
G36*
X3577200Y2711440D02*
G01*
X3582799Y2711440D01*
X3588340Y2712140D01*
X3593759Y2713560D01*
X3598940Y2715659D01*
X3603820Y2718420D01*
X3608300Y2721760D01*
X3612320Y2725640D01*
X3615800Y2730020D01*
X3618700Y2734800D01*
X3620980Y2739920D01*
X3622559Y2745280D01*
X3623460Y2750800D01*
X3623639Y2756400D01*
X3623100Y2761960D01*
X3621860Y2767420D01*
X3619920Y2772679D01*
X3617340Y2777640D01*
X3614140Y2782220D01*
X3610380Y2786360D01*
X3606120Y2789980D01*
X3601420Y2793039D01*
X3596380Y2795460D01*
X3591080Y2797220D01*
X3585580Y2798300D01*
X3580000Y2798660D01*
X3574420Y2798300D01*
X3568920Y2797220D01*
X3563620Y2795460D01*
X3558580Y2793039D01*
X3553880Y2789980D01*
X3549620Y2786360D01*
X3545860Y2782220D01*
X3542660Y2777640D01*
X3540080Y2772679D01*
X3538140Y2767420D01*
X3536900Y2761960D01*
X3536360Y2756400D01*
X3536540Y2750800D01*
X3537440Y2745280D01*
X3539040Y2739920D01*
X3541300Y2734800D01*
X3544200Y2730020D01*
X3547679Y2725640D01*
X3551700Y2721760D01*
X3556180Y2718420D01*
X3561060Y2715659D01*
X3566240Y2713560D01*
X3571660Y2712140D01*
G37*
G36*
X4827200Y2711440D02*
G01*
X4832800Y2711440D01*
X4838340Y2712140D01*
X4843760Y2713560D01*
X4848940Y2715659D01*
X4853820Y2718420D01*
X4858300Y2721760D01*
X4862320Y2725640D01*
X4865800Y2730020D01*
X4868700Y2734800D01*
X4870980Y2739920D01*
X4872560Y2745280D01*
X4873460Y2750800D01*
X4873640Y2756400D01*
X4873100Y2761960D01*
X4871860Y2767420D01*
X4869920Y2772679D01*
X4867340Y2777640D01*
X4866720Y2778519D01*
X4866060Y2780120D01*
X4866140Y2781840D01*
X4866940Y2783380D01*
X4868300Y2784420D01*
X4870000Y2784800D01*
X4939920Y2784800D01*
X4941760Y2784880D01*
X4943500Y2785120D01*
X4945220Y2785500D01*
X4946900Y2786019D01*
X4948540Y2786700D01*
X4950100Y2787500D01*
X4951580Y2788460D01*
X4952980Y2789520D01*
X4954340Y2790779D01*
X4967200Y2803620D01*
X4968500Y2804500D01*
X4970020Y2804800D01*
X5085940Y2804800D01*
X5087660Y2804400D01*
X5089060Y2803300D01*
X5089820Y2801700D01*
X5089840Y2799920D01*
X5088860Y2798060D01*
X5086120Y2793440D01*
X5084040Y2788500D01*
X5082620Y2783320D01*
X5081900Y2778000D01*
X5081900Y2772620D01*
X5082620Y2767300D01*
X5084040Y2762120D01*
X5086120Y2757180D01*
X5088860Y2752559D01*
X5092200Y2748360D01*
X5096060Y2744620D01*
X5100380Y2741440D01*
X5105080Y2738860D01*
X5110100Y2736920D01*
X5115320Y2735680D01*
X5120660Y2735140D01*
X5126020Y2735320D01*
X5131319Y2736220D01*
X5136440Y2737799D01*
X5141319Y2740059D01*
X5145839Y2742960D01*
X5149940Y2746420D01*
X5153540Y2750400D01*
X5156580Y2754840D01*
X5159000Y2759620D01*
X5160760Y2764700D01*
X5161840Y2769960D01*
X5162200Y2775320D01*
X5161840Y2780659D01*
X5160760Y2785940D01*
X5159000Y2791000D01*
X5156580Y2795800D01*
X5154700Y2798540D01*
X5154059Y2800140D01*
X5154140Y2801860D01*
X5154940Y2803380D01*
X5156319Y2804420D01*
X5158000Y2804800D01*
X5562340Y2804800D01*
X5563860Y2804500D01*
X5565160Y2803620D01*
X5581660Y2787140D01*
X5582380Y2786139D01*
X5582760Y2784980D01*
X5582780Y2783759D01*
X5581980Y2777960D01*
X5581980Y2772600D01*
X5582700Y2767280D01*
X5584120Y2762100D01*
X5586200Y2757160D01*
X5588940Y2752540D01*
X5592279Y2748320D01*
X5596120Y2744600D01*
X5600460Y2741400D01*
X5605160Y2738820D01*
X5610180Y2736900D01*
X5615400Y2735659D01*
X5620740Y2735120D01*
X5626100Y2735299D01*
X5631400Y2736180D01*
X5636520Y2737780D01*
X5641400Y2740040D01*
X5645920Y2742919D01*
X5650019Y2746400D01*
X5653620Y2750380D01*
X5656660Y2754800D01*
X5659080Y2759600D01*
X5660839Y2764660D01*
X5661920Y2769920D01*
X5662260Y2775280D01*
X5661920Y2780640D01*
X5660839Y2785899D01*
X5659080Y2790980D01*
X5656660Y2795760D01*
X5653620Y2800200D01*
X5650019Y2804180D01*
X5645920Y2807640D01*
X5641400Y2810539D01*
X5636520Y2812799D01*
X5631400Y2814380D01*
X5626100Y2815280D01*
X5620740Y2815460D01*
X5615400Y2814920D01*
X5614020Y2814600D01*
X5612680Y2814500D01*
X5611380Y2814880D01*
X5610280Y2815659D01*
X5586700Y2839220D01*
X5585340Y2840480D01*
X5583940Y2841540D01*
X5582460Y2842500D01*
X5580900Y2843300D01*
X5579260Y2843980D01*
X5577580Y2844500D01*
X5575860Y2844880D01*
X5574120Y2845120D01*
X5572279Y2845200D01*
X5157960Y2845200D01*
X5156280Y2845580D01*
X5154900Y2846620D01*
X5154100Y2848140D01*
X5154020Y2849860D01*
X5154660Y2851460D01*
X5156580Y2854260D01*
X5159000Y2859060D01*
X5160760Y2864120D01*
X5161840Y2869380D01*
X5162200Y2874740D01*
X5161840Y2880100D01*
X5160760Y2885360D01*
X5159000Y2890440D01*
X5156580Y2895220D01*
X5153540Y2899660D01*
X5149940Y2903639D01*
X5145839Y2907100D01*
X5141319Y2909980D01*
X5136440Y2912240D01*
X5131319Y2913840D01*
X5126020Y2914740D01*
X5120660Y2914920D01*
X5115320Y2914380D01*
X5110100Y2913120D01*
X5105080Y2911200D01*
X5100380Y2908620D01*
X5096060Y2905440D01*
X5092200Y2901700D01*
X5088860Y2897480D01*
X5086120Y2892860D01*
X5084040Y2887919D01*
X5082620Y2882740D01*
X5081900Y2877420D01*
X5081900Y2872060D01*
X5082620Y2866740D01*
X5084040Y2861560D01*
X5086120Y2856620D01*
X5088860Y2852000D01*
X5089880Y2850080D01*
X5089880Y2848300D01*
X5089100Y2846700D01*
X5087700Y2845600D01*
X5085980Y2845200D01*
X4960080Y2845200D01*
X4958240Y2845120D01*
X4956500Y2844880D01*
X4954780Y2844500D01*
X4953100Y2843980D01*
X4951460Y2843300D01*
X4949900Y2842500D01*
X4948420Y2841540D01*
X4947020Y2840480D01*
X4945660Y2839220D01*
X4932800Y2826380D01*
X4931500Y2825500D01*
X4929980Y2825200D01*
X4869980Y2825200D01*
X4868340Y2825560D01*
X4866980Y2826540D01*
X4866160Y2828020D01*
X4866020Y2829680D01*
X4866560Y2831280D01*
X4868700Y2834800D01*
X4870980Y2839920D01*
X4872560Y2845280D01*
X4873460Y2850800D01*
X4873640Y2856400D01*
X4873100Y2861960D01*
X4871860Y2867420D01*
X4869920Y2872679D01*
X4867340Y2877640D01*
X4864140Y2882220D01*
X4860380Y2886360D01*
X4856120Y2889980D01*
X4851420Y2893039D01*
X4846380Y2895460D01*
X4841080Y2897220D01*
X4835580Y2898300D01*
X4830000Y2898660D01*
X4824420Y2898300D01*
X4818920Y2897220D01*
X4813620Y2895460D01*
X4808580Y2893039D01*
X4803880Y2889980D01*
X4799620Y2886360D01*
X4795860Y2882220D01*
X4792660Y2877640D01*
X4790080Y2872679D01*
X4788140Y2867420D01*
X4786900Y2861960D01*
X4786360Y2856400D01*
X4786540Y2850800D01*
X4787440Y2845280D01*
X4789040Y2839920D01*
X4791300Y2834800D01*
X4793440Y2831280D01*
X4793980Y2829680D01*
X4793840Y2828020D01*
X4793020Y2826540D01*
X4791660Y2825560D01*
X4790020Y2825200D01*
X4401880Y2825200D01*
X4400040Y2825120D01*
X4398300Y2824880D01*
X4396580Y2824500D01*
X4394900Y2823980D01*
X4393260Y2823300D01*
X4391700Y2822500D01*
X4390220Y2821540D01*
X4388820Y2820480D01*
X4387460Y2819220D01*
X4383900Y2815659D01*
X4382880Y2814920D01*
X4381660Y2814540D01*
X4380400Y2814540D01*
X4376100Y2815280D01*
X4370740Y2815460D01*
X4365400Y2814920D01*
X4360180Y2813680D01*
X4355160Y2811740D01*
X4350460Y2809160D01*
X4346120Y2805980D01*
X4342280Y2802240D01*
X4338940Y2798039D01*
X4336200Y2793420D01*
X4334120Y2788460D01*
X4332700Y2783300D01*
X4331980Y2777960D01*
X4331980Y2772600D01*
X4332700Y2767280D01*
X4334120Y2762100D01*
X4336200Y2757160D01*
X4338940Y2752540D01*
X4342280Y2748320D01*
X4346120Y2744600D01*
X4350460Y2741400D01*
X4355160Y2738820D01*
X4360180Y2736900D01*
X4365400Y2735659D01*
X4370740Y2735120D01*
X4376100Y2735299D01*
X4381400Y2736180D01*
X4386520Y2737780D01*
X4391400Y2740040D01*
X4395920Y2742919D01*
X4400020Y2746400D01*
X4403620Y2750380D01*
X4406660Y2754800D01*
X4409080Y2759600D01*
X4410840Y2764660D01*
X4411920Y2769920D01*
X4412260Y2775280D01*
X4411920Y2780539D01*
X4412140Y2782140D01*
X4412980Y2783540D01*
X4414320Y2784460D01*
X4415900Y2784800D01*
X4790000Y2784800D01*
X4791700Y2784420D01*
X4793060Y2783380D01*
X4793860Y2781840D01*
X4793940Y2780120D01*
X4793280Y2778519D01*
X4792660Y2777640D01*
X4790080Y2772679D01*
X4788140Y2767420D01*
X4786900Y2761960D01*
X4786360Y2756400D01*
X4786540Y2750800D01*
X4787440Y2745280D01*
X4789040Y2739920D01*
X4791300Y2734800D01*
X4794200Y2730020D01*
X4797680Y2725640D01*
X4801700Y2721760D01*
X4806180Y2718420D01*
X4811060Y2715659D01*
X4816240Y2713560D01*
X4821660Y2712140D01*
G37*
G36*
X3870659Y2735140D02*
G01*
X3876019Y2735320D01*
X3881320Y2736220D01*
X3886440Y2737799D01*
X3891320Y2740059D01*
X3895840Y2742960D01*
X3899940Y2746420D01*
X3903540Y2750400D01*
X3906580Y2754840D01*
X3909000Y2759620D01*
X3910760Y2764700D01*
X3911840Y2769960D01*
X3912200Y2775320D01*
X3911840Y2780659D01*
X3910760Y2785940D01*
X3909000Y2791000D01*
X3906580Y2795800D01*
X3903540Y2800220D01*
X3899940Y2804200D01*
X3895840Y2807660D01*
X3891320Y2810560D01*
X3886440Y2812820D01*
X3881320Y2814400D01*
X3876019Y2815299D01*
X3870659Y2815480D01*
X3865320Y2814940D01*
X3860100Y2813700D01*
X3855080Y2811760D01*
X3850380Y2809180D01*
X3846060Y2806000D01*
X3842200Y2802280D01*
X3838860Y2798060D01*
X3836120Y2793440D01*
X3834040Y2788500D01*
X3832620Y2783320D01*
X3831900Y2778000D01*
X3831900Y2772620D01*
X3832620Y2767300D01*
X3834040Y2762120D01*
X3836120Y2757180D01*
X3838860Y2752559D01*
X3842200Y2748360D01*
X3846060Y2744620D01*
X3850380Y2741440D01*
X3855080Y2738860D01*
X3860100Y2736920D01*
X3865320Y2735680D01*
G37*
G36*
X3577200Y2811440D02*
G01*
X3582799Y2811440D01*
X3588340Y2812140D01*
X3593759Y2813560D01*
X3598940Y2815659D01*
X3603820Y2818420D01*
X3608300Y2821760D01*
X3612320Y2825640D01*
X3615800Y2830020D01*
X3618700Y2834800D01*
X3620980Y2839920D01*
X3622559Y2845280D01*
X3623460Y2850800D01*
X3623639Y2856400D01*
X3623100Y2861960D01*
X3621860Y2867420D01*
X3619920Y2872679D01*
X3617340Y2877640D01*
X3614140Y2882220D01*
X3610380Y2886360D01*
X3606120Y2889980D01*
X3601420Y2893039D01*
X3596380Y2895460D01*
X3591080Y2897220D01*
X3585580Y2898300D01*
X3580000Y2898660D01*
X3574420Y2898300D01*
X3568920Y2897220D01*
X3563620Y2895460D01*
X3558580Y2893039D01*
X3553880Y2889980D01*
X3549620Y2886360D01*
X3545860Y2882220D01*
X3542660Y2877640D01*
X3540080Y2872679D01*
X3538140Y2867420D01*
X3536900Y2861960D01*
X3536360Y2856400D01*
X3536540Y2850800D01*
X3537440Y2845280D01*
X3539040Y2839920D01*
X3541300Y2834800D01*
X3544200Y2830020D01*
X3547679Y2825640D01*
X3551700Y2821760D01*
X3556180Y2818420D01*
X3561060Y2815659D01*
X3566240Y2813560D01*
X3571660Y2812140D01*
G37*
G36*
X5620740Y2834540D02*
G01*
X5626100Y2834720D01*
X5631400Y2835620D01*
X5636520Y2837200D01*
X5641400Y2839460D01*
X5645920Y2842360D01*
X5650019Y2845820D01*
X5653620Y2849800D01*
X5656660Y2854240D01*
X5659080Y2859020D01*
X5660839Y2864100D01*
X5661920Y2869360D01*
X5662279Y2874720D01*
X5661920Y2880080D01*
X5660839Y2885340D01*
X5659080Y2890400D01*
X5656660Y2895200D01*
X5653620Y2899620D01*
X5650019Y2903600D01*
X5645920Y2907080D01*
X5641400Y2909960D01*
X5636520Y2912220D01*
X5631400Y2913820D01*
X5626100Y2914700D01*
X5620740Y2914880D01*
X5615400Y2914340D01*
X5610180Y2913100D01*
X5605160Y2911180D01*
X5600460Y2908600D01*
X5596140Y2905400D01*
X5592279Y2901680D01*
X5588940Y2897460D01*
X5586200Y2892840D01*
X5584120Y2887900D01*
X5582700Y2882720D01*
X5581980Y2877400D01*
X5581980Y2872020D01*
X5582700Y2866700D01*
X5584120Y2861540D01*
X5586200Y2856580D01*
X5588940Y2851960D01*
X5592279Y2847760D01*
X5596140Y2844020D01*
X5600460Y2840840D01*
X5605160Y2838260D01*
X5610180Y2836320D01*
X5615400Y2835080D01*
G37*
G36*
X3870659Y2834580D02*
G01*
X3876019Y2834760D01*
X3881320Y2835640D01*
X3886440Y2837240D01*
X3891320Y2839500D01*
X3895840Y2842380D01*
X3899940Y2845860D01*
X3903540Y2849840D01*
X3906580Y2854260D01*
X3909000Y2859060D01*
X3910760Y2864120D01*
X3911840Y2869380D01*
X3912200Y2874740D01*
X3911840Y2880100D01*
X3910760Y2885360D01*
X3909000Y2890440D01*
X3906580Y2895220D01*
X3903540Y2899660D01*
X3899940Y2903639D01*
X3895840Y2907100D01*
X3891320Y2909980D01*
X3886440Y2912240D01*
X3881320Y2913840D01*
X3876019Y2914740D01*
X3870659Y2914920D01*
X3865320Y2914380D01*
X3860100Y2913120D01*
X3855080Y2911200D01*
X3850380Y2908620D01*
X3846060Y2905440D01*
X3842200Y2901700D01*
X3838860Y2897480D01*
X3836120Y2892860D01*
X3834040Y2887919D01*
X3832620Y2882740D01*
X3831900Y2877420D01*
X3831900Y2872060D01*
X3832620Y2866740D01*
X3834040Y2861560D01*
X3836120Y2856620D01*
X3838860Y2852000D01*
X3842200Y2847780D01*
X3846060Y2844040D01*
X3850380Y2840860D01*
X3855080Y2838279D01*
X3860100Y2836360D01*
X3865320Y2835120D01*
G37*
G36*
X3577200Y2911440D02*
G01*
X3582799Y2911440D01*
X3588340Y2912140D01*
X3593759Y2913560D01*
X3598940Y2915659D01*
X3603820Y2918420D01*
X3608300Y2921760D01*
X3612320Y2925640D01*
X3615800Y2930020D01*
X3618700Y2934800D01*
X3620980Y2939920D01*
X3622559Y2945280D01*
X3623460Y2950800D01*
X3623639Y2956400D01*
X3623100Y2961960D01*
X3621860Y2967420D01*
X3619920Y2972679D01*
X3617340Y2977640D01*
X3614140Y2982220D01*
X3610380Y2986360D01*
X3606120Y2989980D01*
X3601420Y2993039D01*
X3596380Y2995460D01*
X3591080Y2997220D01*
X3585580Y2998300D01*
X3580000Y2998660D01*
X3574420Y2998300D01*
X3568920Y2997220D01*
X3563620Y2995460D01*
X3558580Y2993039D01*
X3553880Y2989980D01*
X3549620Y2986360D01*
X3545860Y2982220D01*
X3542660Y2977640D01*
X3540080Y2972679D01*
X3538140Y2967420D01*
X3536900Y2961960D01*
X3536360Y2956400D01*
X3536540Y2950800D01*
X3537440Y2945280D01*
X3539040Y2939920D01*
X3541300Y2934800D01*
X3544200Y2930020D01*
X3547679Y2925640D01*
X3551700Y2921760D01*
X3556180Y2918420D01*
X3561060Y2915659D01*
X3566240Y2913560D01*
X3571660Y2912140D01*
G37*
G36*
X4827200Y2911440D02*
G01*
X4832800Y2911440D01*
X4838340Y2912140D01*
X4843760Y2913560D01*
X4848940Y2915659D01*
X4853820Y2918420D01*
X4858300Y2921760D01*
X4862320Y2925640D01*
X4865800Y2930020D01*
X4868700Y2934800D01*
X4870980Y2939920D01*
X4872560Y2945280D01*
X4873460Y2950800D01*
X4873640Y2956400D01*
X4873100Y2961960D01*
X4871860Y2967420D01*
X4869920Y2972679D01*
X4867340Y2977640D01*
X4864140Y2982220D01*
X4860380Y2986360D01*
X4856120Y2989980D01*
X4851420Y2993039D01*
X4846380Y2995460D01*
X4841760Y2997000D01*
X4840360Y2997799D01*
X4839400Y2999080D01*
X4839020Y3000640D01*
X4839260Y3002220D01*
X4840120Y3003560D01*
X4841440Y3004480D01*
X4843020Y3004800D01*
X5086840Y3004800D01*
X5088560Y3004400D01*
X5089960Y3003300D01*
X5090740Y3001700D01*
X5090740Y2999920D01*
X5089980Y2998320D01*
X5088860Y2996920D01*
X5086120Y2992300D01*
X5084040Y2987360D01*
X5082620Y2982180D01*
X5081900Y2976860D01*
X5081900Y2971480D01*
X5082620Y2966160D01*
X5084040Y2960980D01*
X5086120Y2956040D01*
X5088860Y2951420D01*
X5092200Y2947220D01*
X5096060Y2943480D01*
X5100380Y2940299D01*
X5105080Y2937720D01*
X5110100Y2935779D01*
X5115320Y2934540D01*
X5120660Y2934000D01*
X5126020Y2934180D01*
X5131319Y2935080D01*
X5136440Y2936660D01*
X5141319Y2938920D01*
X5145839Y2941820D01*
X5149940Y2945280D01*
X5153540Y2949260D01*
X5156580Y2953680D01*
X5159000Y2958480D01*
X5160760Y2963560D01*
X5161840Y2968820D01*
X5162200Y2974160D01*
X5161840Y2979520D01*
X5160760Y2984780D01*
X5159000Y2989860D01*
X5156580Y2994660D01*
X5153920Y2998540D01*
X5153260Y3000140D01*
X5153360Y3001860D01*
X5154160Y3003380D01*
X5155520Y3004420D01*
X5157220Y3004800D01*
X5561200Y3004800D01*
X5562720Y3004500D01*
X5564020Y3003620D01*
X5581660Y2986000D01*
X5582380Y2985000D01*
X5582760Y2983840D01*
X5582780Y2982620D01*
X5581980Y2976820D01*
X5581980Y2971460D01*
X5582700Y2966139D01*
X5584120Y2960960D01*
X5586200Y2956019D01*
X5588940Y2951400D01*
X5592279Y2947180D01*
X5596140Y2943440D01*
X5600460Y2940260D01*
X5605160Y2937679D01*
X5610180Y2935760D01*
X5615400Y2934520D01*
X5620740Y2933980D01*
X5626100Y2934160D01*
X5631400Y2935040D01*
X5636520Y2936640D01*
X5641400Y2938900D01*
X5645920Y2941780D01*
X5650019Y2945260D01*
X5653620Y2949240D01*
X5656660Y2953660D01*
X5659080Y2958460D01*
X5660839Y2963519D01*
X5661920Y2968780D01*
X5662279Y2974140D01*
X5661920Y2979500D01*
X5660839Y2984760D01*
X5659080Y2989840D01*
X5656660Y2994620D01*
X5653620Y2999060D01*
X5650019Y3003039D01*
X5645920Y3006500D01*
X5641400Y3009380D01*
X5636520Y3011640D01*
X5631400Y3013240D01*
X5626100Y3014140D01*
X5620740Y3014320D01*
X5615400Y3013780D01*
X5614040Y3013440D01*
X5612680Y3013360D01*
X5611380Y3013740D01*
X5610280Y3014520D01*
X5585560Y3039220D01*
X5584200Y3040480D01*
X5582800Y3041540D01*
X5581319Y3042500D01*
X5579760Y3043300D01*
X5578120Y3043980D01*
X5576440Y3044500D01*
X5574720Y3044880D01*
X5572980Y3045120D01*
X5571140Y3045200D01*
X5158740Y3045200D01*
X5157060Y3045580D01*
X5155680Y3046620D01*
X5154880Y3048140D01*
X5154800Y3049860D01*
X5155440Y3051460D01*
X5156580Y3053120D01*
X5158080Y3056100D01*
X5139500Y3056100D01*
X5139500Y3049200D01*
X5139200Y3047660D01*
X5138320Y3046380D01*
X5137039Y3045500D01*
X5135500Y3045200D01*
X5108500Y3045200D01*
X5106960Y3045500D01*
X5105680Y3046380D01*
X5104800Y3047660D01*
X5104500Y3049200D01*
X5104500Y3056100D01*
X5085860Y3056100D01*
X5086120Y3055480D01*
X5088640Y3051240D01*
X5089160Y3049660D01*
X5089000Y3047980D01*
X5088180Y3046540D01*
X5086840Y3045539D01*
X5085200Y3045200D01*
X4423020Y3045200D01*
X4421180Y3045120D01*
X4419440Y3044880D01*
X4417720Y3044500D01*
X4416040Y3043980D01*
X4414400Y3043300D01*
X4412840Y3042500D01*
X4411360Y3041540D01*
X4409960Y3040480D01*
X4408600Y3039220D01*
X4383900Y3014520D01*
X4382880Y3013780D01*
X4381660Y3013399D01*
X4380400Y3013399D01*
X4376100Y3014140D01*
X4370740Y3014320D01*
X4365400Y3013780D01*
X4360180Y3012520D01*
X4355160Y3010600D01*
X4350460Y3008020D01*
X4346140Y3004840D01*
X4342280Y3001100D01*
X4338940Y2996880D01*
X4336200Y2992260D01*
X4334120Y2987320D01*
X4332700Y2982140D01*
X4331980Y2976820D01*
X4331980Y2971460D01*
X4332700Y2966139D01*
X4334120Y2960960D01*
X4336200Y2956019D01*
X4338940Y2951400D01*
X4342280Y2947180D01*
X4346140Y2943440D01*
X4350460Y2940260D01*
X4355160Y2937679D01*
X4360180Y2935760D01*
X4365400Y2934520D01*
X4370740Y2933980D01*
X4376100Y2934160D01*
X4381400Y2935040D01*
X4386520Y2936640D01*
X4391400Y2938900D01*
X4395920Y2941780D01*
X4400020Y2945260D01*
X4403620Y2949240D01*
X4406660Y2953660D01*
X4409080Y2958460D01*
X4410840Y2963519D01*
X4411920Y2968780D01*
X4412280Y2974140D01*
X4411920Y2979500D01*
X4411340Y2982300D01*
X4411300Y2983600D01*
X4411680Y2984860D01*
X4412440Y2985920D01*
X4430140Y3003620D01*
X4431440Y3004500D01*
X4432960Y3004800D01*
X4816980Y3004800D01*
X4818560Y3004480D01*
X4819880Y3003560D01*
X4820740Y3002220D01*
X4820980Y3000640D01*
X4820600Y2999080D01*
X4819640Y2997799D01*
X4818240Y2997000D01*
X4813620Y2995460D01*
X4808580Y2993039D01*
X4803880Y2989980D01*
X4799620Y2986360D01*
X4795860Y2982220D01*
X4792660Y2977640D01*
X4790080Y2972679D01*
X4788140Y2967420D01*
X4786900Y2961960D01*
X4786360Y2956400D01*
X4786540Y2950800D01*
X4787440Y2945280D01*
X4789040Y2939920D01*
X4791300Y2934800D01*
X4794200Y2930020D01*
X4797680Y2925640D01*
X4801700Y2921760D01*
X4806180Y2918420D01*
X4811060Y2915659D01*
X4816240Y2913560D01*
X4821660Y2912140D01*
G37*
G36*
X3870659Y2934000D02*
G01*
X3876019Y2934180D01*
X3881320Y2935080D01*
X3886440Y2936660D01*
X3891320Y2938920D01*
X3895840Y2941820D01*
X3899940Y2945280D01*
X3903540Y2949260D01*
X3906580Y2953680D01*
X3909000Y2958480D01*
X3910760Y2963560D01*
X3911840Y2968820D01*
X3912200Y2974160D01*
X3911840Y2979520D01*
X3910760Y2984780D01*
X3909000Y2989860D01*
X3906580Y2994660D01*
X3903540Y2999080D01*
X3899940Y3003060D01*
X3895840Y3006520D01*
X3891320Y3009420D01*
X3886440Y3011680D01*
X3881320Y3013260D01*
X3876019Y3014160D01*
X3870659Y3014340D01*
X3865320Y3013800D01*
X3860100Y3012559D01*
X3855080Y3010620D01*
X3850380Y3008039D01*
X3846060Y3004860D01*
X3842200Y3001120D01*
X3838860Y2996920D01*
X3836120Y2992300D01*
X3834040Y2987360D01*
X3832620Y2982180D01*
X3831900Y2976860D01*
X3831900Y2971480D01*
X3832620Y2966160D01*
X3834040Y2960980D01*
X3836120Y2956040D01*
X3838860Y2951420D01*
X3842200Y2947220D01*
X3846060Y2943480D01*
X3850380Y2940299D01*
X3855080Y2937720D01*
X3860100Y2935779D01*
X3865320Y2934540D01*
G37*
G36*
X4370740Y3033399D02*
G01*
X4376100Y3033580D01*
X4381400Y3034480D01*
X4386520Y3036060D01*
X4391400Y3038320D01*
X4395920Y3041220D01*
X4400020Y3044680D01*
X4403620Y3048660D01*
X4406660Y3053080D01*
X4409080Y3057880D01*
X4410840Y3062960D01*
X4411920Y3068220D01*
X4412280Y3073580D01*
X4411920Y3078920D01*
X4411340Y3081740D01*
X4411300Y3083039D01*
X4411680Y3084300D01*
X4412440Y3085360D01*
X4425700Y3098620D01*
X4427000Y3099500D01*
X4428540Y3099800D01*
X5083900Y3099800D01*
X5085520Y3099460D01*
X5086880Y3098460D01*
X5087700Y3097020D01*
X5087860Y3095340D01*
X5087340Y3093759D01*
X5086120Y3091720D01*
X5085860Y3091100D01*
X5104500Y3091100D01*
X5104500Y3095800D01*
X5104800Y3097340D01*
X5105680Y3098620D01*
X5106960Y3099500D01*
X5108500Y3099800D01*
X5135500Y3099800D01*
X5137039Y3099500D01*
X5138320Y3098620D01*
X5139200Y3097340D01*
X5139500Y3095800D01*
X5139500Y3091100D01*
X5158080Y3091100D01*
X5156620Y3094000D01*
X5156200Y3095560D01*
X5156440Y3097160D01*
X5157279Y3098540D01*
X5158600Y3099480D01*
X5160200Y3099800D01*
X5565620Y3099800D01*
X5567160Y3099500D01*
X5568460Y3098620D01*
X5581660Y3085419D01*
X5582380Y3084440D01*
X5582760Y3083279D01*
X5582780Y3082040D01*
X5581980Y3076240D01*
X5581980Y3070880D01*
X5582700Y3065560D01*
X5584120Y3060380D01*
X5586200Y3055440D01*
X5588940Y3050820D01*
X5592279Y3046620D01*
X5596140Y3042880D01*
X5600460Y3039700D01*
X5605160Y3037120D01*
X5610180Y3035179D01*
X5615400Y3033940D01*
X5620740Y3033399D01*
X5626100Y3033580D01*
X5631400Y3034480D01*
X5636520Y3036060D01*
X5641400Y3038320D01*
X5645920Y3041220D01*
X5650019Y3044680D01*
X5653620Y3048660D01*
X5656660Y3053080D01*
X5659080Y3057880D01*
X5660839Y3062960D01*
X5661920Y3068220D01*
X5662279Y3073580D01*
X5661920Y3078920D01*
X5660839Y3084180D01*
X5659080Y3089260D01*
X5656660Y3094060D01*
X5653620Y3098480D01*
X5650019Y3102460D01*
X5645920Y3105920D01*
X5641400Y3108820D01*
X5636520Y3111080D01*
X5631400Y3112660D01*
X5626100Y3113560D01*
X5620740Y3113740D01*
X5615400Y3113200D01*
X5614040Y3112880D01*
X5612680Y3112799D01*
X5611380Y3113159D01*
X5610280Y3113940D01*
X5590000Y3134220D01*
X5588640Y3135480D01*
X5587240Y3136540D01*
X5585740Y3137500D01*
X5584180Y3138300D01*
X5582560Y3138980D01*
X5580880Y3139500D01*
X5579160Y3139880D01*
X5577420Y3140120D01*
X5575560Y3140200D01*
X5155400Y3140200D01*
X5153900Y3140500D01*
X5152600Y3141320D01*
X5151740Y3142580D01*
X5151400Y3144060D01*
X5151640Y3145580D01*
X5152420Y3146880D01*
X5153540Y3148120D01*
X5156580Y3152540D01*
X5159000Y3157340D01*
X5160760Y3162400D01*
X5161840Y3167679D01*
X5162200Y3173020D01*
X5161840Y3178380D01*
X5160760Y3183639D01*
X5159000Y3188720D01*
X5156580Y3193500D01*
X5153540Y3197940D01*
X5149940Y3201920D01*
X5145839Y3205380D01*
X5141319Y3208279D01*
X5136440Y3210539D01*
X5131319Y3212120D01*
X5126020Y3213020D01*
X5120660Y3213200D01*
X5115320Y3212660D01*
X5110100Y3211420D01*
X5105080Y3209480D01*
X5100380Y3206900D01*
X5096060Y3203720D01*
X5092200Y3199980D01*
X5088860Y3195779D01*
X5086120Y3191160D01*
X5084040Y3186220D01*
X5082620Y3181040D01*
X5081900Y3175720D01*
X5081900Y3170340D01*
X5082620Y3165020D01*
X5084040Y3159840D01*
X5086120Y3154900D01*
X5088860Y3150280D01*
X5091720Y3146680D01*
X5092480Y3145080D01*
X5092460Y3143300D01*
X5091700Y3141700D01*
X5090300Y3140600D01*
X5088580Y3140200D01*
X4418600Y3140200D01*
X4416740Y3140120D01*
X4415000Y3139880D01*
X4413280Y3139500D01*
X4411600Y3138980D01*
X4409980Y3138300D01*
X4408420Y3137500D01*
X4406920Y3136540D01*
X4405520Y3135480D01*
X4404160Y3134220D01*
X4383900Y3113960D01*
X4382860Y3113200D01*
X4381660Y3112820D01*
X4380400Y3112840D01*
X4376100Y3113560D01*
X4370740Y3113740D01*
X4365400Y3113200D01*
X4360180Y3111960D01*
X4355160Y3110020D01*
X4350460Y3107440D01*
X4346140Y3104260D01*
X4342280Y3100539D01*
X4338940Y3096320D01*
X4336200Y3091700D01*
X4334120Y3086760D01*
X4332700Y3081580D01*
X4331980Y3076259D01*
X4331980Y3070880D01*
X4332700Y3065560D01*
X4334120Y3060380D01*
X4336200Y3055440D01*
X4338940Y3050820D01*
X4342280Y3046620D01*
X4346140Y3042880D01*
X4350460Y3039700D01*
X4355160Y3037120D01*
X4360180Y3035179D01*
X4365400Y3033940D01*
G37*
G36*
X3854500Y3037460D02*
G01*
X3854500Y3056100D01*
X3835860Y3056100D01*
X3836120Y3055480D01*
X3838860Y3050860D01*
X3842200Y3046640D01*
X3846060Y3042900D01*
X3850380Y3039720D01*
G37*
G36*
X3889500Y3037520D02*
G01*
X3891320Y3038360D01*
X3895840Y3041240D01*
X3899940Y3044700D01*
X3903540Y3048700D01*
X3906580Y3053120D01*
X3908080Y3056100D01*
X3889500Y3056100D01*
G37*
G36*
X3889500Y3091100D02*
G01*
X3908080Y3091100D01*
X3906580Y3094080D01*
X3903540Y3098500D01*
X3899940Y3102480D01*
X3895840Y3105960D01*
X3891320Y3108840D01*
X3889500Y3109680D01*
G37*
G36*
X3835860Y3091100D02*
G01*
X3854500Y3091100D01*
X3854500Y3109740D01*
X3850380Y3107480D01*
X3846060Y3104300D01*
X3842200Y3100560D01*
X3838860Y3096340D01*
X3836120Y3091720D01*
G37*
G36*
X4370740Y3132840D02*
G01*
X4376100Y3133020D01*
X4381400Y3133900D01*
X4386520Y3135500D01*
X4391400Y3137760D01*
X4395920Y3140640D01*
X4400020Y3144100D01*
X4403620Y3148100D01*
X4406660Y3152520D01*
X4409080Y3157300D01*
X4410840Y3162380D01*
X4411920Y3167640D01*
X4412280Y3173000D01*
X4411920Y3178360D01*
X4410840Y3183620D01*
X4409080Y3188700D01*
X4406660Y3193480D01*
X4403620Y3197900D01*
X4400020Y3201900D01*
X4395920Y3205360D01*
X4391400Y3208240D01*
X4386520Y3210500D01*
X4381400Y3212100D01*
X4376100Y3212980D01*
X4370740Y3213159D01*
X4365400Y3212640D01*
X4360180Y3211380D01*
X4355160Y3209460D01*
X4350460Y3206880D01*
X4346140Y3203700D01*
X4342280Y3199960D01*
X4338940Y3195740D01*
X4336200Y3191120D01*
X4334120Y3186180D01*
X4332700Y3181000D01*
X4331980Y3175680D01*
X4331980Y3170320D01*
X4332700Y3165000D01*
X4334120Y3159820D01*
X4336200Y3154880D01*
X4338940Y3150260D01*
X4342280Y3146040D01*
X4346140Y3142300D01*
X4350460Y3139120D01*
X4355160Y3136540D01*
X4360180Y3134620D01*
X4365400Y3133360D01*
G37*
G36*
X5620740Y3132840D02*
G01*
X5626100Y3133020D01*
X5631400Y3133900D01*
X5636520Y3135500D01*
X5641400Y3137760D01*
X5645920Y3140640D01*
X5650019Y3144100D01*
X5653620Y3148100D01*
X5656660Y3152520D01*
X5659080Y3157300D01*
X5660839Y3162380D01*
X5661920Y3167640D01*
X5662279Y3173000D01*
X5661920Y3178360D01*
X5660839Y3183620D01*
X5659080Y3188700D01*
X5656660Y3193480D01*
X5653620Y3197900D01*
X5650019Y3201900D01*
X5645920Y3205360D01*
X5641400Y3208240D01*
X5636520Y3210500D01*
X5631400Y3212100D01*
X5626100Y3212980D01*
X5620740Y3213159D01*
X5615400Y3212640D01*
X5610180Y3211380D01*
X5605160Y3209460D01*
X5600460Y3206880D01*
X5596140Y3203700D01*
X5592279Y3199960D01*
X5588940Y3195740D01*
X5586200Y3191120D01*
X5584120Y3186180D01*
X5582700Y3181000D01*
X5581980Y3175680D01*
X5581980Y3170320D01*
X5582700Y3165000D01*
X5584120Y3159820D01*
X5586200Y3154880D01*
X5588940Y3150260D01*
X5592279Y3146040D01*
X5596140Y3142300D01*
X5600460Y3139120D01*
X5605160Y3136540D01*
X5610180Y3134620D01*
X5615400Y3133360D01*
G37*
G36*
X3870659Y3132860D02*
G01*
X3876019Y3133039D01*
X3881320Y3133940D01*
X3886440Y3135520D01*
X3891320Y3137780D01*
X3895840Y3140680D01*
X3899940Y3144140D01*
X3903540Y3148120D01*
X3906580Y3152540D01*
X3909000Y3157340D01*
X3910760Y3162400D01*
X3911840Y3167679D01*
X3912200Y3173020D01*
X3911840Y3178380D01*
X3910760Y3183639D01*
X3909000Y3188720D01*
X3906580Y3193500D01*
X3903540Y3197940D01*
X3899940Y3201920D01*
X3895840Y3205380D01*
X3891320Y3208279D01*
X3886440Y3210539D01*
X3881320Y3212120D01*
X3876019Y3213020D01*
X3870659Y3213200D01*
X3865320Y3212660D01*
X3860100Y3211420D01*
X3855080Y3209480D01*
X3850380Y3206900D01*
X3846060Y3203720D01*
X3842200Y3199980D01*
X3838860Y3195779D01*
X3836120Y3191160D01*
X3834040Y3186220D01*
X3832620Y3181040D01*
X3831900Y3175720D01*
X3831900Y3170340D01*
X3832620Y3165020D01*
X3834040Y3159840D01*
X3836120Y3154900D01*
X3838860Y3150280D01*
X3842200Y3146060D01*
X3846060Y3142340D01*
X3850380Y3139160D01*
X3855080Y3136580D01*
X3860100Y3134640D01*
X3865320Y3133399D01*
G37*
G36*
X5620740Y3686840D02*
G01*
X5626100Y3687020D01*
X5631400Y3687900D01*
X5636520Y3689500D01*
X5641400Y3691760D01*
X5645920Y3694640D01*
X5650019Y3698100D01*
X5653620Y3702100D01*
X5656660Y3706520D01*
X5659080Y3711300D01*
X5660839Y3716380D01*
X5661920Y3721640D01*
X5662279Y3727000D01*
X5661920Y3732360D01*
X5660839Y3737620D01*
X5659080Y3742700D01*
X5656660Y3747480D01*
X5653620Y3751900D01*
X5650019Y3755899D01*
X5645920Y3759360D01*
X5641400Y3762240D01*
X5636520Y3764500D01*
X5631400Y3766100D01*
X5626100Y3766980D01*
X5620740Y3767160D01*
X5615400Y3766640D01*
X5610180Y3765380D01*
X5605160Y3763460D01*
X5600460Y3760880D01*
X5596140Y3757700D01*
X5592279Y3753960D01*
X5588940Y3749740D01*
X5586200Y3745120D01*
X5584120Y3740179D01*
X5582700Y3735000D01*
X5581980Y3729680D01*
X5581980Y3724320D01*
X5582700Y3719000D01*
X5584120Y3713820D01*
X5586200Y3708880D01*
X5588940Y3704260D01*
X5592279Y3700040D01*
X5596140Y3696300D01*
X5600460Y3693120D01*
X5605160Y3690539D01*
X5610180Y3688620D01*
X5615400Y3687360D01*
G37*
G36*
X4370740Y3686840D02*
G01*
X4376100Y3687020D01*
X4381400Y3687900D01*
X4386520Y3689500D01*
X4391400Y3691760D01*
X4395920Y3694640D01*
X4400020Y3698100D01*
X4403620Y3702100D01*
X4406660Y3706520D01*
X4409080Y3711300D01*
X4410840Y3716380D01*
X4411920Y3721640D01*
X4412280Y3727000D01*
X4411920Y3732360D01*
X4410840Y3737620D01*
X4409080Y3742700D01*
X4406660Y3747480D01*
X4403620Y3751900D01*
X4400020Y3755899D01*
X4395920Y3759360D01*
X4391400Y3762240D01*
X4386520Y3764500D01*
X4381400Y3766100D01*
X4376100Y3766980D01*
X4370740Y3767160D01*
X4365400Y3766640D01*
X4360180Y3765380D01*
X4355160Y3763460D01*
X4350460Y3760880D01*
X4346140Y3757700D01*
X4342280Y3753960D01*
X4338940Y3749740D01*
X4336200Y3745120D01*
X4334120Y3740179D01*
X4332700Y3735000D01*
X4331980Y3729680D01*
X4331980Y3724320D01*
X4332700Y3719000D01*
X4334120Y3713820D01*
X4336200Y3708880D01*
X4338940Y3704260D01*
X4342280Y3700040D01*
X4346140Y3696300D01*
X4350460Y3693120D01*
X4355160Y3690539D01*
X4360180Y3688620D01*
X4365400Y3687360D01*
G37*
G36*
X5104500Y3690899D02*
G01*
X5104500Y3709520D01*
X5085860Y3709520D01*
X5086120Y3708900D01*
X5088860Y3704280D01*
X5092200Y3700059D01*
X5096060Y3696340D01*
X5100380Y3693159D01*
G37*
G36*
X3854500Y3690899D02*
G01*
X3854500Y3709520D01*
X3835860Y3709520D01*
X3836120Y3708900D01*
X3838860Y3704280D01*
X3842200Y3700059D01*
X3846060Y3696340D01*
X3850380Y3693159D01*
G37*
G36*
X5139500Y3690940D02*
G01*
X5141319Y3691780D01*
X5145839Y3694680D01*
X5149940Y3698140D01*
X5153540Y3702120D01*
X5156580Y3706540D01*
X5158080Y3709520D01*
X5139500Y3709520D01*
G37*
G36*
X3889500Y3690940D02*
G01*
X3891320Y3691780D01*
X3895840Y3694680D01*
X3899940Y3698140D01*
X3903540Y3702120D01*
X3906580Y3706540D01*
X3908080Y3709520D01*
X3889500Y3709520D01*
G37*
G36*
X3889500Y3744520D02*
G01*
X3908080Y3744520D01*
X3906580Y3747500D01*
X3903540Y3751940D01*
X3899940Y3755920D01*
X3895840Y3759380D01*
X3891320Y3762280D01*
X3889500Y3763120D01*
G37*
G36*
X5139500Y3744520D02*
G01*
X5158080Y3744520D01*
X5156580Y3747500D01*
X5153540Y3751940D01*
X5149940Y3755920D01*
X5145839Y3759380D01*
X5141319Y3762280D01*
X5139500Y3763120D01*
G37*
G36*
X5085860Y3744520D02*
G01*
X5104500Y3744520D01*
X5104500Y3763159D01*
X5100380Y3760899D01*
X5096060Y3757720D01*
X5092200Y3753980D01*
X5088860Y3749780D01*
X5086120Y3745160D01*
G37*
G36*
X3835860Y3744520D02*
G01*
X3854500Y3744520D01*
X3854500Y3763159D01*
X3850380Y3760899D01*
X3846060Y3757720D01*
X3842200Y3753980D01*
X3838860Y3749780D01*
X3836120Y3745160D01*
G37*
G36*
X4370740Y3786259D02*
G01*
X4376100Y3786440D01*
X4381400Y3787340D01*
X4386520Y3788920D01*
X4391400Y3791180D01*
X4395920Y3794080D01*
X4400020Y3797540D01*
X4403620Y3801520D01*
X4406660Y3805940D01*
X4409080Y3810740D01*
X4410840Y3815800D01*
X4411920Y3821080D01*
X4412280Y3826420D01*
X4411920Y3831780D01*
X4410840Y3837040D01*
X4409080Y3842120D01*
X4406660Y3846900D01*
X4403620Y3851340D01*
X4400020Y3855320D01*
X4395920Y3858780D01*
X4391400Y3861680D01*
X4386520Y3863940D01*
X4381400Y3865520D01*
X4376100Y3866420D01*
X4370740Y3866600D01*
X4365400Y3866060D01*
X4360180Y3864820D01*
X4355160Y3862880D01*
X4350460Y3860299D01*
X4346140Y3857120D01*
X4342280Y3853380D01*
X4338940Y3849180D01*
X4336200Y3844560D01*
X4334120Y3839620D01*
X4332700Y3834440D01*
X4331980Y3829120D01*
X4331980Y3823740D01*
X4332700Y3818420D01*
X4334120Y3813240D01*
X4336200Y3808300D01*
X4338940Y3803680D01*
X4342280Y3799460D01*
X4346140Y3795740D01*
X4350460Y3792559D01*
X4355160Y3789980D01*
X4360180Y3788039D01*
X4365400Y3786800D01*
G37*
G36*
X5620740Y3786259D02*
G01*
X5626100Y3786440D01*
X5631400Y3787340D01*
X5636520Y3788920D01*
X5641400Y3791180D01*
X5645920Y3794080D01*
X5650019Y3797540D01*
X5653620Y3801520D01*
X5656660Y3805940D01*
X5659080Y3810740D01*
X5660839Y3815800D01*
X5661920Y3821080D01*
X5662279Y3826420D01*
X5661920Y3831780D01*
X5660839Y3837040D01*
X5659080Y3842120D01*
X5656660Y3846900D01*
X5653620Y3851340D01*
X5650019Y3855320D01*
X5645920Y3858780D01*
X5641400Y3861680D01*
X5636520Y3863940D01*
X5631400Y3865520D01*
X5626100Y3866420D01*
X5620740Y3866600D01*
X5615400Y3866060D01*
X5610180Y3864820D01*
X5605160Y3862880D01*
X5600460Y3860299D01*
X5596140Y3857120D01*
X5592279Y3853380D01*
X5588940Y3849180D01*
X5586200Y3844560D01*
X5584120Y3839620D01*
X5582700Y3834440D01*
X5581980Y3829120D01*
X5581980Y3823740D01*
X5582700Y3818420D01*
X5584120Y3813240D01*
X5586200Y3808300D01*
X5588940Y3803680D01*
X5592279Y3799460D01*
X5596140Y3795740D01*
X5600460Y3792559D01*
X5605160Y3789980D01*
X5610180Y3788039D01*
X5615400Y3786800D01*
G37*
G36*
X5120660Y3786280D02*
G01*
X5126020Y3786460D01*
X5131319Y3787360D01*
X5136440Y3788960D01*
X5141319Y3791220D01*
X5145839Y3794100D01*
X5149940Y3797559D01*
X5153540Y3801540D01*
X5156580Y3805980D01*
X5159000Y3810760D01*
X5160760Y3815840D01*
X5161840Y3821100D01*
X5162200Y3826460D01*
X5161840Y3831820D01*
X5160760Y3837080D01*
X5159000Y3842140D01*
X5156580Y3846940D01*
X5153540Y3851360D01*
X5149940Y3855340D01*
X5145839Y3858820D01*
X5141319Y3861700D01*
X5136440Y3863960D01*
X5131319Y3865560D01*
X5126020Y3866440D01*
X5120660Y3866620D01*
X5115320Y3866080D01*
X5110100Y3864840D01*
X5105080Y3862919D01*
X5100380Y3860340D01*
X5096060Y3857140D01*
X5092200Y3853420D01*
X5088860Y3849200D01*
X5086120Y3844580D01*
X5084040Y3839640D01*
X5082620Y3834460D01*
X5081900Y3829140D01*
X5081900Y3823780D01*
X5082620Y3818460D01*
X5084040Y3813279D01*
X5086120Y3808320D01*
X5088860Y3803700D01*
X5092200Y3799500D01*
X5096060Y3795760D01*
X5100380Y3792580D01*
X5105080Y3790000D01*
X5110100Y3788060D01*
X5115320Y3786820D01*
G37*
G36*
X3870659Y3786280D02*
G01*
X3876019Y3786460D01*
X3881320Y3787360D01*
X3886440Y3788960D01*
X3891320Y3791220D01*
X3895840Y3794100D01*
X3899940Y3797559D01*
X3903540Y3801540D01*
X3906580Y3805980D01*
X3909000Y3810760D01*
X3910760Y3815840D01*
X3911840Y3821100D01*
X3912200Y3826460D01*
X3911840Y3831820D01*
X3910760Y3837080D01*
X3909000Y3842140D01*
X3906580Y3846940D01*
X3903540Y3851360D01*
X3899940Y3855340D01*
X3895840Y3858820D01*
X3891320Y3861700D01*
X3886440Y3863960D01*
X3881320Y3865560D01*
X3876019Y3866440D01*
X3870659Y3866620D01*
X3865320Y3866080D01*
X3860100Y3864840D01*
X3855080Y3862919D01*
X3850380Y3860340D01*
X3846060Y3857140D01*
X3842200Y3853420D01*
X3837620Y3847580D01*
X3836440Y3846900D01*
X3835080Y3846660D01*
X2173560Y3846660D01*
X2172020Y3846960D01*
X2170740Y3847840D01*
X2031380Y3987200D01*
X2030500Y3988480D01*
X2030200Y3990020D01*
X2030200Y4282180D01*
X2030500Y4283720D01*
X2031380Y4285020D01*
X2032660Y4285880D01*
X2034199Y4286180D01*
X2037780Y4286180D01*
X2040260Y4286480D01*
X2042420Y4287220D01*
X2044340Y4288440D01*
X2045960Y4290040D01*
X2047160Y4291980D01*
X2047920Y4294120D01*
X2048200Y4296620D01*
X2048200Y4363360D01*
X2047920Y4365860D01*
X2047160Y4368000D01*
X2045960Y4369940D01*
X2044340Y4371540D01*
X2042420Y4372760D01*
X2040260Y4373500D01*
X2037780Y4373780D01*
X1982220Y4373780D01*
X1979740Y4373500D01*
X1977580Y4372760D01*
X1975660Y4371540D01*
X1974040Y4369940D01*
X1972840Y4368000D01*
X1972080Y4365860D01*
X1971800Y4363360D01*
X1971800Y4296620D01*
X1972080Y4294120D01*
X1972840Y4291980D01*
X1974040Y4290040D01*
X1975660Y4288440D01*
X1977580Y4287220D01*
X1979740Y4286480D01*
X1982220Y4286180D01*
X1985800Y4286180D01*
X1987340Y4285880D01*
X1988620Y4285020D01*
X1989500Y4283720D01*
X1989800Y4282180D01*
X1989800Y3980080D01*
X1989880Y3978240D01*
X1990120Y3976480D01*
X1990500Y3974760D01*
X1991020Y3973080D01*
X1991699Y3971460D01*
X1992500Y3969900D01*
X1993460Y3968420D01*
X1994520Y3967020D01*
X1995780Y3965640D01*
X2149180Y3812240D01*
X2150560Y3810980D01*
X2151960Y3809920D01*
X2153440Y3808960D01*
X2155000Y3808159D01*
X2156620Y3807480D01*
X2158300Y3806960D01*
X2160020Y3806580D01*
X2161780Y3806340D01*
X2163620Y3806259D01*
X3835080Y3806259D01*
X3836420Y3806019D01*
X3837620Y3805340D01*
X3842200Y3799500D01*
X3846060Y3795760D01*
X3850380Y3792580D01*
X3855080Y3790000D01*
X3860100Y3788060D01*
X3865320Y3786820D01*
G37*
G36*
X4796760Y3861340D02*
G01*
X4863240Y3861340D01*
X4865720Y3861620D01*
X4867880Y3862360D01*
X4869800Y3863580D01*
X4871420Y3865200D01*
X4872640Y3867120D01*
X4873380Y3869280D01*
X4873660Y3871760D01*
X4873660Y3938240D01*
X4873380Y3940720D01*
X4872640Y3942880D01*
X4871420Y3944800D01*
X4869800Y3946420D01*
X4867880Y3947640D01*
X4865720Y3948380D01*
X4863240Y3948660D01*
X4796760Y3948660D01*
X4794280Y3948380D01*
X4792120Y3947640D01*
X4790200Y3946420D01*
X4788580Y3944800D01*
X4787360Y3942880D01*
X4786620Y3940720D01*
X4786340Y3938240D01*
X4786340Y3871760D01*
X4786620Y3869280D01*
X4787360Y3867120D01*
X4788580Y3865200D01*
X4790200Y3863580D01*
X4792120Y3862360D01*
X4794280Y3861620D01*
G37*
G36*
X3546760Y3861340D02*
G01*
X3613240Y3861340D01*
X3615720Y3861620D01*
X3617880Y3862360D01*
X3619800Y3863580D01*
X3621420Y3865200D01*
X3622640Y3867120D01*
X3623380Y3869280D01*
X3623660Y3871760D01*
X3623660Y3938240D01*
X3623380Y3940720D01*
X3622640Y3942880D01*
X3621420Y3944800D01*
X3619800Y3946420D01*
X3617880Y3947640D01*
X3615720Y3948380D01*
X3613240Y3948660D01*
X3546760Y3948660D01*
X3544280Y3948380D01*
X3542120Y3947640D01*
X3540200Y3946420D01*
X3538580Y3944800D01*
X3537360Y3942880D01*
X3536620Y3940720D01*
X3536340Y3938240D01*
X3536340Y3871760D01*
X3536620Y3869280D01*
X3537360Y3867120D01*
X3538580Y3865200D01*
X3540200Y3863580D01*
X3542120Y3862360D01*
X3544280Y3861620D01*
G37*
G36*
X4370740Y3885680D02*
G01*
X4376100Y3885860D01*
X4381400Y3886760D01*
X4386520Y3888360D01*
X4391400Y3890620D01*
X4395920Y3893500D01*
X4400020Y3896960D01*
X4403620Y3900940D01*
X4406660Y3905380D01*
X4409080Y3910160D01*
X4410840Y3915240D01*
X4411920Y3920500D01*
X4412280Y3925860D01*
X4411920Y3931220D01*
X4410840Y3936480D01*
X4409080Y3941540D01*
X4406660Y3946340D01*
X4403620Y3950760D01*
X4400020Y3954740D01*
X4395920Y3958220D01*
X4391400Y3961100D01*
X4386520Y3963360D01*
X4381400Y3964960D01*
X4376100Y3965840D01*
X4370740Y3966019D01*
X4365400Y3965480D01*
X4360180Y3964240D01*
X4355160Y3962320D01*
X4350460Y3959740D01*
X4346140Y3956540D01*
X4342280Y3952820D01*
X4338940Y3948600D01*
X4336200Y3943980D01*
X4334120Y3939040D01*
X4332700Y3933860D01*
X4331980Y3928540D01*
X4331980Y3923180D01*
X4332700Y3917860D01*
X4334120Y3912679D01*
X4336200Y3907720D01*
X4338940Y3903100D01*
X4342280Y3898900D01*
X4346140Y3895160D01*
X4350460Y3891980D01*
X4355160Y3889400D01*
X4360180Y3887460D01*
X4365400Y3886220D01*
G37*
G36*
X5620740Y3885680D02*
G01*
X5626100Y3885860D01*
X5631400Y3886760D01*
X5636520Y3888360D01*
X5641400Y3890620D01*
X5645920Y3893500D01*
X5650019Y3896960D01*
X5653620Y3900940D01*
X5656660Y3905380D01*
X5659080Y3910160D01*
X5660839Y3915240D01*
X5661920Y3920500D01*
X5662279Y3925860D01*
X5661920Y3931220D01*
X5660839Y3936480D01*
X5659080Y3941540D01*
X5656660Y3946340D01*
X5653620Y3950760D01*
X5650019Y3954740D01*
X5645920Y3958220D01*
X5641400Y3961100D01*
X5636520Y3963360D01*
X5631400Y3964960D01*
X5626100Y3965840D01*
X5620740Y3966019D01*
X5615400Y3965480D01*
X5610180Y3964240D01*
X5605160Y3962320D01*
X5600460Y3959740D01*
X5596140Y3956540D01*
X5592279Y3952820D01*
X5588940Y3948600D01*
X5586200Y3943980D01*
X5584120Y3939040D01*
X5582700Y3933860D01*
X5581980Y3928540D01*
X5581980Y3923180D01*
X5582700Y3917860D01*
X5584120Y3912679D01*
X5586200Y3907720D01*
X5588940Y3903100D01*
X5592279Y3898900D01*
X5596140Y3895160D01*
X5600460Y3891980D01*
X5605160Y3889400D01*
X5610180Y3887460D01*
X5615400Y3886220D01*
G37*
G36*
X5120660Y3885720D02*
G01*
X5126020Y3885899D01*
X5131319Y3886780D01*
X5136440Y3888380D01*
X5141319Y3890640D01*
X5145839Y3893519D01*
X5149940Y3897000D01*
X5153540Y3900980D01*
X5156580Y3905400D01*
X5159000Y3910200D01*
X5160760Y3915260D01*
X5161840Y3920520D01*
X5162200Y3925880D01*
X5161840Y3931240D01*
X5160760Y3936500D01*
X5159000Y3941580D01*
X5156580Y3946360D01*
X5153540Y3950800D01*
X5149940Y3954780D01*
X5145839Y3958240D01*
X5141319Y3961120D01*
X5136440Y3963380D01*
X5131319Y3964980D01*
X5126020Y3965880D01*
X5120660Y3966060D01*
X5115320Y3965520D01*
X5110100Y3964280D01*
X5105080Y3962340D01*
X5100380Y3959760D01*
X5096060Y3956580D01*
X5092200Y3952840D01*
X5088860Y3948620D01*
X5086120Y3944020D01*
X5084040Y3939060D01*
X5082620Y3933880D01*
X5081900Y3928560D01*
X5081900Y3923200D01*
X5082620Y3917880D01*
X5084040Y3912700D01*
X5086120Y3907760D01*
X5088860Y3903140D01*
X5092200Y3898920D01*
X5096060Y3895200D01*
X5100380Y3892000D01*
X5105080Y3889420D01*
X5110100Y3887500D01*
X5115320Y3886259D01*
G37*
G36*
X3870659Y3885720D02*
G01*
X3876019Y3885899D01*
X3881320Y3886780D01*
X3886440Y3888380D01*
X3891320Y3890640D01*
X3895840Y3893519D01*
X3899940Y3897000D01*
X3903540Y3900980D01*
X3906580Y3905400D01*
X3909000Y3910200D01*
X3910760Y3915260D01*
X3911840Y3920520D01*
X3912200Y3925880D01*
X3911840Y3931240D01*
X3910760Y3936500D01*
X3909000Y3941580D01*
X3906580Y3946360D01*
X3903540Y3950800D01*
X3899940Y3954780D01*
X3895840Y3958240D01*
X3891320Y3961120D01*
X3886440Y3963380D01*
X3881320Y3964980D01*
X3876019Y3965880D01*
X3870659Y3966060D01*
X3865320Y3965520D01*
X3860100Y3964280D01*
X3855080Y3962340D01*
X3850380Y3959760D01*
X3846060Y3956580D01*
X3842200Y3952840D01*
X3838860Y3948620D01*
X3836120Y3944020D01*
X3834040Y3939060D01*
X3832620Y3933880D01*
X3831900Y3928560D01*
X3831900Y3923200D01*
X3832620Y3917880D01*
X3834040Y3912700D01*
X3836120Y3907760D01*
X3838860Y3903140D01*
X3842200Y3898920D01*
X3846060Y3895200D01*
X3850380Y3892000D01*
X3855080Y3889420D01*
X3860100Y3887500D01*
X3865320Y3886259D01*
G37*
G36*
X3577200Y3961440D02*
G01*
X3582799Y3961440D01*
X3588340Y3962140D01*
X3593759Y3963560D01*
X3598940Y3965659D01*
X3603820Y3968420D01*
X3608300Y3971760D01*
X3612320Y3975640D01*
X3615800Y3980020D01*
X3618700Y3984800D01*
X3620980Y3989920D01*
X3622559Y3995280D01*
X3623460Y4000800D01*
X3623639Y4006400D01*
X3623100Y4011960D01*
X3621860Y4017420D01*
X3619920Y4022679D01*
X3617340Y4027640D01*
X3614140Y4032220D01*
X3610380Y4036360D01*
X3606120Y4039980D01*
X3601420Y4043039D01*
X3596380Y4045460D01*
X3591080Y4047220D01*
X3585580Y4048300D01*
X3580000Y4048660D01*
X3574420Y4048300D01*
X3568920Y4047220D01*
X3563620Y4045460D01*
X3558580Y4043039D01*
X3553880Y4039980D01*
X3549620Y4036360D01*
X3545860Y4032220D01*
X3542660Y4027640D01*
X3540080Y4022679D01*
X3538140Y4017420D01*
X3536900Y4011960D01*
X3536360Y4006400D01*
X3536540Y4000800D01*
X3537440Y3995280D01*
X3539040Y3989920D01*
X3541300Y3984800D01*
X3544200Y3980020D01*
X3547679Y3975640D01*
X3551700Y3971760D01*
X3556180Y3968420D01*
X3561060Y3965659D01*
X3566240Y3963560D01*
X3571660Y3962140D01*
G37*
G36*
X4827200Y3961440D02*
G01*
X4832800Y3961440D01*
X4838340Y3962140D01*
X4843760Y3963560D01*
X4848940Y3965659D01*
X4853820Y3968420D01*
X4858300Y3971760D01*
X4862320Y3975640D01*
X4865800Y3980020D01*
X4868700Y3984800D01*
X4870980Y3989920D01*
X4872560Y3995280D01*
X4873460Y4000800D01*
X4873640Y4006400D01*
X4873100Y4011960D01*
X4871860Y4017420D01*
X4869920Y4022679D01*
X4867340Y4027640D01*
X4866720Y4028519D01*
X4866060Y4030120D01*
X4866140Y4031840D01*
X4866940Y4033380D01*
X4868300Y4034420D01*
X4870000Y4034800D01*
X5059920Y4034800D01*
X5061760Y4034880D01*
X5063500Y4035120D01*
X5065220Y4035500D01*
X5066900Y4036019D01*
X5068540Y4036700D01*
X5070100Y4037500D01*
X5071580Y4038460D01*
X5072980Y4039520D01*
X5074340Y4040779D01*
X5078300Y4044740D01*
X5079600Y4045600D01*
X5081140Y4045920D01*
X5082680Y4045600D01*
X5083980Y4044720D01*
X5084840Y4043420D01*
X5085140Y4041880D01*
X5084820Y4040340D01*
X5084040Y4038500D01*
X5082620Y4033320D01*
X5081900Y4028000D01*
X5081900Y4022620D01*
X5082620Y4017300D01*
X5084040Y4012120D01*
X5086120Y4007180D01*
X5088860Y4002559D01*
X5092200Y3998360D01*
X5096060Y3994620D01*
X5100380Y3991440D01*
X5105080Y3988860D01*
X5110100Y3986920D01*
X5115320Y3985680D01*
X5120660Y3985140D01*
X5126020Y3985320D01*
X5131319Y3986220D01*
X5136440Y3987799D01*
X5141319Y3990059D01*
X5145839Y3992960D01*
X5149940Y3996420D01*
X5153540Y4000400D01*
X5156580Y4004840D01*
X5159000Y4009620D01*
X5160760Y4014700D01*
X5161840Y4019960D01*
X5162200Y4025320D01*
X5161840Y4030659D01*
X5160760Y4035940D01*
X5159000Y4041000D01*
X5156580Y4045800D01*
X5154700Y4048540D01*
X5154059Y4050140D01*
X5154140Y4051860D01*
X5154940Y4053380D01*
X5156319Y4054420D01*
X5158000Y4054800D01*
X5562340Y4054800D01*
X5563860Y4054500D01*
X5565160Y4053620D01*
X5581660Y4037140D01*
X5582380Y4036139D01*
X5582760Y4034980D01*
X5582780Y4033759D01*
X5581980Y4027960D01*
X5581980Y4022600D01*
X5582700Y4017280D01*
X5584120Y4012100D01*
X5586200Y4007160D01*
X5588940Y4002540D01*
X5592279Y3998320D01*
X5596120Y3994600D01*
X5600460Y3991400D01*
X5605160Y3988820D01*
X5610180Y3986900D01*
X5615400Y3985659D01*
X5620740Y3985120D01*
X5626100Y3985299D01*
X5631400Y3986180D01*
X5636520Y3987780D01*
X5641400Y3990040D01*
X5645920Y3992919D01*
X5650019Y3996400D01*
X5653620Y4000380D01*
X5656660Y4004800D01*
X5659080Y4009600D01*
X5660839Y4014660D01*
X5661920Y4019920D01*
X5662260Y4025280D01*
X5661920Y4030640D01*
X5660839Y4035899D01*
X5659080Y4040980D01*
X5656660Y4045760D01*
X5653620Y4050200D01*
X5650019Y4054180D01*
X5645920Y4057640D01*
X5641400Y4060539D01*
X5636520Y4062799D01*
X5631400Y4064380D01*
X5626100Y4065280D01*
X5620740Y4065460D01*
X5615400Y4064920D01*
X5614020Y4064600D01*
X5612680Y4064500D01*
X5611380Y4064880D01*
X5610280Y4065659D01*
X5586700Y4089220D01*
X5585340Y4090480D01*
X5583940Y4091540D01*
X5582460Y4092500D01*
X5580900Y4093300D01*
X5579260Y4093980D01*
X5577580Y4094500D01*
X5575860Y4094880D01*
X5574120Y4095120D01*
X5572279Y4095200D01*
X5157960Y4095200D01*
X5156280Y4095580D01*
X5154900Y4096620D01*
X5154100Y4098140D01*
X5154020Y4099860D01*
X5154660Y4101460D01*
X5156580Y4104260D01*
X5159000Y4109060D01*
X5160760Y4114120D01*
X5161840Y4119380D01*
X5162200Y4124740D01*
X5161840Y4130100D01*
X5160760Y4135360D01*
X5159000Y4140440D01*
X5156580Y4145220D01*
X5153540Y4149660D01*
X5149940Y4153639D01*
X5145839Y4157100D01*
X5141319Y4159980D01*
X5136440Y4162240D01*
X5131319Y4163840D01*
X5126020Y4164740D01*
X5120660Y4164920D01*
X5115320Y4164380D01*
X5110100Y4163120D01*
X5105080Y4161200D01*
X5100380Y4158620D01*
X5096060Y4155440D01*
X5092200Y4151700D01*
X5088860Y4147480D01*
X5086120Y4142860D01*
X5084040Y4137919D01*
X5082620Y4132740D01*
X5081900Y4127420D01*
X5081900Y4122060D01*
X5082620Y4116740D01*
X5084040Y4111560D01*
X5086120Y4106620D01*
X5088860Y4102000D01*
X5089880Y4100080D01*
X5089880Y4098300D01*
X5089100Y4096700D01*
X5087700Y4095600D01*
X5085980Y4095200D01*
X5080080Y4095200D01*
X5078240Y4095120D01*
X5076500Y4094880D01*
X5074780Y4094500D01*
X5073100Y4093980D01*
X5071460Y4093300D01*
X5069900Y4092500D01*
X5068420Y4091540D01*
X5067020Y4090480D01*
X5065660Y4089220D01*
X5052800Y4076380D01*
X5051500Y4075500D01*
X5049980Y4075200D01*
X4869980Y4075200D01*
X4868340Y4075560D01*
X4866980Y4076540D01*
X4866160Y4078020D01*
X4866020Y4079680D01*
X4866560Y4081280D01*
X4868700Y4084800D01*
X4870980Y4089920D01*
X4872560Y4095280D01*
X4873460Y4100800D01*
X4873640Y4106400D01*
X4873100Y4111960D01*
X4871860Y4117420D01*
X4869920Y4122679D01*
X4867340Y4127640D01*
X4864140Y4132220D01*
X4860380Y4136360D01*
X4856120Y4139980D01*
X4851420Y4143039D01*
X4846380Y4145460D01*
X4841080Y4147220D01*
X4835580Y4148300D01*
X4830000Y4148660D01*
X4824420Y4148300D01*
X4818920Y4147220D01*
X4813620Y4145460D01*
X4808580Y4143039D01*
X4803880Y4139980D01*
X4799620Y4136360D01*
X4795860Y4132220D01*
X4792660Y4127640D01*
X4790080Y4122679D01*
X4788140Y4117420D01*
X4786900Y4111960D01*
X4786360Y4106400D01*
X4786540Y4100800D01*
X4787440Y4095280D01*
X4789040Y4089920D01*
X4791300Y4084800D01*
X4793440Y4081280D01*
X4793980Y4079680D01*
X4793840Y4078020D01*
X4793020Y4076540D01*
X4791660Y4075560D01*
X4790020Y4075200D01*
X4401880Y4075200D01*
X4400040Y4075120D01*
X4398300Y4074880D01*
X4396580Y4074500D01*
X4394900Y4073980D01*
X4393260Y4073300D01*
X4391700Y4072500D01*
X4390220Y4071540D01*
X4388820Y4070480D01*
X4387460Y4069220D01*
X4383900Y4065659D01*
X4382880Y4064920D01*
X4381660Y4064540D01*
X4380400Y4064540D01*
X4376100Y4065280D01*
X4370740Y4065460D01*
X4365400Y4064920D01*
X4360180Y4063680D01*
X4355160Y4061740D01*
X4350460Y4059160D01*
X4346120Y4055980D01*
X4342280Y4052240D01*
X4338940Y4048039D01*
X4336200Y4043420D01*
X4334120Y4038460D01*
X4332700Y4033300D01*
X4331980Y4027960D01*
X4331980Y4022600D01*
X4332700Y4017280D01*
X4334120Y4012100D01*
X4336200Y4007160D01*
X4338940Y4002540D01*
X4342280Y3998320D01*
X4346120Y3994600D01*
X4350460Y3991400D01*
X4355160Y3988820D01*
X4360180Y3986900D01*
X4365400Y3985659D01*
X4370740Y3985120D01*
X4376100Y3985299D01*
X4381400Y3986180D01*
X4386520Y3987780D01*
X4391400Y3990040D01*
X4395920Y3992919D01*
X4400020Y3996400D01*
X4403620Y4000380D01*
X4406660Y4004800D01*
X4409080Y4009600D01*
X4410840Y4014660D01*
X4411920Y4019920D01*
X4412260Y4025280D01*
X4411920Y4030539D01*
X4412140Y4032140D01*
X4412980Y4033540D01*
X4414320Y4034460D01*
X4415900Y4034800D01*
X4790000Y4034800D01*
X4791700Y4034420D01*
X4793060Y4033380D01*
X4793860Y4031840D01*
X4793940Y4030120D01*
X4793280Y4028519D01*
X4792660Y4027640D01*
X4790080Y4022679D01*
X4788140Y4017420D01*
X4786900Y4011960D01*
X4786360Y4006400D01*
X4786540Y4000800D01*
X4787440Y3995280D01*
X4789040Y3989920D01*
X4791300Y3984800D01*
X4794200Y3980020D01*
X4797680Y3975640D01*
X4801700Y3971760D01*
X4806180Y3968420D01*
X4811060Y3965659D01*
X4816240Y3963560D01*
X4821660Y3962140D01*
G37*
G36*
X3870659Y3985140D02*
G01*
X3876019Y3985320D01*
X3881320Y3986220D01*
X3886440Y3987799D01*
X3891320Y3990059D01*
X3895840Y3992960D01*
X3899940Y3996420D01*
X3903540Y4000400D01*
X3906580Y4004840D01*
X3909000Y4009620D01*
X3910760Y4014700D01*
X3911840Y4019960D01*
X3912200Y4025320D01*
X3911840Y4030659D01*
X3910760Y4035940D01*
X3909000Y4041000D01*
X3906580Y4045800D01*
X3903540Y4050220D01*
X3899940Y4054200D01*
X3895840Y4057660D01*
X3891320Y4060560D01*
X3886440Y4062820D01*
X3881320Y4064400D01*
X3876019Y4065299D01*
X3870659Y4065480D01*
X3865320Y4064940D01*
X3860100Y4063700D01*
X3855080Y4061760D01*
X3850380Y4059180D01*
X3846060Y4056000D01*
X3842200Y4052280D01*
X3838860Y4048060D01*
X3836120Y4043440D01*
X3834040Y4038500D01*
X3832620Y4033320D01*
X3831900Y4028000D01*
X3831900Y4022620D01*
X3832620Y4017300D01*
X3834040Y4012120D01*
X3836120Y4007180D01*
X3838860Y4002559D01*
X3842200Y3998360D01*
X3846060Y3994620D01*
X3850380Y3991440D01*
X3855080Y3988860D01*
X3860100Y3986920D01*
X3865320Y3985680D01*
G37*
G36*
X3577200Y4061440D02*
G01*
X3582799Y4061440D01*
X3588340Y4062140D01*
X3593759Y4063560D01*
X3598940Y4065659D01*
X3603820Y4068420D01*
X3608300Y4071760D01*
X3612320Y4075640D01*
X3615800Y4080020D01*
X3618700Y4084800D01*
X3620980Y4089920D01*
X3622559Y4095280D01*
X3623460Y4100800D01*
X3623639Y4106400D01*
X3623100Y4111960D01*
X3621860Y4117420D01*
X3619920Y4122679D01*
X3617340Y4127640D01*
X3614140Y4132220D01*
X3610380Y4136360D01*
X3606120Y4139980D01*
X3601420Y4143039D01*
X3596380Y4145460D01*
X3591080Y4147220D01*
X3585580Y4148300D01*
X3580000Y4148660D01*
X3574420Y4148300D01*
X3568920Y4147220D01*
X3563620Y4145460D01*
X3558580Y4143039D01*
X3553880Y4139980D01*
X3549620Y4136360D01*
X3545860Y4132220D01*
X3542660Y4127640D01*
X3540080Y4122679D01*
X3538140Y4117420D01*
X3536900Y4111960D01*
X3536360Y4106400D01*
X3536540Y4100800D01*
X3537440Y4095280D01*
X3539040Y4089920D01*
X3541300Y4084800D01*
X3544200Y4080020D01*
X3547679Y4075640D01*
X3551700Y4071760D01*
X3556180Y4068420D01*
X3561060Y4065659D01*
X3566240Y4063560D01*
X3571660Y4062140D01*
G37*
G36*
X5620740Y4084540D02*
G01*
X5626100Y4084720D01*
X5631400Y4085620D01*
X5636520Y4087200D01*
X5641400Y4089460D01*
X5645920Y4092360D01*
X5650019Y4095820D01*
X5653620Y4099800D01*
X5656660Y4104240D01*
X5659080Y4109020D01*
X5660839Y4114100D01*
X5661920Y4119360D01*
X5662279Y4124720D01*
X5661920Y4130080D01*
X5660839Y4135340D01*
X5659080Y4140400D01*
X5656660Y4145200D01*
X5653620Y4149620D01*
X5650019Y4153600D01*
X5645920Y4157080D01*
X5641400Y4159960D01*
X5636520Y4162220D01*
X5631400Y4163820D01*
X5626100Y4164700D01*
X5620740Y4164880D01*
X5615400Y4164340D01*
X5610180Y4163100D01*
X5605160Y4161180D01*
X5600460Y4158600D01*
X5596140Y4155400D01*
X5592279Y4151680D01*
X5588940Y4147460D01*
X5586200Y4142840D01*
X5584120Y4137900D01*
X5582700Y4132720D01*
X5581980Y4127400D01*
X5581980Y4122020D01*
X5582700Y4116700D01*
X5584120Y4111540D01*
X5586200Y4106580D01*
X5588940Y4101960D01*
X5592279Y4097760D01*
X5596140Y4094020D01*
X5600460Y4090840D01*
X5605160Y4088260D01*
X5610180Y4086320D01*
X5615400Y4085080D01*
G37*
G36*
X3870659Y4084580D02*
G01*
X3876019Y4084760D01*
X3881320Y4085640D01*
X3886440Y4087240D01*
X3891320Y4089500D01*
X3895840Y4092380D01*
X3899940Y4095860D01*
X3903540Y4099840D01*
X3906580Y4104260D01*
X3909000Y4109060D01*
X3910760Y4114120D01*
X3911840Y4119380D01*
X3912200Y4124740D01*
X3911840Y4130100D01*
X3910760Y4135360D01*
X3909000Y4140440D01*
X3906580Y4145220D01*
X3903540Y4149660D01*
X3899940Y4153639D01*
X3895840Y4157100D01*
X3891320Y4159980D01*
X3886440Y4162240D01*
X3881320Y4163840D01*
X3876019Y4164740D01*
X3870659Y4164920D01*
X3865320Y4164380D01*
X3860100Y4163120D01*
X3855080Y4161200D01*
X3850380Y4158620D01*
X3846060Y4155440D01*
X3842200Y4151700D01*
X3838860Y4147480D01*
X3836120Y4142860D01*
X3834040Y4137919D01*
X3832620Y4132740D01*
X3831900Y4127420D01*
X3831900Y4122060D01*
X3832620Y4116740D01*
X3834040Y4111560D01*
X3836120Y4106620D01*
X3838860Y4102000D01*
X3842200Y4097780D01*
X3846060Y4094040D01*
X3850380Y4090860D01*
X3855080Y4088279D01*
X3860100Y4086360D01*
X3865320Y4085120D01*
G37*
G36*
X3577200Y4161440D02*
G01*
X3582799Y4161440D01*
X3588340Y4162140D01*
X3593759Y4163560D01*
X3598940Y4165659D01*
X3603820Y4168420D01*
X3608300Y4171760D01*
X3612320Y4175640D01*
X3615800Y4180020D01*
X3618700Y4184800D01*
X3620980Y4189920D01*
X3622559Y4195280D01*
X3623460Y4200800D01*
X3623639Y4206400D01*
X3623100Y4211960D01*
X3621860Y4217420D01*
X3619920Y4222680D01*
X3617340Y4227640D01*
X3614140Y4232220D01*
X3610380Y4236360D01*
X3606120Y4239980D01*
X3601420Y4243040D01*
X3596380Y4245460D01*
X3591080Y4247220D01*
X3585580Y4248300D01*
X3580000Y4248660D01*
X3574420Y4248300D01*
X3568920Y4247220D01*
X3563620Y4245460D01*
X3558580Y4243040D01*
X3553880Y4239980D01*
X3549620Y4236360D01*
X3545860Y4232220D01*
X3542660Y4227640D01*
X3540080Y4222680D01*
X3538140Y4217420D01*
X3536900Y4211960D01*
X3536360Y4206400D01*
X3536540Y4200800D01*
X3537440Y4195280D01*
X3539040Y4189920D01*
X3541300Y4184800D01*
X3544200Y4180020D01*
X3547679Y4175640D01*
X3551700Y4171760D01*
X3556180Y4168420D01*
X3561060Y4165659D01*
X3566240Y4163560D01*
X3571660Y4162140D01*
G37*
G36*
X4827200Y4161440D02*
G01*
X4832800Y4161440D01*
X4838340Y4162140D01*
X4843760Y4163560D01*
X4848940Y4165659D01*
X4853820Y4168420D01*
X4858300Y4171760D01*
X4862320Y4175640D01*
X4865800Y4180020D01*
X4868700Y4184800D01*
X4870980Y4189920D01*
X4872560Y4195280D01*
X4873460Y4200800D01*
X4873640Y4206400D01*
X4873100Y4211960D01*
X4871860Y4217420D01*
X4869920Y4222680D01*
X4867340Y4227640D01*
X4864140Y4232220D01*
X4860380Y4236360D01*
X4856120Y4239980D01*
X4851420Y4243040D01*
X4846380Y4245460D01*
X4841760Y4247000D01*
X4840360Y4247800D01*
X4839400Y4249080D01*
X4839020Y4250640D01*
X4839260Y4252220D01*
X4840120Y4253560D01*
X4841440Y4254480D01*
X4843020Y4254800D01*
X5086840Y4254800D01*
X5088560Y4254400D01*
X5089960Y4253300D01*
X5090740Y4251700D01*
X5090740Y4249920D01*
X5089980Y4248320D01*
X5088860Y4246920D01*
X5086120Y4242300D01*
X5084040Y4237360D01*
X5082620Y4232180D01*
X5081900Y4226860D01*
X5081900Y4221480D01*
X5082620Y4216160D01*
X5084040Y4210980D01*
X5086120Y4206040D01*
X5088860Y4201420D01*
X5092200Y4197220D01*
X5096060Y4193480D01*
X5100380Y4190299D01*
X5105080Y4187720D01*
X5110100Y4185779D01*
X5115320Y4184540D01*
X5120660Y4184000D01*
X5126020Y4184180D01*
X5131319Y4185080D01*
X5136440Y4186660D01*
X5141319Y4188920D01*
X5145839Y4191820D01*
X5149940Y4195280D01*
X5153540Y4199260D01*
X5156580Y4203680D01*
X5159000Y4208480D01*
X5160760Y4213560D01*
X5161840Y4218820D01*
X5162200Y4224160D01*
X5161840Y4229520D01*
X5160760Y4234780D01*
X5159000Y4239860D01*
X5156580Y4244660D01*
X5153920Y4248540D01*
X5153260Y4250140D01*
X5153360Y4251860D01*
X5154160Y4253380D01*
X5155520Y4254420D01*
X5157220Y4254800D01*
X5561200Y4254800D01*
X5562720Y4254500D01*
X5564020Y4253620D01*
X5581660Y4236000D01*
X5582380Y4235000D01*
X5582760Y4233840D01*
X5582780Y4232620D01*
X5581980Y4226820D01*
X5581980Y4221460D01*
X5582700Y4216140D01*
X5584120Y4210960D01*
X5586200Y4206020D01*
X5588940Y4201400D01*
X5592279Y4197180D01*
X5596140Y4193440D01*
X5600460Y4190260D01*
X5605160Y4187679D01*
X5610180Y4185760D01*
X5615400Y4184520D01*
X5620740Y4183980D01*
X5626100Y4184160D01*
X5631400Y4185040D01*
X5636520Y4186640D01*
X5641400Y4188900D01*
X5645920Y4191780D01*
X5650019Y4195260D01*
X5653620Y4199240D01*
X5656660Y4203660D01*
X5659080Y4208460D01*
X5660839Y4213520D01*
X5661920Y4218780D01*
X5662279Y4224140D01*
X5661920Y4229500D01*
X5660839Y4234760D01*
X5659080Y4239840D01*
X5656660Y4244620D01*
X5653620Y4249060D01*
X5650019Y4253040D01*
X5645920Y4256500D01*
X5641400Y4259380D01*
X5636520Y4261640D01*
X5631400Y4263240D01*
X5626100Y4264140D01*
X5620740Y4264320D01*
X5615400Y4263780D01*
X5614040Y4263440D01*
X5612680Y4263360D01*
X5611380Y4263740D01*
X5610280Y4264520D01*
X5585560Y4289220D01*
X5584200Y4290480D01*
X5582800Y4291540D01*
X5581319Y4292500D01*
X5579760Y4293300D01*
X5578120Y4293980D01*
X5576440Y4294500D01*
X5574720Y4294880D01*
X5572980Y4295120D01*
X5571140Y4295200D01*
X5158740Y4295200D01*
X5157060Y4295580D01*
X5155680Y4296620D01*
X5154880Y4298140D01*
X5154800Y4299860D01*
X5155440Y4301460D01*
X5156580Y4303120D01*
X5158080Y4306100D01*
X5139500Y4306100D01*
X5139500Y4299200D01*
X5139200Y4297660D01*
X5138320Y4296380D01*
X5137039Y4295500D01*
X5135500Y4295200D01*
X5108500Y4295200D01*
X5106960Y4295500D01*
X5105680Y4296380D01*
X5104800Y4297660D01*
X5104500Y4299200D01*
X5104500Y4306100D01*
X5085860Y4306100D01*
X5086120Y4305480D01*
X5088640Y4301240D01*
X5089160Y4299660D01*
X5089000Y4297980D01*
X5088180Y4296540D01*
X5086840Y4295540D01*
X5085200Y4295200D01*
X4423020Y4295200D01*
X4421180Y4295120D01*
X4419440Y4294880D01*
X4417720Y4294500D01*
X4416040Y4293980D01*
X4414400Y4293300D01*
X4412840Y4292500D01*
X4411360Y4291540D01*
X4409960Y4290480D01*
X4408600Y4289220D01*
X4383900Y4264520D01*
X4382880Y4263780D01*
X4381660Y4263400D01*
X4380400Y4263400D01*
X4376100Y4264140D01*
X4370740Y4264320D01*
X4365400Y4263780D01*
X4360180Y4262520D01*
X4355160Y4260600D01*
X4350460Y4258020D01*
X4346140Y4254840D01*
X4342280Y4251100D01*
X4338940Y4246880D01*
X4336200Y4242260D01*
X4334120Y4237320D01*
X4332700Y4232140D01*
X4331980Y4226820D01*
X4331980Y4221460D01*
X4332700Y4216140D01*
X4334120Y4210960D01*
X4336200Y4206020D01*
X4338940Y4201400D01*
X4342280Y4197180D01*
X4346140Y4193440D01*
X4350460Y4190260D01*
X4355160Y4187679D01*
X4360180Y4185760D01*
X4365400Y4184520D01*
X4370740Y4183980D01*
X4376100Y4184160D01*
X4381400Y4185040D01*
X4386520Y4186640D01*
X4391400Y4188900D01*
X4395920Y4191780D01*
X4400020Y4195260D01*
X4403620Y4199240D01*
X4406660Y4203660D01*
X4409080Y4208460D01*
X4410840Y4213520D01*
X4411920Y4218780D01*
X4412280Y4224140D01*
X4411920Y4229500D01*
X4411340Y4232300D01*
X4411300Y4233600D01*
X4411680Y4234860D01*
X4412440Y4235920D01*
X4430140Y4253620D01*
X4431440Y4254500D01*
X4432960Y4254800D01*
X4816980Y4254800D01*
X4818560Y4254480D01*
X4819880Y4253560D01*
X4820740Y4252220D01*
X4820980Y4250640D01*
X4820600Y4249080D01*
X4819640Y4247800D01*
X4818240Y4247000D01*
X4813620Y4245460D01*
X4808580Y4243040D01*
X4803880Y4239980D01*
X4799620Y4236360D01*
X4795860Y4232220D01*
X4792660Y4227640D01*
X4790080Y4222680D01*
X4788140Y4217420D01*
X4786900Y4211960D01*
X4786360Y4206400D01*
X4786540Y4200800D01*
X4787440Y4195280D01*
X4789040Y4189920D01*
X4791300Y4184800D01*
X4794200Y4180020D01*
X4797680Y4175640D01*
X4801700Y4171760D01*
X4806180Y4168420D01*
X4811060Y4165659D01*
X4816240Y4163560D01*
X4821660Y4162140D01*
G37*
G36*
X3870659Y4184000D02*
G01*
X3876019Y4184180D01*
X3881320Y4185080D01*
X3886440Y4186660D01*
X3891320Y4188920D01*
X3895840Y4191820D01*
X3899940Y4195280D01*
X3903540Y4199260D01*
X3906580Y4203680D01*
X3909000Y4208480D01*
X3910760Y4213560D01*
X3911840Y4218820D01*
X3912200Y4224160D01*
X3911840Y4229520D01*
X3910760Y4234780D01*
X3909000Y4239860D01*
X3906580Y4244660D01*
X3903540Y4249080D01*
X3899940Y4253060D01*
X3895840Y4256520D01*
X3891320Y4259420D01*
X3886440Y4261680D01*
X3881320Y4263260D01*
X3876019Y4264160D01*
X3870659Y4264340D01*
X3865320Y4263800D01*
X3860100Y4262560D01*
X3855080Y4260620D01*
X3850380Y4258040D01*
X3846060Y4254860D01*
X3842200Y4251120D01*
X3838860Y4246920D01*
X3836120Y4242300D01*
X3834040Y4237360D01*
X3832620Y4232180D01*
X3831900Y4226860D01*
X3831900Y4221480D01*
X3832620Y4216160D01*
X3834040Y4210980D01*
X3836120Y4206040D01*
X3838860Y4201420D01*
X3842200Y4197220D01*
X3846060Y4193480D01*
X3850380Y4190299D01*
X3855080Y4187720D01*
X3860100Y4185779D01*
X3865320Y4184540D01*
G37*
G36*
X4370740Y4283400D02*
G01*
X4376100Y4283580D01*
X4381400Y4284480D01*
X4386520Y4286060D01*
X4391400Y4288320D01*
X4395920Y4291220D01*
X4400020Y4294680D01*
X4403620Y4298660D01*
X4406660Y4303080D01*
X4409080Y4307880D01*
X4410840Y4312960D01*
X4411920Y4318220D01*
X4412280Y4323580D01*
X4411920Y4328920D01*
X4411340Y4331740D01*
X4411300Y4333040D01*
X4411680Y4334300D01*
X4412440Y4335360D01*
X4430700Y4353620D01*
X4432000Y4354500D01*
X4433540Y4354800D01*
X5087280Y4354800D01*
X5089020Y4354400D01*
X5090400Y4353300D01*
X5091180Y4351700D01*
X5091180Y4349920D01*
X5090420Y4348320D01*
X5088860Y4346340D01*
X5086120Y4341720D01*
X5085860Y4341100D01*
X5104500Y4341100D01*
X5104500Y4350800D01*
X5104800Y4352340D01*
X5105680Y4353620D01*
X5106960Y4354500D01*
X5108500Y4354800D01*
X5135500Y4354800D01*
X5137039Y4354500D01*
X5138320Y4353620D01*
X5139200Y4352340D01*
X5139500Y4350800D01*
X5139500Y4341100D01*
X5158080Y4341100D01*
X5156580Y4344080D01*
X5153520Y4348540D01*
X5152880Y4350140D01*
X5152960Y4351860D01*
X5153760Y4353380D01*
X5155140Y4354420D01*
X5156820Y4354800D01*
X5560620Y4354800D01*
X5562160Y4354500D01*
X5563460Y4353620D01*
X5581660Y4335420D01*
X5582380Y4334440D01*
X5582760Y4333280D01*
X5582780Y4332040D01*
X5581980Y4326240D01*
X5581980Y4320880D01*
X5582700Y4315560D01*
X5584120Y4310380D01*
X5586200Y4305440D01*
X5588940Y4300820D01*
X5592279Y4296620D01*
X5596140Y4292880D01*
X5600460Y4289700D01*
X5605160Y4287120D01*
X5610180Y4285180D01*
X5615400Y4283940D01*
X5620740Y4283400D01*
X5626100Y4283580D01*
X5631400Y4284480D01*
X5636520Y4286060D01*
X5641400Y4288320D01*
X5645920Y4291220D01*
X5650019Y4294680D01*
X5653620Y4298660D01*
X5656660Y4303080D01*
X5659080Y4307880D01*
X5660839Y4312960D01*
X5661920Y4318220D01*
X5662279Y4323580D01*
X5661920Y4328920D01*
X5660839Y4334180D01*
X5659080Y4339260D01*
X5656660Y4344060D01*
X5653620Y4348480D01*
X5650019Y4352460D01*
X5645920Y4355920D01*
X5641400Y4358820D01*
X5636520Y4361080D01*
X5631400Y4362660D01*
X5626100Y4363560D01*
X5620740Y4363740D01*
X5615400Y4363200D01*
X5614040Y4362880D01*
X5612680Y4362800D01*
X5611380Y4363160D01*
X5610280Y4363940D01*
X5585000Y4389220D01*
X5583640Y4390480D01*
X5582240Y4391540D01*
X5580740Y4392500D01*
X5579180Y4393300D01*
X5577560Y4393980D01*
X5575880Y4394500D01*
X5574160Y4394880D01*
X5572420Y4395120D01*
X5570560Y4395200D01*
X5159140Y4395200D01*
X5157460Y4395580D01*
X5156079Y4396620D01*
X5155280Y4398140D01*
X5155200Y4399860D01*
X5155839Y4401460D01*
X5156580Y4402540D01*
X5159000Y4407340D01*
X5160760Y4412400D01*
X5161840Y4417680D01*
X5162200Y4423020D01*
X5161840Y4428380D01*
X5160760Y4433640D01*
X5159000Y4438720D01*
X5156580Y4443500D01*
X5153540Y4447940D01*
X5149940Y4451920D01*
X5145839Y4455380D01*
X5141319Y4458280D01*
X5136440Y4460540D01*
X5131319Y4462120D01*
X5126020Y4463020D01*
X5120660Y4463200D01*
X5115320Y4462660D01*
X5110100Y4461420D01*
X5105080Y4459480D01*
X5100380Y4456900D01*
X5096060Y4453720D01*
X5092200Y4449980D01*
X5088860Y4445780D01*
X5086120Y4441160D01*
X5084040Y4436220D01*
X5082620Y4431040D01*
X5081900Y4425720D01*
X5081900Y4420340D01*
X5082620Y4415020D01*
X5084040Y4409840D01*
X5086120Y4404900D01*
X5088300Y4401240D01*
X5088840Y4399660D01*
X5088660Y4397980D01*
X5087840Y4396540D01*
X5086500Y4395540D01*
X5084860Y4395200D01*
X4423600Y4395200D01*
X4421740Y4395120D01*
X4420000Y4394880D01*
X4418280Y4394500D01*
X4416600Y4393980D01*
X4414980Y4393300D01*
X4413420Y4392500D01*
X4411920Y4391540D01*
X4410520Y4390480D01*
X4409160Y4389220D01*
X4383900Y4363960D01*
X4382860Y4363200D01*
X4381660Y4362820D01*
X4380400Y4362840D01*
X4376100Y4363560D01*
X4370740Y4363740D01*
X4365400Y4363200D01*
X4360180Y4361960D01*
X4355160Y4360020D01*
X4350460Y4357440D01*
X4346140Y4354260D01*
X4342280Y4350540D01*
X4338940Y4346320D01*
X4336200Y4341700D01*
X4334120Y4336760D01*
X4332700Y4331580D01*
X4331980Y4326260D01*
X4331980Y4320880D01*
X4332700Y4315560D01*
X4334120Y4310380D01*
X4336200Y4305440D01*
X4338940Y4300820D01*
X4342280Y4296620D01*
X4346140Y4292880D01*
X4350460Y4289700D01*
X4355160Y4287120D01*
X4360180Y4285180D01*
X4365400Y4283940D01*
G37*
G36*
X2182220Y4286180D02*
G01*
X2193500Y4286180D01*
X2193500Y4310680D01*
X2171800Y4310680D01*
X2171800Y4296620D01*
X2172080Y4294120D01*
X2172840Y4291980D01*
X2174040Y4290040D01*
X2175660Y4288440D01*
X2177580Y4287220D01*
X2179740Y4286480D01*
G37*
G36*
X2126500Y4286180D02*
G01*
X2137780Y4286180D01*
X2140260Y4286480D01*
X2142420Y4287220D01*
X2144340Y4288440D01*
X2145960Y4290040D01*
X2147160Y4291980D01*
X2147920Y4294120D01*
X2148200Y4296620D01*
X2148200Y4310680D01*
X2126500Y4310680D01*
G37*
G36*
X2082220Y4286180D02*
G01*
X2093500Y4286180D01*
X2093500Y4310680D01*
X2071800Y4310680D01*
X2071800Y4296620D01*
X2072080Y4294120D01*
X2072840Y4291980D01*
X2074040Y4290040D01*
X2075660Y4288440D01*
X2077580Y4287220D01*
X2079740Y4286480D01*
G37*
G36*
X2226500Y4286180D02*
G01*
X2237780Y4286180D01*
X2240260Y4286480D01*
X2242420Y4287220D01*
X2244340Y4288440D01*
X2245960Y4290040D01*
X2247160Y4291980D01*
X2247920Y4294120D01*
X2248200Y4296620D01*
X2248200Y4310680D01*
X2226500Y4310680D01*
G37*
G36*
X2482220Y4286180D02*
G01*
X2537780Y4286180D01*
X2540260Y4286480D01*
X2542420Y4287220D01*
X2544340Y4288440D01*
X2545960Y4290040D01*
X2547160Y4291980D01*
X2547920Y4294120D01*
X2548200Y4296620D01*
X2548200Y4363360D01*
X2547920Y4365860D01*
X2547160Y4368000D01*
X2545960Y4369940D01*
X2544340Y4371540D01*
X2542420Y4372760D01*
X2540260Y4373500D01*
X2537780Y4373780D01*
X2482220Y4373780D01*
X2479740Y4373500D01*
X2477580Y4372760D01*
X2475660Y4371540D01*
X2474040Y4369940D01*
X2472840Y4368000D01*
X2472080Y4365860D01*
X2471800Y4363360D01*
X2471800Y4296620D01*
X2472080Y4294120D01*
X2472840Y4291980D01*
X2474040Y4290040D01*
X2475660Y4288440D01*
X2477580Y4287220D01*
X2479740Y4286480D01*
G37*
G36*
X1782220Y4286180D02*
G01*
X1837780Y4286180D01*
X1840260Y4286480D01*
X1842420Y4287220D01*
X1844340Y4288440D01*
X1845960Y4290040D01*
X1847160Y4291980D01*
X1847920Y4294120D01*
X1848200Y4296620D01*
X1848200Y4363360D01*
X1847920Y4365860D01*
X1847160Y4368000D01*
X1845960Y4369940D01*
X1844340Y4371540D01*
X1842420Y4372760D01*
X1840260Y4373500D01*
X1837780Y4373780D01*
X1782220Y4373780D01*
X1779740Y4373500D01*
X1777580Y4372760D01*
X1775660Y4371540D01*
X1774040Y4369940D01*
X1772840Y4368000D01*
X1772080Y4365860D01*
X1771800Y4363360D01*
X1771800Y4296620D01*
X1772080Y4294120D01*
X1772840Y4291980D01*
X1774040Y4290040D01*
X1775660Y4288440D01*
X1777580Y4287220D01*
X1779740Y4286480D01*
G37*
G36*
X2882220Y4286180D02*
G01*
X2937780Y4286180D01*
X2940260Y4286480D01*
X2942420Y4287220D01*
X2944340Y4288440D01*
X2945960Y4290040D01*
X2947160Y4291980D01*
X2947919Y4294120D01*
X2948200Y4296620D01*
X2948200Y4363360D01*
X2947919Y4365860D01*
X2947160Y4368000D01*
X2945960Y4369940D01*
X2944340Y4371540D01*
X2942420Y4372760D01*
X2940260Y4373500D01*
X2937780Y4373780D01*
X2882220Y4373780D01*
X2879740Y4373500D01*
X2877580Y4372760D01*
X2875659Y4371540D01*
X2874040Y4369940D01*
X2872840Y4368000D01*
X2872080Y4365860D01*
X2871800Y4363360D01*
X2871800Y4296620D01*
X2872080Y4294120D01*
X2872840Y4291980D01*
X2874040Y4290040D01*
X2875659Y4288440D01*
X2877580Y4287220D01*
X2879740Y4286480D01*
G37*
G36*
X2582220Y4286180D02*
G01*
X2637780Y4286180D01*
X2640260Y4286480D01*
X2642420Y4287220D01*
X2644340Y4288440D01*
X2645960Y4290040D01*
X2647160Y4291980D01*
X2647919Y4294120D01*
X2648200Y4296620D01*
X2648200Y4363360D01*
X2647919Y4365860D01*
X2647160Y4368000D01*
X2645960Y4369940D01*
X2644340Y4371540D01*
X2642420Y4372760D01*
X2640260Y4373500D01*
X2637780Y4373780D01*
X2582220Y4373780D01*
X2579740Y4373500D01*
X2577580Y4372760D01*
X2575659Y4371540D01*
X2574040Y4369940D01*
X2572840Y4368000D01*
X2572080Y4365860D01*
X2571800Y4363360D01*
X2571800Y4296620D01*
X2572080Y4294120D01*
X2572840Y4291980D01*
X2574040Y4290040D01*
X2575659Y4288440D01*
X2577580Y4287220D01*
X2579740Y4286480D01*
G37*
G36*
X2982220Y4286180D02*
G01*
X3037780Y4286180D01*
X3040260Y4286480D01*
X3042420Y4287220D01*
X3044340Y4288440D01*
X3045960Y4290040D01*
X3047160Y4291980D01*
X3047919Y4294120D01*
X3048200Y4296620D01*
X3048200Y4363360D01*
X3047919Y4365860D01*
X3047160Y4368000D01*
X3045960Y4369940D01*
X3044340Y4371540D01*
X3042420Y4372760D01*
X3040260Y4373500D01*
X3037780Y4373780D01*
X2982220Y4373780D01*
X2979740Y4373500D01*
X2977580Y4372760D01*
X2975659Y4371540D01*
X2974040Y4369940D01*
X2972840Y4368000D01*
X2972080Y4365860D01*
X2971800Y4363360D01*
X2971800Y4296620D01*
X2972080Y4294120D01*
X2972840Y4291980D01*
X2974040Y4290040D01*
X2975659Y4288440D01*
X2977580Y4287220D01*
X2979740Y4286480D01*
G37*
G36*
X2782220Y4286180D02*
G01*
X2837780Y4286180D01*
X2840260Y4286480D01*
X2842420Y4287220D01*
X2844340Y4288440D01*
X2845960Y4290040D01*
X2847160Y4291980D01*
X2847919Y4294120D01*
X2848200Y4296620D01*
X2848200Y4363360D01*
X2847919Y4365860D01*
X2847160Y4368000D01*
X2845960Y4369940D01*
X2844340Y4371540D01*
X2842420Y4372760D01*
X2840260Y4373500D01*
X2837780Y4373780D01*
X2782220Y4373780D01*
X2779740Y4373500D01*
X2777580Y4372760D01*
X2775659Y4371540D01*
X2774040Y4369940D01*
X2772840Y4368000D01*
X2772080Y4365860D01*
X2771800Y4363360D01*
X2771800Y4296620D01*
X2772080Y4294120D01*
X2772840Y4291980D01*
X2774040Y4290040D01*
X2775659Y4288440D01*
X2777580Y4287220D01*
X2779740Y4286480D01*
G37*
G36*
X1882220Y4286180D02*
G01*
X1937780Y4286180D01*
X1940260Y4286480D01*
X1942420Y4287220D01*
X1944340Y4288440D01*
X1945960Y4290040D01*
X1947160Y4291980D01*
X1947920Y4294120D01*
X1948200Y4296620D01*
X1948200Y4363360D01*
X1947920Y4365860D01*
X1947160Y4368000D01*
X1945960Y4369940D01*
X1944340Y4371540D01*
X1942420Y4372760D01*
X1940260Y4373500D01*
X1937780Y4373780D01*
X1882220Y4373780D01*
X1879740Y4373500D01*
X1877580Y4372760D01*
X1875660Y4371540D01*
X1874040Y4369940D01*
X1872840Y4368000D01*
X1872080Y4365860D01*
X1871800Y4363360D01*
X1871800Y4296620D01*
X1872080Y4294120D01*
X1872840Y4291980D01*
X1874040Y4290040D01*
X1875660Y4288440D01*
X1877580Y4287220D01*
X1879740Y4286480D01*
G37*
G36*
X2682220Y4286180D02*
G01*
X2737780Y4286180D01*
X2740260Y4286480D01*
X2742420Y4287220D01*
X2744340Y4288440D01*
X2745960Y4290040D01*
X2747160Y4291980D01*
X2747919Y4294120D01*
X2748200Y4296620D01*
X2748200Y4363360D01*
X2747919Y4365860D01*
X2747160Y4368000D01*
X2745960Y4369940D01*
X2744340Y4371540D01*
X2742420Y4372760D01*
X2740260Y4373500D01*
X2737780Y4373780D01*
X2682220Y4373780D01*
X2679740Y4373500D01*
X2677580Y4372760D01*
X2675659Y4371540D01*
X2674040Y4369940D01*
X2672840Y4368000D01*
X2672080Y4365860D01*
X2671800Y4363360D01*
X2671800Y4296620D01*
X2672080Y4294120D01*
X2672840Y4291980D01*
X2674040Y4290040D01*
X2675659Y4288440D01*
X2677580Y4287220D01*
X2679740Y4286480D01*
G37*
G36*
X2282220Y4286180D02*
G01*
X2337780Y4286180D01*
X2340260Y4286480D01*
X2342420Y4287220D01*
X2344340Y4288440D01*
X2345960Y4290040D01*
X2347160Y4291980D01*
X2347920Y4294120D01*
X2348200Y4296620D01*
X2348200Y4363360D01*
X2347920Y4365860D01*
X2347160Y4368000D01*
X2345960Y4369940D01*
X2344340Y4371540D01*
X2342420Y4372760D01*
X2340260Y4373500D01*
X2337780Y4373780D01*
X2282220Y4373780D01*
X2279740Y4373500D01*
X2277580Y4372760D01*
X2275660Y4371540D01*
X2274040Y4369940D01*
X2272840Y4368000D01*
X2272080Y4365860D01*
X2271800Y4363360D01*
X2271800Y4296620D01*
X2272080Y4294120D01*
X2272840Y4291980D01*
X2274040Y4290040D01*
X2275660Y4288440D01*
X2277580Y4287220D01*
X2279740Y4286480D01*
G37*
G36*
X1682220Y4286180D02*
G01*
X1737780Y4286180D01*
X1740260Y4286480D01*
X1742420Y4287220D01*
X1744340Y4288440D01*
X1745960Y4290040D01*
X1747160Y4291980D01*
X1747920Y4294120D01*
X1748200Y4296620D01*
X1748200Y4363360D01*
X1747920Y4365860D01*
X1747160Y4368000D01*
X1745960Y4369940D01*
X1744340Y4371540D01*
X1742420Y4372760D01*
X1740260Y4373500D01*
X1737780Y4373780D01*
X1682220Y4373780D01*
X1679740Y4373500D01*
X1677580Y4372760D01*
X1675660Y4371540D01*
X1674040Y4369940D01*
X1672840Y4368000D01*
X1672080Y4365860D01*
X1671800Y4363360D01*
X1671800Y4296620D01*
X1672080Y4294120D01*
X1672840Y4291980D01*
X1674040Y4290040D01*
X1675660Y4288440D01*
X1677580Y4287220D01*
X1679740Y4286480D01*
G37*
G36*
X1582220Y4286200D02*
G01*
X1637780Y4286200D01*
X1640260Y4286480D01*
X1642420Y4287220D01*
X1644340Y4288440D01*
X1645960Y4290060D01*
X1647160Y4291980D01*
X1647920Y4294140D01*
X1648200Y4296620D01*
X1648200Y4363380D01*
X1647920Y4365860D01*
X1647160Y4368000D01*
X1645960Y4369940D01*
X1644340Y4371540D01*
X1642420Y4372760D01*
X1640260Y4373520D01*
X1637780Y4373800D01*
X1582220Y4373800D01*
X1579740Y4373520D01*
X1577580Y4372760D01*
X1575660Y4371540D01*
X1574040Y4369940D01*
X1572840Y4368000D01*
X1572080Y4365860D01*
X1571800Y4363380D01*
X1571800Y4296620D01*
X1572080Y4294140D01*
X1572840Y4291980D01*
X1574040Y4290060D01*
X1575660Y4288440D01*
X1577580Y4287220D01*
X1579740Y4286480D01*
G37*
G36*
X3854500Y4287460D02*
G01*
X3854500Y4306100D01*
X3835860Y4306100D01*
X3836120Y4305480D01*
X3838860Y4300860D01*
X3842200Y4296640D01*
X3846060Y4292900D01*
X3850380Y4289720D01*
G37*
G36*
X3889500Y4287520D02*
G01*
X3891320Y4288360D01*
X3895840Y4291240D01*
X3899940Y4294700D01*
X3903540Y4298700D01*
X3906580Y4303120D01*
X3908080Y4306100D01*
X3889500Y4306100D01*
G37*
G36*
X3889500Y4341100D02*
G01*
X3908080Y4341100D01*
X3906580Y4344080D01*
X3903540Y4348500D01*
X3899940Y4352480D01*
X3895840Y4355960D01*
X3891320Y4358840D01*
X3889500Y4359680D01*
G37*
G36*
X3835860Y4341100D02*
G01*
X3854500Y4341100D01*
X3854500Y4359740D01*
X3850380Y4357480D01*
X3846060Y4354300D01*
X3842200Y4350560D01*
X3838860Y4346340D01*
X3836120Y4341720D01*
G37*
G36*
X2171800Y4349280D02*
G01*
X2193500Y4349280D01*
X2193500Y4373780D01*
X2182220Y4373780D01*
X2179740Y4373500D01*
X2177580Y4372760D01*
X2175660Y4371540D01*
X2174040Y4369940D01*
X2172840Y4368000D01*
X2172080Y4365860D01*
X2171800Y4363360D01*
G37*
G36*
X2071800Y4349280D02*
G01*
X2093500Y4349280D01*
X2093500Y4373780D01*
X2082220Y4373780D01*
X2079740Y4373500D01*
X2077580Y4372760D01*
X2075660Y4371540D01*
X2074040Y4369940D01*
X2072840Y4368000D01*
X2072080Y4365860D01*
X2071800Y4363360D01*
G37*
G36*
X2226500Y4349280D02*
G01*
X2248200Y4349280D01*
X2248200Y4363360D01*
X2247920Y4365860D01*
X2247160Y4368000D01*
X2245960Y4369940D01*
X2244340Y4371540D01*
X2242420Y4372760D01*
X2240260Y4373500D01*
X2237780Y4373780D01*
X2226500Y4373780D01*
G37*
G36*
X2126500Y4349280D02*
G01*
X2148200Y4349280D01*
X2148200Y4363360D01*
X2147920Y4365860D01*
X2147160Y4368000D01*
X2145960Y4369940D01*
X2144340Y4371540D01*
X2142420Y4372760D01*
X2140260Y4373500D01*
X2137780Y4373780D01*
X2126500Y4373780D01*
G37*
G36*
X5620740Y4382840D02*
G01*
X5626100Y4383020D01*
X5631400Y4383900D01*
X5636520Y4385500D01*
X5641400Y4387760D01*
X5645920Y4390640D01*
X5650019Y4394100D01*
X5653620Y4398100D01*
X5656660Y4402520D01*
X5659080Y4407300D01*
X5660839Y4412380D01*
X5661920Y4417640D01*
X5662279Y4423000D01*
X5661920Y4428360D01*
X5660839Y4433620D01*
X5659080Y4438700D01*
X5656660Y4443480D01*
X5653620Y4447900D01*
X5650019Y4451900D01*
X5645920Y4455360D01*
X5641400Y4458240D01*
X5636520Y4460500D01*
X5631400Y4462100D01*
X5626100Y4462980D01*
X5620740Y4463160D01*
X5615400Y4462640D01*
X5610180Y4461380D01*
X5605160Y4459460D01*
X5600460Y4456880D01*
X5596140Y4453700D01*
X5592279Y4449960D01*
X5588940Y4445740D01*
X5586200Y4441120D01*
X5584120Y4436180D01*
X5582700Y4431000D01*
X5581980Y4425680D01*
X5581980Y4420320D01*
X5582700Y4415000D01*
X5584120Y4409820D01*
X5586200Y4404880D01*
X5588940Y4400260D01*
X5592279Y4396040D01*
X5596140Y4392300D01*
X5600460Y4389120D01*
X5605160Y4386540D01*
X5610180Y4384620D01*
X5615400Y4383360D01*
G37*
G36*
X4370740Y4382840D02*
G01*
X4376100Y4383020D01*
X4381400Y4383900D01*
X4386520Y4385500D01*
X4391400Y4387760D01*
X4395920Y4390640D01*
X4400020Y4394100D01*
X4403620Y4398100D01*
X4406660Y4402520D01*
X4409080Y4407300D01*
X4410840Y4412380D01*
X4411920Y4417640D01*
X4412280Y4423000D01*
X4411920Y4428360D01*
X4410840Y4433620D01*
X4409080Y4438700D01*
X4406660Y4443480D01*
X4403620Y4447900D01*
X4400020Y4451900D01*
X4395920Y4455360D01*
X4391400Y4458240D01*
X4386520Y4460500D01*
X4381400Y4462100D01*
X4376100Y4462980D01*
X4370740Y4463160D01*
X4365400Y4462640D01*
X4360180Y4461380D01*
X4355160Y4459460D01*
X4350460Y4456880D01*
X4346140Y4453700D01*
X4342280Y4449960D01*
X4338940Y4445740D01*
X4336200Y4441120D01*
X4334120Y4436180D01*
X4332700Y4431000D01*
X4331980Y4425680D01*
X4331980Y4420320D01*
X4332700Y4415000D01*
X4334120Y4409820D01*
X4336200Y4404880D01*
X4338940Y4400260D01*
X4342280Y4396040D01*
X4346140Y4392300D01*
X4350460Y4389120D01*
X4355160Y4386540D01*
X4360180Y4384620D01*
X4365400Y4383360D01*
G37*
G36*
X3870659Y4382860D02*
G01*
X3876019Y4383040D01*
X3881320Y4383940D01*
X3886440Y4385520D01*
X3891320Y4387780D01*
X3895840Y4390680D01*
X3899940Y4394140D01*
X3903540Y4398120D01*
X3906580Y4402540D01*
X3909000Y4407340D01*
X3910760Y4412400D01*
X3911840Y4417680D01*
X3912200Y4423020D01*
X3911840Y4428380D01*
X3910760Y4433640D01*
X3909000Y4438720D01*
X3906580Y4443500D01*
X3903540Y4447940D01*
X3899940Y4451920D01*
X3895840Y4455380D01*
X3891320Y4458280D01*
X3886440Y4460540D01*
X3881320Y4462120D01*
X3876019Y4463020D01*
X3870659Y4463200D01*
X3865320Y4462660D01*
X3860100Y4461420D01*
X3855080Y4459480D01*
X3850380Y4456900D01*
X3846060Y4453720D01*
X3842200Y4449980D01*
X3838860Y4445780D01*
X3836120Y4441160D01*
X3834040Y4436220D01*
X3832620Y4431040D01*
X3831900Y4425720D01*
X3831900Y4420340D01*
X3832620Y4415020D01*
X3834040Y4409840D01*
X3836120Y4404900D01*
X3838860Y4400280D01*
X3842200Y4396060D01*
X3846060Y4392340D01*
X3850380Y4389160D01*
X3855080Y4386580D01*
X3860100Y4384640D01*
X3865320Y4383400D01*
G37*
G36*
X1171520Y4641120D02*
G01*
X1277540Y4641120D01*
X1282540Y4641460D01*
X1287320Y4642460D01*
X1291940Y4644100D01*
X1296260Y4646340D01*
X1300260Y4649160D01*
X1303820Y4652480D01*
X1306900Y4656280D01*
X1309440Y4660440D01*
X1311399Y4664920D01*
X1312700Y4669640D01*
X1313380Y4674460D01*
X1313380Y4679360D01*
X1312700Y4684180D01*
X1311399Y4688900D01*
X1309440Y4693380D01*
X1306900Y4697540D01*
X1303820Y4701340D01*
X1300260Y4704660D01*
X1296260Y4707480D01*
X1291940Y4709720D01*
X1287320Y4711360D01*
X1282540Y4712360D01*
X1277540Y4712700D01*
X1171520Y4712700D01*
X1166500Y4712360D01*
X1161720Y4711360D01*
X1157120Y4709720D01*
X1152780Y4707480D01*
X1148800Y4704660D01*
X1145220Y4701340D01*
X1142140Y4697540D01*
X1139600Y4693380D01*
X1137660Y4688900D01*
X1136340Y4684180D01*
X1135680Y4679360D01*
X1135680Y4674460D01*
X1136340Y4669640D01*
X1137660Y4664920D01*
X1139600Y4660440D01*
X1142140Y4656280D01*
X1145220Y4652480D01*
X1148800Y4649160D01*
X1152780Y4646340D01*
X1157120Y4644100D01*
X1161720Y4642460D01*
X1166500Y4641460D01*
G37*
G36*
X1020260Y4689900D02*
G01*
X1020260Y4733460D01*
X999760Y4733460D01*
X999760Y4722320D01*
X1000100Y4717320D01*
X1001100Y4712540D01*
X1002740Y4707920D01*
X1004980Y4703600D01*
X1007800Y4699600D01*
X1011140Y4696040D01*
X1014920Y4692960D01*
X1019100Y4690420D01*
G37*
G36*
X1050860Y4689900D02*
G01*
X1052020Y4690420D01*
X1056180Y4692960D01*
X1059980Y4696040D01*
X1063320Y4699600D01*
X1066120Y4703600D01*
X1068380Y4707920D01*
X1070000Y4712540D01*
X1071000Y4717320D01*
X1071340Y4722320D01*
X1071340Y4733460D01*
X1050860Y4733460D01*
G37*
G36*
X999760Y4817200D02*
G01*
X1020260Y4817200D01*
X1020260Y4860760D01*
X1019100Y4860260D01*
X1014920Y4857720D01*
X1011140Y4854640D01*
X1007800Y4851060D01*
X1004980Y4847080D01*
X1002740Y4842740D01*
X1001100Y4838140D01*
X1000100Y4833360D01*
X999760Y4828340D01*
G37*
G36*
X1050860Y4817200D02*
G01*
X1071340Y4817200D01*
X1071340Y4828340D01*
X1071000Y4833360D01*
X1070000Y4838140D01*
X1068380Y4842740D01*
X1066120Y4847080D01*
X1063320Y4851060D01*
X1059980Y4854640D01*
X1056180Y4857720D01*
X1052020Y4860260D01*
X1050860Y4860760D01*
G37*
G36*
X1171520Y4877340D02*
G01*
X1182660Y4877340D01*
X1182660Y4897840D01*
X1139100Y4897840D01*
X1139600Y4896660D01*
X1142140Y4892500D01*
X1145220Y4888700D01*
X1148800Y4885380D01*
X1152780Y4882560D01*
X1157120Y4880320D01*
X1161720Y4878680D01*
X1166500Y4877680D01*
G37*
G36*
X1266400Y4877340D02*
G01*
X1277540Y4877340D01*
X1282540Y4877680D01*
X1287320Y4878680D01*
X1291940Y4880320D01*
X1296260Y4882560D01*
X1300260Y4885380D01*
X1303820Y4888700D01*
X1306900Y4892500D01*
X1309440Y4896660D01*
X1309960Y4897840D01*
X1266400Y4897840D01*
G37*
G36*
X1266400Y4928420D02*
G01*
X1309960Y4928420D01*
X1309440Y4929600D01*
X1306900Y4933760D01*
X1303820Y4937560D01*
X1300260Y4940880D01*
X1296260Y4943700D01*
X1291940Y4945940D01*
X1287320Y4947580D01*
X1282540Y4948580D01*
X1277540Y4948920D01*
X1266400Y4948920D01*
G37*
G36*
X1139100Y4928420D02*
G01*
X1182660Y4928420D01*
X1182660Y4948920D01*
X1171520Y4948920D01*
X1166500Y4948580D01*
X1161720Y4947580D01*
X1157120Y4945940D01*
X1152780Y4943700D01*
X1148800Y4940880D01*
X1145220Y4937560D01*
X1142140Y4933760D01*
X1139600Y4929600D01*
G37*

%LPD*%
D10*
X1505000Y1615000D02*
G01*
X2060000Y1615000D01*
X1685000Y1510000D02*
G01*
X2055000Y1510000D01*
X2060000Y1515000D01*
X2445000Y1815000D02*
G01*
X2060000Y1815000D01*
X3590000Y2125000D02*
G01*
X3315000Y2125000D01*
X2755000Y1565000D01*
X2210000Y1565000D01*
X2060000Y1415000D01*
X4372079Y4323570D02*
G01*
X4423509Y4375000D01*
X5570649Y4375000D01*
X5622079Y4323570D01*
X4372079Y3073569D02*
G01*
X4418509Y3120000D01*
X5575649Y3120000D01*
X5622079Y3073569D01*
X4372079Y4224140D02*
G01*
X4422939Y4275000D01*
X5571220Y4275000D01*
X5622079Y4224140D01*
X4372079Y2974140D02*
G01*
X4422939Y3025000D01*
X5571220Y3025000D01*
X5622079Y2974140D01*
X4372079Y2775279D02*
G01*
X4401800Y2805000D01*
X4940000Y2805000D01*
X4960000Y2825000D01*
X5572359Y2825000D01*
X5622079Y2775279D01*
X4372079Y4025279D02*
G01*
X4401800Y4055000D01*
X5060000Y4055000D01*
X5080000Y4075000D01*
X5572359Y4075000D01*
X5622079Y4025279D01*
X6090000Y3140000D02*
G01*
X6095000Y3145000D01*
X6095000Y4345000D01*
X5885000Y2885000D02*
G01*
X5915000Y2915000D01*
X5910000Y4009953D01*
X5910000Y4140000D01*
X5795000Y2980000D02*
G01*
X5745000Y3030000D01*
X5745000Y4240000D01*
X5121999Y2576460D02*
G01*
X5070540Y2525000D01*
X4325000Y2525000D01*
X4273540Y2576460D01*
X3871999Y2576460D01*
X3871999Y2576460D02*
G01*
X3725000Y2723460D01*
X3725000Y3080000D01*
X2055005Y2195000D02*
G01*
X5815000Y2195000D01*
X6090000Y2470000D01*
X6090000Y3140000D01*
X1885000Y2230000D02*
G01*
X5675000Y2230000D01*
X5885000Y2440000D01*
X5885000Y2885000D01*
X4372079Y4124710D02*
G01*
X4170000Y3922629D01*
X4170000Y3590000D01*
X4115000Y3535000D01*
X2370000Y3535000D01*
X5795000Y2980000D02*
G01*
X5795000Y2425000D01*
X5750000Y2380000D01*
X5665000Y2380000D01*
X5545000Y2260000D01*
X1725000Y2260000D01*
X1650000Y2335000D01*
X1650000Y2430005D01*
X5365000Y4020000D02*
G01*
X5340000Y3995000D01*
X5340000Y3705000D01*
X5140000Y3505000D01*
X1970000Y3505000D01*
X1950000Y3485000D01*
X1950000Y3030000D01*
X2310000Y2670000D01*
X2310000Y2430005D01*
X5515000Y3285000D02*
G01*
X5325000Y3475000D01*
X2105000Y3475000D01*
X2065000Y3435000D01*
X2065000Y3355000D01*
X2410000Y3010000D01*
X2410000Y2430005D01*
X4372079Y2874710D02*
G01*
X4120000Y3126790D01*
X4120000Y3225000D01*
X3900000Y3445000D01*
X2235000Y3445000D01*
X2195000Y3405000D01*
X2195000Y3350000D01*
X2510000Y3035000D01*
X2510000Y2430005D01*
X3871999Y3826460D02*
G01*
X2163535Y3826460D01*
X2010000Y3979994D01*
X2010000Y4329994D01*
D11*
G01*
X2150000Y2429994D03*
G01*
X2050000Y2430000D03*
G01*
X1950000Y2430000D03*
G01*
X1850000Y2430000D03*
G01*
X1750000Y2430000D03*
G01*
X1650000Y2430000D03*
G01*
X1550000Y2430000D03*
G01*
X1450000Y2430000D03*
G01*
X1350000Y2430000D03*
G01*
X1250000Y2430000D03*
G01*
X3009994Y2430000D03*
G01*
X2909994Y2430000D03*
G01*
X2809994Y2430000D03*
G01*
X2709994Y2429994D03*
G01*
X2609994Y2429994D03*
G01*
X2510000Y2429994D03*
G01*
X2410000Y2429994D03*
G01*
X2310000Y2429994D03*
D12*
G01*
X2510000Y4329990D03*
G01*
X2610000Y4329990D03*
G01*
X2710000Y4329990D03*
G01*
X2810000Y4329990D03*
G01*
X2910000Y4329990D03*
G01*
X3010000Y4329990D03*
G01*
X1610000Y4329995D03*
G01*
X1710000Y4329990D03*
G01*
X1810000Y4329990D03*
G01*
X1910000Y4329990D03*
G01*
X2010000Y4329990D03*
G01*
X2110000Y4329990D03*
G01*
X2210000Y4329990D03*
G01*
X2310000Y4329990D03*
D13*
G01*
X2060000Y1315000D03*
G01*
X2060000Y1415000D03*
G01*
X2060000Y1515000D03*
G01*
X2060000Y1615000D03*
G01*
X2060000Y1715000D03*
G01*
X2060000Y1815000D03*
D14*
G01*
X1035550Y4775340D03*
D15*
G01*
X1224530Y4913130D03*
G01*
X1224530Y4676909D03*
D16*
G01*
X3580000Y3905000D03*
D17*
G01*
X3580000Y4005000D03*
G01*
X3580000Y4105000D03*
G01*
X3580000Y4205000D03*
D16*
G01*
X3580000Y2655000D03*
D17*
G01*
X3580000Y2755000D03*
G01*
X3580000Y2855000D03*
G01*
X3580000Y2955000D03*
D16*
G01*
X4830000Y3905000D03*
D17*
G01*
X4830000Y4005000D03*
G01*
X4830000Y4105000D03*
G01*
X4830000Y4205000D03*
D16*
G01*
X4830000Y2655000D03*
D17*
G01*
X4830000Y2755000D03*
G01*
X4830000Y2855000D03*
G01*
X4830000Y2955000D03*
D18*
G01*
X4372079Y3726999D03*
G01*
X4372079Y3826430D03*
G01*
X4372079Y3925859D03*
G01*
X4372079Y4025279D03*
G01*
X4372079Y4124710D03*
G01*
X4372079Y4224140D03*
G01*
X4372079Y4323570D03*
G01*
X4372079Y4423000D03*
G01*
X3871999Y3727029D03*
G01*
X3871999Y3826460D03*
G01*
X3871999Y3925880D03*
G01*
X3871999Y4025309D03*
G01*
X3871999Y4124740D03*
G01*
X3871999Y4224169D03*
G01*
X3871999Y4323600D03*
G01*
X3871999Y4423029D03*
G01*
X4372079Y2476999D03*
G01*
X4372079Y2576430D03*
G01*
X4372079Y2675859D03*
G01*
X4372079Y2775279D03*
G01*
X4372079Y2874710D03*
G01*
X4372079Y2974140D03*
G01*
X4372079Y3073569D03*
G01*
X4372079Y3173000D03*
G01*
X3871999Y2477029D03*
G01*
X3871999Y2576460D03*
G01*
X3871999Y2675880D03*
G01*
X3871999Y2775309D03*
G01*
X3871999Y2874740D03*
G01*
X3871999Y2974169D03*
G01*
X3871999Y3073600D03*
G01*
X3871999Y3173029D03*
G01*
X5622079Y3726999D03*
G01*
X5622079Y3826430D03*
G01*
X5622079Y3925859D03*
G01*
X5622079Y4025279D03*
G01*
X5622079Y4124710D03*
G01*
X5622079Y4224140D03*
G01*
X5622079Y4323570D03*
G01*
X5622079Y4423000D03*
G01*
X5121999Y3727029D03*
G01*
X5121999Y3826460D03*
G01*
X5121999Y3925880D03*
G01*
X5121999Y4025309D03*
G01*
X5121999Y4124740D03*
G01*
X5121999Y4224169D03*
G01*
X5121999Y4323600D03*
G01*
X5121999Y4423029D03*
G01*
X5622079Y2476999D03*
G01*
X5622079Y2576430D03*
G01*
X5622079Y2675859D03*
G01*
X5622079Y2775279D03*
G01*
X5622079Y2874710D03*
G01*
X5622079Y2974140D03*
G01*
X5622079Y3073569D03*
G01*
X5622079Y3173000D03*
G01*
X5121999Y2477029D03*
G01*
X5121999Y2576460D03*
G01*
X5121999Y2675880D03*
G01*
X5121999Y2775309D03*
G01*
X5121999Y2874740D03*
G01*
X5121999Y2974169D03*
G01*
X5121999Y3073600D03*
G01*
X5121999Y3173029D03*
D19*
G01*
X5365000Y4020000D03*
G01*
X5515000Y3285000D03*
G01*
X5885000Y2885000D03*
G01*
X5795000Y2980000D03*
G01*
X6090000Y3140000D03*
G01*
X5745000Y4240000D03*
G01*
X6095000Y4345000D03*
G01*
X5910000Y4140000D03*
G01*
X3725000Y3080000D03*
G01*
X3590000Y2125000D03*
G01*
X1885000Y2230000D03*
G01*
X2055010Y2195000D03*
G01*
X2370000Y3535000D03*
G01*
X1685000Y1510000D03*
G01*
X1505000Y1615000D03*
G01*
X2445000Y1815000D03*
M02*
