G04 Layer: TopSolderMaskLayer*
G04 EasyEDA v6.5.34, 2023-10-02 14:14:04*
G04 f8cec7c47a1a460abc9a27ceab174a81,9d3d63f08f7d425b882531a970cedf0e,10*
G04 Gerber Generator version 0.2*
G04 Scale: 100 percent, Rotated: No, Reflected: No *
G04 Dimensions in inches *
G04 leading zeros omitted , absolute positions ,3 integer and 6 decimal *
%FSLAX36Y36*%
%MOIN*%

%AMMACRO1*1,1,$1,$2,$3*1,1,$1,$4,$5*1,1,$1,0-$2,0-$3*1,1,$1,0-$4,0-$5*20,1,$1,$2,$3,$4,$5,0*20,1,$1,$4,$5,0-$2,0-$3,0*20,1,$1,0-$2,0-$3,0-$4,0-$5,0*20,1,$1,0-$4,0-$5,$2,$3,0*4,1,4,$2,$3,$4,$5,0-$2,0-$3,0-$4,0-$5,$2,$3,0*%
%ADD10MACRO1,0.004X0.028X-0.0336X0.028X0.0336*%
%ADD11MACRO1,0.004X-0.028X0.0336X-0.028X-0.0336*%
%ADD12R,0.0600X0.0712*%
%ADD13C,0.0780*%
%ADD14O,0.05518100000000001X0.16147999999999998*%
%ADD15O,0.16147999999999998X0.05518100000000001*%
%ADD16MACRO1,0.004X-0.0335X-0.0335X-0.0335X0.0335*%
%ADD17C,0.0709*%
%ADD18C,0.0640*%

%LPD*%
D10*
G01*
X2150000Y2429994D03*
G01*
X2050000Y2430000D03*
G01*
X1950000Y2430000D03*
G01*
X1850000Y2430000D03*
G01*
X1750000Y2430000D03*
G01*
X1650000Y2430000D03*
G01*
X1550000Y2430000D03*
G01*
X1450000Y2430000D03*
G01*
X1350000Y2430000D03*
G01*
X1250000Y2430000D03*
G01*
X3009994Y2430000D03*
G01*
X2909994Y2430000D03*
G01*
X2809994Y2430000D03*
G01*
X2709994Y2429994D03*
G01*
X2609994Y2429994D03*
G01*
X2510000Y2429994D03*
G01*
X2410000Y2429994D03*
G01*
X2310000Y2429994D03*
D11*
G01*
X2510000Y4329990D03*
G01*
X2610000Y4329990D03*
G01*
X2710000Y4329990D03*
G01*
X2810000Y4329990D03*
G01*
X2910000Y4329990D03*
G01*
X3010000Y4329990D03*
D12*
G01*
X1610000Y4330000D03*
D11*
G01*
X1710000Y4329990D03*
G01*
X1810000Y4329990D03*
G01*
X1910000Y4329990D03*
G01*
X2010000Y4329990D03*
G01*
X2110000Y4329990D03*
G01*
X2210000Y4329990D03*
G01*
X2310000Y4329990D03*
D13*
G01*
X2060000Y1315000D03*
G01*
X2060000Y1415000D03*
G01*
X2060000Y1515000D03*
G01*
X2060000Y1615000D03*
G01*
X2060000Y1715000D03*
G01*
X2060000Y1815000D03*
D14*
G01*
X1035550Y4775340D03*
D15*
G01*
X1224530Y4913130D03*
G01*
X1224530Y4676909D03*
D16*
G01*
X3580000Y3905000D03*
D17*
G01*
X3580000Y4005000D03*
G01*
X3580000Y4105000D03*
G01*
X3580000Y4205000D03*
D16*
G01*
X3580000Y2655000D03*
D17*
G01*
X3580000Y2755000D03*
G01*
X3580000Y2855000D03*
G01*
X3580000Y2955000D03*
D16*
G01*
X4830000Y3905000D03*
D17*
G01*
X4830000Y4005000D03*
G01*
X4830000Y4105000D03*
G01*
X4830000Y4205000D03*
D16*
G01*
X4830000Y2655000D03*
D17*
G01*
X4830000Y2755000D03*
G01*
X4830000Y2855000D03*
G01*
X4830000Y2955000D03*
D18*
G01*
X4372079Y3726999D03*
G01*
X4372079Y3826430D03*
G01*
X4372079Y3925859D03*
G01*
X4372079Y4025279D03*
G01*
X4372079Y4124710D03*
G01*
X4372079Y4224140D03*
G01*
X4372079Y4323570D03*
G01*
X4372079Y4423000D03*
G01*
X3871999Y3727029D03*
G01*
X3871999Y3826460D03*
G01*
X3871999Y3925880D03*
G01*
X3871999Y4025309D03*
G01*
X3871999Y4124740D03*
G01*
X3871999Y4224169D03*
G01*
X3871999Y4323600D03*
G01*
X3871999Y4423029D03*
G01*
X4372079Y2476999D03*
G01*
X4372079Y2576430D03*
G01*
X4372079Y2675859D03*
G01*
X4372079Y2775279D03*
G01*
X4372079Y2874710D03*
G01*
X4372079Y2974140D03*
G01*
X4372079Y3073569D03*
G01*
X4372079Y3173000D03*
G01*
X3871999Y2477029D03*
G01*
X3871999Y2576460D03*
G01*
X3871999Y2675880D03*
G01*
X3871999Y2775309D03*
G01*
X3871999Y2874740D03*
G01*
X3871999Y2974169D03*
G01*
X3871999Y3073600D03*
G01*
X3871999Y3173029D03*
G01*
X5622079Y3726999D03*
G01*
X5622079Y3826430D03*
G01*
X5622079Y3925859D03*
G01*
X5622079Y4025279D03*
G01*
X5622079Y4124710D03*
G01*
X5622079Y4224140D03*
G01*
X5622079Y4323570D03*
G01*
X5622079Y4423000D03*
G01*
X5121999Y3727029D03*
G01*
X5121999Y3826460D03*
G01*
X5121999Y3925880D03*
G01*
X5121999Y4025309D03*
G01*
X5121999Y4124740D03*
G01*
X5121999Y4224169D03*
G01*
X5121999Y4323600D03*
G01*
X5121999Y4423029D03*
G01*
X5622079Y2476999D03*
G01*
X5622079Y2576430D03*
G01*
X5622079Y2675859D03*
G01*
X5622079Y2775279D03*
G01*
X5622079Y2874710D03*
G01*
X5622079Y2974140D03*
G01*
X5622079Y3073569D03*
G01*
X5622079Y3173000D03*
G01*
X5121999Y2477029D03*
G01*
X5121999Y2576460D03*
G01*
X5121999Y2675880D03*
G01*
X5121999Y2775309D03*
G01*
X5121999Y2874740D03*
G01*
X5121999Y2974169D03*
G01*
X5121999Y3073600D03*
G01*
X5121999Y3173029D03*
M02*
