G04 Layer: BottomSilkscreenLayer*
G04 EasyEDA v6.5.34, 2023-10-02 14:14:04*
G04 f8cec7c47a1a460abc9a27ceab174a81,9d3d63f08f7d425b882531a970cedf0e,10*
G04 Gerber Generator version 0.2*
G04 Scale: 100 percent, Rotated: No, Reflected: No *
G04 Dimensions in inches *
G04 leading zeros omitted , absolute positions ,3 integer and 6 decimal *
%FSLAX36Y36*%
%MOIN*%

%ADD10C,0.0060*%
%ADD11C,0.0100*%
%ADD12C,0.0100*%

%LPD*%
G36*
X4965700Y9138840D02*
G01*
X4642120Y9101040D01*
X4354340Y9051680D01*
X4116300Y8997700D01*
X3871380Y8927760D01*
X3651139Y8852320D01*
X3368020Y8739320D01*
X2983759Y8546840D01*
X2690500Y8366000D01*
X2498380Y8230420D01*
X2265800Y8050160D01*
X2063560Y7878640D01*
X1606980Y7412740D01*
X1415160Y7175019D01*
X1262840Y6968300D01*
X1113860Y6740920D01*
X975460Y6503200D01*
X826900Y6203440D01*
X716200Y5934260D01*
X621220Y5655640D01*
X543980Y5376580D01*
X491320Y5128520D01*
X452160Y4890780D01*
X417939Y4591040D01*
X402060Y4218960D01*
X407881Y3957040D01*
X420340Y3957040D01*
X423220Y4394660D01*
X439000Y4611720D01*
X462480Y4839100D01*
X521540Y5200860D01*
X614100Y5583300D01*
X693400Y5825940D01*
X792620Y6079420D01*
X903760Y6329820D01*
X1039659Y6584500D01*
X1120600Y6720240D01*
X1292600Y6978640D01*
X1429740Y7164680D01*
X1564180Y7330060D01*
X1810760Y7606540D01*
X2091980Y7875040D01*
X2326460Y8074340D01*
X2518600Y8221480D01*
X2761280Y8386360D01*
X2991620Y8525400D01*
X3307340Y8687360D01*
X3578159Y8803500D01*
X3924180Y8924400D01*
X4247760Y9008440D01*
X4561220Y9070200D01*
X4814040Y9102360D01*
X5036500Y9123460D01*
X5481440Y9136380D01*
X5916260Y9111800D01*
X6232840Y9071780D01*
X6512859Y9019360D01*
X6836600Y8938060D01*
X7099360Y8852460D01*
X7404000Y8730640D01*
X7786980Y8537500D01*
X8032800Y8391220D01*
X8282460Y8220599D01*
X8484700Y8065140D01*
X8676840Y7901960D01*
X8956100Y7640580D01*
X9225460Y7340400D01*
X9335200Y7206040D01*
X9447000Y7061319D01*
X9623660Y6803840D01*
X9736800Y6616880D01*
X9863560Y6385359D01*
X10009280Y6069080D01*
X10119120Y5781220D01*
X10217160Y5448900D01*
X10278540Y5180200D01*
X10329040Y4880460D01*
X10360180Y4611720D01*
X10380700Y4294820D01*
X10380700Y3999940D01*
X10359940Y3671160D01*
X10329300Y3402420D01*
X10278360Y3092340D01*
X10198780Y2758680D01*
X10105680Y2461840D01*
X9987960Y2162100D01*
X9874180Y1916900D01*
X9720420Y1634980D01*
X9548900Y1366240D01*
X9383160Y1138840D01*
X9216980Y932140D01*
X8949860Y642720D01*
X8686940Y390959D01*
X8492060Y227079D01*
X8262240Y51940D01*
X8049880Y-92860D01*
X7817300Y-233800D01*
X7463400Y-415040D01*
X7214220Y-521580D01*
X6856660Y-643379D01*
X6534440Y-726720D01*
X6199380Y-788319D01*
X5956680Y-819260D01*
X5683680Y-844100D01*
X5107280Y-843940D01*
X4834260Y-818900D01*
X4521620Y-777600D01*
X4257880Y-725380D01*
X3974720Y-653199D01*
X3742160Y-579560D01*
X3502320Y-488579D01*
X3287120Y-393180D01*
X3024200Y-259120D01*
X2811860Y-135120D01*
X2468040Y98840D01*
X2252660Y270820D01*
X1997880Y493960D01*
X1692040Y808100D01*
X1464780Y1076840D01*
X1309800Y1280240D01*
X1091640Y1614300D01*
X974539Y1825900D01*
X1055880Y1920360D01*
X1087740Y2015920D01*
X1087560Y2151780D01*
X1039860Y2255120D01*
X961360Y2335480D01*
X857520Y2384740D01*
X720840Y2391800D01*
X682640Y2492860D01*
X601080Y2761580D01*
X522660Y3082000D01*
X471320Y3381740D01*
X441380Y3640140D01*
X420340Y3957040D01*
X407881Y3957040D01*
X411019Y3815860D01*
X431719Y3547120D01*
X470720Y3259600D01*
X542940Y2897720D01*
X631500Y2585140D01*
X701220Y2388300D01*
X599520Y2340620D01*
X515360Y2254580D01*
X466140Y2151780D01*
X466295Y2131100D01*
X480680Y2131100D01*
X508980Y2208660D01*
X562520Y2280380D01*
X628740Y2332020D01*
X708560Y2366600D01*
X850699Y2368320D01*
X966180Y2310560D01*
X1036760Y2222520D01*
X1067520Y2147260D01*
X1067080Y1996740D01*
X1029400Y1911960D01*
X952980Y1833839D01*
X841760Y1781800D01*
X695460Y1783340D01*
X613040Y1826320D01*
X540400Y1891519D01*
X488160Y1996740D01*
X480680Y2131100D01*
X466295Y2131100D01*
X467360Y1986399D01*
X503760Y1914040D01*
X572140Y1827740D01*
X696620Y1764180D01*
X856480Y1764180D01*
X956900Y1808340D01*
X963139Y1800340D01*
X1101100Y1562620D01*
X1277040Y1293899D01*
X1465260Y1045819D01*
X1637660Y839100D01*
X2033220Y434780D01*
X2295560Y212420D01*
X2518600Y40820D01*
X2764300Y-126500D01*
X3054000Y-296380D01*
X3357900Y-445160D01*
X3614580Y-551060D01*
X3914060Y-652220D01*
X4146640Y-715620D01*
X4338780Y-759180D01*
X4561220Y-800320D01*
X4783700Y-830480D01*
X5136840Y-861160D01*
X5663440Y-861100D01*
X5936460Y-840340D01*
X6270160Y-797720D01*
X6624080Y-726340D01*
X6856660Y-663360D01*
X7170140Y-558860D01*
X7422940Y-456160D01*
X7786980Y-275940D01*
X8039760Y-123800D01*
X8280780Y39820D01*
X8434140Y155360D01*
X8636380Y322020D01*
X8899300Y562540D01*
X9141980Y818900D01*
X9316100Y1025160D01*
X9513100Y1283560D01*
X9740240Y1634980D01*
X9832140Y1800340D01*
X9994360Y2131720D01*
X10126040Y2472180D01*
X10209940Y2740920D01*
X10298640Y3106280D01*
X10349840Y3423080D01*
X10380460Y3702160D01*
X10402080Y4153560D01*
X10380239Y4591040D01*
X10350340Y4870120D01*
X10308200Y5128520D01*
X10259360Y5360760D01*
X10198000Y5593640D01*
X10084440Y5934720D01*
X9956680Y6239840D01*
X9835080Y6483620D01*
X9666280Y6773200D01*
X9501920Y7019980D01*
X9328520Y7247380D01*
X9076980Y7538420D01*
X8777840Y7836520D01*
X8575700Y8013740D01*
X8353240Y8189660D01*
X8145640Y8338960D01*
X7830740Y8533980D01*
X7453280Y8726500D01*
X7139800Y8852600D01*
X6950340Y8917060D01*
X6706720Y8989420D01*
X6492619Y9039700D01*
X6218099Y9091420D01*
X5845460Y9138140D01*
G37*
G36*
X5572440Y8650660D02*
G01*
X4996040Y8638680D01*
X4712920Y8605660D01*
X4470220Y8563960D01*
X4288200Y8523420D01*
X4055640Y8462260D01*
X3792720Y8371580D01*
X3552960Y8274220D01*
X3307340Y8155400D01*
X3064660Y8014520D01*
X2832080Y7860119D01*
X2650059Y7723140D01*
X2488280Y7589160D01*
X2201360Y7324059D01*
X2004920Y7113000D01*
X1799379Y6864940D01*
X1677620Y6699580D01*
X1515460Y6451500D01*
X1399600Y6246360D01*
X1270960Y5983940D01*
X1170080Y5738339D01*
X1080240Y5469600D01*
X1017520Y5242200D01*
X947280Y4880460D01*
X914640Y4611720D01*
X898500Y4394660D01*
X895720Y3908880D01*
X896961Y3894500D01*
X915840Y3894500D01*
X918640Y4446340D01*
X935180Y4642720D01*
X968080Y4901120D01*
X1018000Y5169860D01*
X1087700Y5441040D01*
X1175740Y5707320D01*
X1283460Y5974320D01*
X1422740Y6255119D01*
X1573899Y6513520D01*
X1760200Y6784360D01*
X1880360Y6937300D01*
X2066040Y7154360D01*
X2417600Y7505780D01*
X2720840Y7754360D01*
X2943320Y7911200D01*
X3165779Y8051280D01*
X3469120Y8212859D01*
X3762380Y8339700D01*
X4085960Y8450260D01*
X4409540Y8533400D01*
X4702800Y8585220D01*
X4996040Y8621900D01*
X5784800Y8622060D01*
X6078040Y8585320D01*
X6320740Y8544080D01*
X6553300Y8491740D01*
X6765640Y8429760D01*
X6927440Y8376340D01*
X7230820Y8253520D01*
X7534200Y8100960D01*
X7776860Y7953740D01*
X7989220Y7806940D01*
X8221799Y7626580D01*
X8403800Y7468620D01*
X8725460Y7144020D01*
X8950920Y6875280D01*
X9103060Y6668560D01*
X9229700Y6475480D01*
X9361720Y6244800D01*
X9499820Y5963160D01*
X9600740Y5717660D01*
X9703600Y5402519D01*
X9772620Y5118180D01*
X9815340Y4884900D01*
X9854260Y4579300D01*
X9876420Y4153540D01*
X9854840Y3722260D01*
X9824540Y3454100D01*
X9771960Y3154360D01*
X9694520Y2844280D01*
X9620400Y2616880D01*
X9520380Y2358480D01*
X9370760Y2048400D01*
X9232040Y1810680D01*
X9103140Y1614300D01*
X8981320Y1448920D01*
X8808280Y1231880D01*
X8474580Y883420D01*
X8278640Y707680D01*
X8092279Y555580D01*
X7867880Y392980D01*
X7655520Y257780D01*
X7446860Y138760D01*
X7141940Y-4620D01*
X6856660Y-114880D01*
X6530000Y-210260D01*
X6240520Y-272980D01*
X5976920Y-312540D01*
X5630500Y-344360D01*
X5147740Y-344260D01*
X4807120Y-313540D01*
X4520780Y-271180D01*
X4204440Y-199400D01*
X3924180Y-115640D01*
X3651139Y-11140D01*
X3448900Y81480D01*
X3216320Y202600D01*
X2943320Y370300D01*
X2710740Y537860D01*
X2519940Y692660D01*
X2286020Y904580D01*
X2055380Y1142380D01*
X2126460Y1211200D01*
X2174120Y1304220D01*
X2174800Y1459259D01*
X2135020Y1541260D01*
X2062880Y1614980D01*
X1986860Y1651860D01*
X1891660Y1666600D01*
X1784580Y1652620D01*
X1705020Y1598800D01*
X1689400Y1599199D01*
X1534420Y1841699D01*
X1454440Y1977120D01*
X1321560Y2234460D01*
X1206680Y2503200D01*
X1106360Y2792600D01*
X1028660Y3082000D01*
X977360Y3340400D01*
X937159Y3629800D01*
X915840Y3894500D01*
X896961Y3894500D01*
X925620Y3562380D01*
X957300Y3340400D01*
X1016140Y3039340D01*
X1106760Y2719500D01*
X1176100Y2523860D01*
X1262160Y2317140D01*
X1411339Y2012480D01*
X1541680Y1790020D01*
X1682260Y1576040D01*
X1618880Y1471840D01*
X1614681Y1386920D01*
X1628140Y1386920D01*
X1640100Y1469600D01*
X1673560Y1534420D01*
X1768200Y1619560D01*
X1870060Y1650480D01*
X1923820Y1650480D01*
X2017480Y1621660D01*
X2101620Y1553560D01*
X2159620Y1428260D01*
X2159620Y1323779D01*
X2107480Y1216860D01*
X2045700Y1163700D01*
X1962440Y1119560D01*
X1820880Y1118680D01*
X1738899Y1163040D01*
X1672520Y1231880D01*
X1642380Y1290720D01*
X1628140Y1386920D01*
X1614681Y1386920D01*
X1611459Y1321459D01*
X1635140Y1248100D01*
X1724220Y1146820D01*
X1830980Y1099840D01*
X1963460Y1100680D01*
X2036780Y1131980D01*
X2338460Y827340D01*
X2651980Y560040D01*
X2882640Y391200D01*
X3074760Y268080D01*
X3313080Y128740D01*
X3610700Y-10800D01*
X3802840Y-88379D01*
X4045520Y-170200D01*
X4348880Y-250940D01*
X4620840Y-303260D01*
X4925280Y-343820D01*
X5286500Y-365020D01*
X5572440Y-364600D01*
X5946580Y-335080D01*
X6249940Y-291560D01*
X6533080Y-228860D01*
X6775780Y-159000D01*
X7008339Y-78220D01*
X7251040Y21060D01*
X7615060Y208980D01*
X7857760Y362860D01*
X8059980Y506520D01*
X8242020Y651720D01*
X8454360Y838620D01*
X8747620Y1138860D01*
X8931100Y1355900D01*
X9077520Y1548500D01*
X9225660Y1769340D01*
X9372580Y2016900D01*
X9541400Y2367800D01*
X9641280Y2627220D01*
X9704140Y2823600D01*
X9783240Y3133680D01*
X9823420Y3340400D01*
X9856140Y3567799D01*
X9885140Y3888200D01*
X9885220Y4404720D01*
X9853360Y4756420D01*
X9793460Y5118180D01*
X9722580Y5407580D01*
X9614120Y5740560D01*
X9500380Y6013800D01*
X9397320Y6224120D01*
X9275220Y6441180D01*
X9114880Y6686260D01*
X8951460Y6906300D01*
X8701020Y7200359D01*
X8373460Y7519340D01*
X8181340Y7682580D01*
X7974800Y7841860D01*
X7746520Y7993360D01*
X7533660Y8119940D01*
X7180240Y8294180D01*
X6947660Y8387039D01*
X6717760Y8462760D01*
X6411720Y8543680D01*
X6128600Y8595620D01*
X5885920Y8626600D01*
G37*
G36*
X5663440Y8291300D02*
G01*
X5087060Y8290040D01*
X4783700Y8253860D01*
X4551120Y8213560D01*
X4267980Y8142840D01*
X3987880Y8047900D01*
X3762380Y7952940D01*
X3539920Y7839100D01*
X3378120Y7745019D01*
X3135440Y7580740D01*
X2973639Y7455560D01*
X2791620Y7299200D01*
X2510960Y7019980D01*
X2318880Y6792600D01*
X2139840Y6548099D01*
X1983720Y6296480D01*
X1837520Y6007060D01*
X1736140Y5754180D01*
X1645320Y5469600D01*
X1584720Y5221540D01*
X1542580Y4963140D01*
X1514800Y4715080D01*
X1513014Y4269600D01*
X1522560Y4269600D01*
X1525460Y4591040D01*
X1541980Y4825960D01*
X1573980Y5066500D01*
X1634180Y5369580D01*
X1715400Y5653520D01*
X1828140Y5945060D01*
X1996720Y6286140D01*
X2126580Y6494340D01*
X2264180Y6689240D01*
X2426360Y6895960D01*
X2842200Y7322039D01*
X3094980Y7526440D01*
X3307340Y7673400D01*
X3492919Y7790320D01*
X3792720Y7943980D01*
X4096080Y8066720D01*
X4298320Y8130260D01*
X4549300Y8192780D01*
X4783700Y8233680D01*
X4925280Y8253980D01*
X5255520Y8278480D01*
X5744340Y8267340D01*
X6017360Y8233800D01*
X6330839Y8172900D01*
X6593760Y8099680D01*
X6826319Y8014640D01*
X7036960Y7922840D01*
X7253860Y7811640D01*
X7433060Y7704100D01*
X7675740Y7536880D01*
X7918420Y7338920D01*
X8156799Y7115839D01*
X8373460Y6874460D01*
X8526540Y6678900D01*
X8661940Y6485220D01*
X8776620Y6296480D01*
X8926120Y6001820D01*
X9003620Y5819180D01*
X9084780Y5583300D01*
X9146680Y5364400D01*
X9197380Y5124800D01*
X9229020Y4911460D01*
X9258020Y4580700D01*
X9258280Y4228260D01*
X9237120Y3950220D01*
X9196680Y3660820D01*
X9134700Y3381740D01*
X9056940Y3122140D01*
X8943800Y2833940D01*
X8776180Y2503200D01*
X8633120Y2271480D01*
X8463260Y2038080D01*
X8305920Y1852020D01*
X8029660Y1566060D01*
X7797080Y1363100D01*
X7625180Y1232980D01*
X7422300Y1095300D01*
X7169120Y948780D01*
X6887000Y815060D01*
X6664539Y729400D01*
X6361180Y639460D01*
X6108380Y586940D01*
X5896020Y555680D01*
X5683680Y535220D01*
X5380320Y522100D01*
X4974400Y544180D01*
X4733140Y576220D01*
X4510680Y618660D01*
X4269780Y680040D01*
X4075860Y743020D01*
X3792720Y857099D01*
X3517440Y998020D01*
X3327559Y1115020D01*
X3145560Y1240980D01*
X2953420Y1389400D01*
X2730960Y1585820D01*
X2457560Y1872700D01*
X2314300Y2048400D01*
X2158720Y2260120D01*
X2228280Y2322560D01*
X2272640Y2418980D01*
X2272640Y2557540D01*
X2238260Y2627220D01*
X2177960Y2692200D01*
X2200160Y2802940D01*
X2204360Y2909220D01*
X2177380Y2942460D01*
X2129400Y2942460D01*
X2066500Y2854620D01*
X2009519Y2752400D01*
X2048360Y2752400D01*
X2120340Y2875280D01*
X2159400Y2915820D01*
X2180280Y2894500D01*
X2157620Y2738800D01*
X2143500Y2715480D01*
X2048360Y2752400D01*
X2009519Y2752400D01*
X2007480Y2748740D01*
X1932100Y2736820D01*
X1890060Y2723920D01*
X1766100Y3019980D01*
X1696540Y3216680D01*
X1624180Y3485100D01*
X1574440Y3743560D01*
X1543580Y3991560D01*
X1522560Y4269600D01*
X1513014Y4269600D01*
X1512480Y4136259D01*
X1533320Y3908880D01*
X1563480Y3691820D01*
X1605640Y3485100D01*
X1665020Y3257720D01*
X1746220Y3012520D01*
X1875480Y2707860D01*
X1816680Y2663440D01*
X1763340Y2570380D01*
X1752600Y2449360D01*
X1757064Y2435340D01*
X1775380Y2435340D01*
X1776260Y2554880D01*
X1815240Y2630280D01*
X1899660Y2704140D01*
X1969340Y2727640D01*
X2109000Y2719580D01*
X2140340Y2687520D01*
X2066360Y2461840D01*
X1985460Y2260920D01*
X1960740Y2239940D01*
X1857920Y2292320D01*
X1804660Y2363660D01*
X1775380Y2435340D01*
X1757064Y2435340D01*
X1778240Y2368820D01*
X1838020Y2283000D01*
X1826360Y2244800D01*
X1807300Y2105820D01*
X1815551Y2074259D01*
X1846140Y2074259D01*
X1848820Y2182780D01*
X1861320Y2255120D01*
X1881540Y2254780D01*
X1930422Y2237320D01*
X2018060Y2237320D01*
X2019540Y2255120D01*
X2078240Y2385360D01*
X2172420Y2663399D01*
X2189700Y2663399D01*
X2237140Y2585880D01*
X2260740Y2515620D01*
X2260640Y2451520D01*
X2240600Y2377800D01*
X2167560Y2290600D01*
X2092960Y2251680D01*
X2018060Y2237320D01*
X1930422Y2237320D01*
X1957380Y2227680D01*
X1957380Y2208200D01*
X1904319Y2120760D01*
X1862840Y2074259D01*
X1815551Y2074259D01*
X1821800Y2050420D01*
X1865820Y2033779D01*
X1921980Y2082540D01*
X2000500Y2214740D01*
X2124220Y2240800D01*
X2145780Y2244800D01*
X2329620Y1996740D01*
X2561320Y1728000D01*
X2811860Y1488740D01*
X3003980Y1324540D01*
X3216320Y1167220D01*
X3466120Y1007660D01*
X3777040Y846100D01*
X4040360Y740100D01*
X4288200Y659560D01*
X4450000Y617920D01*
X4642120Y575980D01*
X4840240Y543820D01*
X5147740Y513579D01*
X5655560Y513519D01*
X5963940Y545140D01*
X6260060Y597200D01*
X6462300Y649060D01*
X6704980Y722520D01*
X6981500Y832520D01*
X7321820Y1008340D01*
X7547960Y1153260D01*
X7754440Y1304220D01*
X8009440Y1519240D01*
X8323600Y1841699D01*
X8491580Y2048400D01*
X8634980Y2243820D01*
X8796580Y2503200D01*
X8961720Y2833940D01*
X9064840Y3102679D01*
X9117660Y3268039D01*
X9167740Y3449580D01*
X9216620Y3681480D01*
X9257520Y3981220D01*
X9280880Y4363660D01*
X9267180Y4725420D01*
X9237960Y4983820D01*
X9196860Y5231880D01*
X9115960Y5551160D01*
X9038420Y5779680D01*
X8970980Y5955380D01*
X8818400Y6265460D01*
X8656620Y6530340D01*
X8457040Y6802220D01*
X8279120Y7009660D01*
X7999320Y7290940D01*
X7807200Y7454539D01*
X7645400Y7579700D01*
X7491360Y7685420D01*
X7305920Y7800359D01*
X7099360Y7912780D01*
X6838220Y8028900D01*
X6512859Y8140820D01*
X6270160Y8204420D01*
X5926360Y8263780D01*
G37*
G36*
X5419740Y7965720D02*
G01*
X5147740Y7944640D01*
X4864580Y7902480D01*
X4581460Y7832780D01*
X4328640Y7746280D01*
X4040680Y7616600D01*
X3839600Y7500240D01*
X3620820Y7352859D01*
X3459020Y7227120D01*
X3226440Y7017420D01*
X3044220Y6823600D01*
X2881300Y6623220D01*
X2719260Y6389500D01*
X2617840Y6213780D01*
X2536260Y6058740D01*
X2445120Y5841700D01*
X2382220Y5665980D01*
X2310560Y5408440D01*
X2260740Y5128520D01*
X2232660Y4859780D01*
X2230420Y4462980D01*
X2235177Y4405000D01*
X2250820Y4405000D01*
X2253860Y4901120D01*
X2260900Y4973480D01*
X2292540Y5231880D01*
X2343000Y5469600D01*
X2414040Y5717660D01*
X2516400Y5976060D01*
X2617340Y6182780D01*
X2738860Y6389500D01*
X2852160Y6554880D01*
X3010460Y6758060D01*
X3236560Y6997240D01*
X3448140Y7193099D01*
X3645340Y7345740D01*
X3877380Y7500380D01*
X4146640Y7644120D01*
X4318540Y7719320D01*
X4581460Y7811920D01*
X4859700Y7882080D01*
X5127519Y7923360D01*
X5388220Y7947940D01*
X5896020Y7935780D01*
X6128600Y7903140D01*
X6280280Y7874040D01*
X6496280Y7821799D01*
X6767080Y7729320D01*
X7028579Y7613339D01*
X7251040Y7487080D01*
X7473500Y7338640D01*
X7706079Y7154500D01*
X8092039Y6761580D01*
X8260300Y6544539D01*
X8427140Y6286140D01*
X8541040Y6072140D01*
X8602780Y5934720D01*
X8680140Y5733760D01*
X8741200Y5531620D01*
X8784460Y5356980D01*
X8822700Y5144200D01*
X8856220Y4839100D01*
X8855160Y4415340D01*
X8822820Y4108100D01*
X8781720Y3888200D01*
X8741000Y3722820D01*
X8659040Y3464440D01*
X8549120Y3206040D01*
X8426320Y2978639D01*
X8258600Y2720240D01*
X8087960Y2503200D01*
X7860920Y2260380D01*
X7645400Y2067380D01*
X7463400Y1925720D01*
X7226079Y1766780D01*
X6927440Y1611060D01*
X6796000Y1556020D01*
X6573540Y1473959D01*
X6270160Y1393920D01*
X6017360Y1350940D01*
X5815119Y1326759D01*
X5299400Y1326040D01*
X5068800Y1351620D01*
X4834260Y1392600D01*
X4585780Y1455060D01*
X4338780Y1539400D01*
X4085960Y1651840D01*
X3914060Y1747000D01*
X3701720Y1880380D01*
X3438800Y2082580D01*
X3186000Y2319900D01*
X3076540Y2434900D01*
X3190240Y2551120D01*
X3242140Y2659540D01*
X3265700Y2789000D01*
X3241120Y2935419D01*
X3186860Y3037340D01*
X3079760Y3137380D01*
X2968060Y3191400D01*
X2842200Y3206400D01*
X2713780Y3191560D01*
X2597480Y3129700D01*
X2494400Y3350740D01*
X2444720Y3474760D01*
X2373100Y3693820D01*
X2322660Y3898540D01*
X2280880Y4125920D01*
X2250820Y4405000D01*
X2235177Y4405000D01*
X2252160Y4198280D01*
X2301400Y3898700D01*
X2373280Y3619480D01*
X2471880Y3350740D01*
X2579580Y3116340D01*
X2502600Y3031120D01*
X2437700Y2896400D01*
X2437700Y2885620D01*
X2453400Y2885620D01*
X2482060Y2962880D01*
X2543960Y3054860D01*
X2629840Y3126019D01*
X2710740Y3167460D01*
X2829940Y3192620D01*
X2956240Y3178800D01*
X3074760Y3121440D01*
X3171580Y3020980D01*
X3234580Y2890160D01*
X3244040Y2739280D01*
X3212080Y2626820D01*
X3147040Y2526480D01*
X3036220Y2437560D01*
X2896980Y2391800D01*
X2728140Y2402580D01*
X2603500Y2470480D01*
X2506440Y2579000D01*
X2458560Y2678900D01*
X2453400Y2885620D01*
X2437700Y2885620D01*
X2437700Y2678900D01*
X2492380Y2559660D01*
X2601019Y2448600D01*
X2685480Y2404560D01*
X2811860Y2371440D01*
X2955659Y2382520D01*
X3060779Y2428740D01*
X3357900Y2129920D01*
X3519700Y1995800D01*
X3661259Y1890620D01*
X3863500Y1755880D01*
X4136540Y1610280D01*
X4358760Y1515320D01*
X4632020Y1425460D01*
X4905040Y1362020D01*
X5190780Y1319640D01*
X5562320Y1302380D01*
X5917519Y1318700D01*
X6209480Y1361960D01*
X6442080Y1414820D01*
X6674660Y1486519D01*
X6937560Y1592040D01*
X7200460Y1729079D01*
X7443160Y1886579D01*
X7587940Y1996740D01*
X7807200Y2182020D01*
X8040060Y2420500D01*
X8233360Y2658240D01*
X8356620Y2833940D01*
X8503680Y3082000D01*
X8639300Y3371400D01*
X8741840Y3664220D01*
X8801520Y3899200D01*
X8842800Y4136259D01*
X8868960Y4353320D01*
X8868960Y4921800D01*
X8842140Y5138840D01*
X8803200Y5369340D01*
X8743260Y5603960D01*
X8674580Y5810680D01*
X8600680Y5992560D01*
X8502040Y6193120D01*
X8407920Y6355540D01*
X8284160Y6544539D01*
X8090500Y6792600D01*
X7837519Y7058900D01*
X7585560Y7274360D01*
X7392600Y7416020D01*
X7149920Y7566440D01*
X6866780Y7706079D01*
X6617680Y7799539D01*
X6401620Y7861559D01*
X6169040Y7913380D01*
X5956680Y7944200D01*
X5673540Y7965640D01*
G37*
G36*
X5269080Y7040660D02*
G01*
X5038500Y7003320D01*
X4834260Y6953579D01*
X4632020Y6882740D01*
X4462660Y6807800D01*
X4288200Y6710839D01*
X4095100Y6583020D01*
X3873600Y6396720D01*
X3658940Y6172440D01*
X3541040Y6027900D01*
X3381360Y5779680D01*
X3242700Y5490280D01*
X3152760Y5211200D01*
X3109340Y5003800D01*
X3086031Y4828780D01*
X3101680Y4828780D01*
X3119040Y4957980D01*
X3172520Y5229020D01*
X3243320Y5447600D01*
X3324880Y5634980D01*
X3444580Y5852020D01*
X3574660Y6038080D01*
X3742160Y6242300D01*
X3984840Y6470160D01*
X4180020Y6619420D01*
X4350820Y6724880D01*
X4618020Y6857820D01*
X4894940Y6951360D01*
X5147740Y7003620D01*
X5329760Y7026620D01*
X5784800Y7027540D01*
X6027480Y6993220D01*
X6247900Y6942400D01*
X6492619Y6858980D01*
X6775780Y6716940D01*
X7018460Y6553380D01*
X7180240Y6420839D01*
X7443160Y6151500D01*
X7623339Y5906700D01*
X7723000Y5738339D01*
X7819660Y5541960D01*
X7895920Y5346260D01*
X7972220Y5035500D01*
X8007600Y4766760D01*
X8008000Y4363660D01*
X7973200Y4105260D01*
X7924260Y3888200D01*
X7851120Y3660820D01*
X7712700Y3371400D01*
X7551480Y3123340D01*
X7390240Y2926960D01*
X7168020Y2707720D01*
X6978020Y2556880D01*
X6806100Y2442300D01*
X6502740Y2284480D01*
X6219620Y2190000D01*
X6027480Y2147960D01*
X5815119Y2114640D01*
X5410640Y2102720D01*
X5130460Y2136180D01*
X4880380Y2187940D01*
X4642120Y2268100D01*
X4450000Y2356500D01*
X4267980Y2459340D01*
X4065740Y2600720D01*
X3863500Y2774220D01*
X3669200Y2981259D01*
X3555100Y3125640D01*
X3555100Y3137260D01*
X3614260Y3197760D01*
X3628279Y3274100D01*
X3599880Y3350400D01*
X3529800Y3398780D01*
X3428680Y3390720D01*
X3395700Y3375320D01*
X3342360Y3472900D01*
X3260659Y3658340D01*
X3201259Y3824700D01*
X3150360Y4020160D01*
X3106980Y4249960D01*
X3101680Y4828780D01*
X3086031Y4828780D01*
X3081900Y4797760D01*
X3079820Y4359540D01*
X3111080Y4115600D01*
X3160480Y3891660D01*
X3244000Y3634940D01*
X3381500Y3351540D01*
X3352840Y3294920D01*
X3352840Y3226700D01*
X3373140Y3226700D01*
X3373519Y3309400D01*
X3408460Y3353480D01*
X3458440Y3379760D01*
X3524940Y3377200D01*
X3566280Y3354580D01*
X3605560Y3288720D01*
X3605640Y3223120D01*
X3553780Y3160120D01*
X3484300Y3140520D01*
X3412460Y3160800D01*
X3373140Y3226700D01*
X3352840Y3226700D01*
X3352840Y3210899D01*
X3419480Y3136560D01*
X3531400Y3123340D01*
X3684520Y2937300D01*
X3884180Y2730580D01*
X4091180Y2560460D01*
X4278100Y2431780D01*
X4561220Y2284780D01*
X4763460Y2209640D01*
X4945500Y2156100D01*
X5208960Y2106360D01*
X5521880Y2082420D01*
X5794900Y2096300D01*
X6026680Y2126800D01*
X6214980Y2168500D01*
X6442080Y2241700D01*
X6634200Y2324240D01*
X6806100Y2418540D01*
X7004160Y2551260D01*
X7200460Y2711620D01*
X7357080Y2861700D01*
X7515280Y3051000D01*
X7637160Y3216360D01*
X7753200Y3412760D01*
X7841860Y3598800D01*
X7914180Y3803620D01*
X7972740Y4022559D01*
X8003400Y4198280D01*
X8024600Y4399020D01*
X8024600Y4770860D01*
X7993500Y5014820D01*
X7941840Y5252540D01*
X7861319Y5500599D01*
X7732840Y5769380D01*
X7571580Y6017400D01*
X7436960Y6182780D01*
X7240920Y6387060D01*
X7069020Y6534360D01*
X6907240Y6650460D01*
X6765640Y6739040D01*
X6546319Y6850280D01*
X6330839Y6933560D01*
X6067200Y7003120D01*
X5835340Y7040660D01*
G37*
G36*
X5687120Y6583460D02*
G01*
X5279180Y6572480D01*
X5022200Y6518800D01*
X4803920Y6443840D01*
X4580740Y6334700D01*
X4399440Y6210040D01*
X4237660Y6076680D01*
X4044800Y5872700D01*
X3922940Y5707320D01*
X3828840Y5551740D01*
X3729040Y5335240D01*
X3657280Y5097500D01*
X3625920Y4932140D01*
X3606860Y4756420D01*
X3613322Y4493560D01*
X3625880Y4493560D01*
X3628500Y4797760D01*
X3645659Y4952800D01*
X3687760Y5155720D01*
X3739840Y5314560D01*
X3815160Y5490280D01*
X3893840Y5629680D01*
X4024760Y5821020D01*
X4318540Y6122880D01*
X4470220Y6234840D01*
X4601680Y6321240D01*
X4814040Y6424280D01*
X5046620Y6505460D01*
X5289299Y6554740D01*
X5835340Y6554760D01*
X6091180Y6498320D01*
X6280280Y6434200D01*
X6502740Y6324500D01*
X6694880Y6195320D01*
X6846540Y6069380D01*
X7032960Y5876840D01*
X7172560Y5686660D01*
X7255960Y5546980D01*
X7344180Y5366240D01*
X7407600Y5177360D01*
X7449520Y4996960D01*
X7478160Y4777100D01*
X7478540Y4487140D01*
X7457340Y4311980D01*
X7418280Y4119440D01*
X7348420Y3906019D01*
X7243300Y3691820D01*
X7131040Y3517520D01*
X6986100Y3340400D01*
X6796000Y3154180D01*
X6638420Y3033680D01*
X6424539Y2902380D01*
X6177740Y2798660D01*
X5976920Y2744840D01*
X5714000Y2704840D01*
X5410640Y2704920D01*
X5228640Y2726139D01*
X5028820Y2767700D01*
X4834260Y2830980D01*
X4591580Y2950539D01*
X4409540Y3073120D01*
X4227540Y3228680D01*
X4065120Y3402420D01*
X3979020Y3513800D01*
X4039480Y3551380D01*
X4070800Y3613279D01*
X4070800Y3687679D01*
X4041500Y3745600D01*
X3991320Y3779200D01*
X3909800Y3792520D01*
X3837060Y3748660D01*
X3830299Y3748660D01*
X3745860Y3945480D01*
X3695700Y4094920D01*
X3657620Y4260300D01*
X3625880Y4493560D01*
X3613322Y4493560D01*
X3615240Y4415340D01*
X3644520Y4229300D01*
X3675860Y4094920D01*
X3734360Y3918420D01*
X3821100Y3727660D01*
X3797780Y3675340D01*
X3797780Y3623620D01*
X3818000Y3623620D01*
X3818100Y3691820D01*
X3863500Y3746720D01*
X3907679Y3769340D01*
X3981800Y3769340D01*
X4050560Y3699060D01*
X4050560Y3608560D01*
X4019000Y3562500D01*
X3960560Y3531620D01*
X3908000Y3531620D01*
X3848680Y3562980D01*
X3818000Y3623620D01*
X3797780Y3623620D01*
X3797780Y3601540D01*
X3873680Y3523960D01*
X3957740Y3509440D01*
X4055600Y3381740D01*
X4261900Y3171800D01*
X4432800Y3035380D01*
X4605420Y2924640D01*
X4774840Y2840020D01*
X4945500Y2775700D01*
X5137619Y2724660D01*
X5329760Y2694260D01*
X5623000Y2681300D01*
X5868980Y2705779D01*
X6098260Y2754720D01*
X6290380Y2819340D01*
X6573540Y2962919D01*
X6753460Y3095520D01*
X6941360Y3262120D01*
X7106100Y3454100D01*
X7233620Y3640140D01*
X7335940Y3836520D01*
X7408240Y4028200D01*
X7466580Y4260300D01*
X7498780Y4515420D01*
X7498780Y4728380D01*
X7477600Y4942460D01*
X7436960Y5149180D01*
X7366860Y5364220D01*
X7289920Y5531620D01*
X7173360Y5723819D01*
X7050320Y5883040D01*
X6897120Y6046079D01*
X6715100Y6202000D01*
X6533080Y6324500D01*
X6317380Y6435300D01*
X6070320Y6519720D01*
X5885920Y6558200D01*
G37*
G36*
X5491540Y6109260D02*
G01*
X5309920Y6072100D01*
X5178060Y6031700D01*
X4979500Y5947360D01*
X4806760Y5836500D01*
X4682560Y5735040D01*
X4488420Y5531620D01*
X4392420Y5397400D01*
X4315640Y5262880D01*
X4233660Y5066500D01*
X4181760Y4859780D01*
X4170101Y4777100D01*
X4182679Y4777100D01*
X4220880Y4963140D01*
X4264700Y5107840D01*
X4372060Y5335240D01*
X4500540Y5521280D01*
X4723860Y5748660D01*
X4887400Y5867760D01*
X5081100Y5972000D01*
X5248860Y6034880D01*
X5461200Y6086460D01*
X5855560Y6097320D01*
X6061079Y6063780D01*
X6229720Y6013520D01*
X6380380Y5949680D01*
X6504420Y5878780D01*
X6664539Y5761700D01*
X6814860Y5624640D01*
X6959920Y5446559D01*
X7070860Y5262880D01*
X7143060Y5097500D01*
X7186440Y4952800D01*
X7216460Y4808100D01*
X7235780Y4549820D01*
X7215359Y4322320D01*
X7182960Y4156940D01*
X7122300Y3981220D01*
X7045520Y3825080D01*
X6922519Y3637140D01*
X6726900Y3426860D01*
X6519600Y3268039D01*
X6318060Y3159300D01*
X6078040Y3078980D01*
X5875800Y3041840D01*
X5521880Y3041840D01*
X5319620Y3079000D01*
X5157840Y3130560D01*
X5023640Y3190240D01*
X4874700Y3276380D01*
X4729120Y3386280D01*
X4583200Y3526440D01*
X4447920Y3688260D01*
X4485380Y3763380D01*
X4485300Y3805520D01*
X4446500Y3870560D01*
X4372820Y3895419D01*
X4332200Y3884560D01*
X4276260Y4012240D01*
X4231540Y4144620D01*
X4189620Y4311980D01*
X4182679Y4777100D01*
X4170101Y4777100D01*
X4164260Y4735740D01*
X4161800Y4402540D01*
X4192820Y4218960D01*
X4234420Y4066240D01*
X4309480Y3877860D01*
X4262920Y3807620D01*
X4262920Y3750260D01*
X4283140Y3750260D01*
X4283140Y3819180D01*
X4345380Y3872700D01*
X4401760Y3872700D01*
X4454300Y3830460D01*
X4467020Y3761180D01*
X4444340Y3717880D01*
X4385280Y3686660D01*
X4335520Y3686660D01*
X4283140Y3750260D01*
X4262920Y3750260D01*
X4262920Y3742940D01*
X4295900Y3694800D01*
X4365120Y3665240D01*
X4431620Y3678000D01*
X4593260Y3485100D01*
X4769620Y3330600D01*
X4915160Y3228639D01*
X5137619Y3119900D01*
X5340460Y3058320D01*
X5552200Y3023380D01*
X5875800Y3023720D01*
X6109000Y3065380D01*
X6300500Y3130620D01*
X6480440Y3221660D01*
X6644299Y3334080D01*
X6811760Y3480980D01*
X6957660Y3657040D01*
X7055380Y3805520D01*
X7153040Y4012240D01*
X7203780Y4178220D01*
X7236280Y4338960D01*
X7252720Y4588280D01*
X7236040Y4808100D01*
X7204440Y4967180D01*
X7153200Y5128520D01*
X7073240Y5303760D01*
X7009480Y5407580D01*
X6884440Y5572960D01*
X6684440Y5769340D01*
X6518420Y5889880D01*
X6306880Y5999740D01*
X6118500Y6063700D01*
X5916260Y6109180D01*
G37*
G36*
X5575359Y5839440D02*
G01*
X5430880Y5814040D01*
X5300640Y5773980D01*
X5117380Y5684700D01*
X4955600Y5561079D01*
X4795380Y5386920D01*
X4716600Y5262880D01*
X4649300Y5118120D01*
X4603860Y4965240D01*
X4583614Y4839100D01*
X4597120Y4839100D01*
X4626800Y4999520D01*
X4668580Y5126220D01*
X4736340Y5262880D01*
X4841380Y5415000D01*
X5002480Y5578140D01*
X5184980Y5701020D01*
X5338380Y5766280D01*
X5531980Y5819460D01*
X5885920Y5818600D01*
X6088140Y5764640D01*
X6290380Y5662480D01*
X6431960Y5554000D01*
X6580200Y5397960D01*
X6688540Y5231500D01*
X6751799Y5087400D01*
X6802160Y4890780D01*
X6814080Y4640580D01*
X6788320Y4467020D01*
X6737960Y4301640D01*
X6660680Y4144340D01*
X6538579Y3978700D01*
X6414360Y3861160D01*
X6270160Y3757140D01*
X6153320Y3696400D01*
X5976360Y3635800D01*
X5784800Y3604060D01*
X5623000Y3604080D01*
X5430880Y3633860D01*
X5289299Y3678700D01*
X5147740Y3751060D01*
X5012360Y3842500D01*
X4832040Y4024020D01*
X4797440Y4078039D01*
X4819080Y4119400D01*
X4819080Y4173380D01*
X4769440Y4224120D01*
X4707600Y4224120D01*
X4655460Y4342980D01*
X4604740Y4539360D01*
X4597120Y4839100D01*
X4583614Y4839100D01*
X4576980Y4797760D01*
X4585280Y4560040D01*
X4618600Y4394660D01*
X4688020Y4210680D01*
X4657300Y4175980D01*
X4657300Y4117220D01*
X4677520Y4117220D01*
X4677520Y4169240D01*
X4714500Y4203440D01*
X4767380Y4203440D01*
X4798860Y4157500D01*
X4798860Y4111600D01*
X4753920Y4079420D01*
X4711000Y4079420D01*
X4677520Y4117220D01*
X4657300Y4117220D01*
X4657300Y4101600D01*
X4712080Y4057540D01*
X4775560Y4063120D01*
X4955600Y3869180D01*
X5115660Y3747480D01*
X5299400Y3656340D01*
X5491540Y3605000D01*
X5690119Y3583039D01*
X5911820Y3604420D01*
X6037600Y3634260D01*
X6150420Y3673980D01*
X6273720Y3736520D01*
X6401620Y3824360D01*
X6605280Y4032900D01*
X6706900Y4190059D01*
X6772780Y4351800D01*
X6821360Y4547560D01*
X6833780Y4746080D01*
X6810960Y4932140D01*
X6770960Y5093900D01*
X6691340Y5267580D01*
X6587260Y5421460D01*
X6401620Y5604360D01*
X6250060Y5705920D01*
X6088140Y5777760D01*
X5916260Y5827859D01*
G37*
G36*
X5768020Y5032040D02*
G01*
X5729580Y4996500D01*
X5716900Y5030320D01*
X5690900Y5030320D01*
X5678200Y4996500D01*
X5640000Y5031840D01*
X5626680Y4988980D01*
X5609020Y4988980D01*
X5596520Y5009660D01*
X5577480Y5009660D01*
X5577480Y4966060D01*
X5526940Y4979040D01*
X5526940Y4934900D01*
X5474480Y4945140D01*
X5483680Y4895960D01*
X5435920Y4895960D01*
X5435920Y4884260D01*
X5456860Y4844280D01*
X5405599Y4844280D01*
X5405599Y4827740D01*
X5429779Y4803000D01*
X5391180Y4774160D01*
X5415960Y4743660D01*
X5384840Y4717280D01*
X5386790Y4715080D01*
X5415420Y4715080D01*
X5450960Y4737920D01*
X5423540Y4771680D01*
X5456760Y4784720D01*
X5444640Y4823700D01*
X5478000Y4836800D01*
X5468140Y4875280D01*
X5506720Y4875280D01*
X5506720Y4916620D01*
X5547160Y4916620D01*
X5547160Y4958700D01*
X5587600Y4936580D01*
X5587600Y4980040D01*
X5630580Y4966100D01*
X5646720Y4992820D01*
X5680160Y4964480D01*
X5698520Y4994140D01*
X5698819Y5014260D01*
X5731000Y4967320D01*
X5760140Y4992040D01*
X5786760Y4954840D01*
X5801140Y4978640D01*
X5817820Y4978640D01*
X5828800Y4935760D01*
X5873700Y4960320D01*
X5862519Y4916620D01*
X5909299Y4916620D01*
X5898720Y4875280D01*
X5942880Y4875280D01*
X5930860Y4836500D01*
X5975200Y4824660D01*
X5947540Y4790600D01*
X5983099Y4770260D01*
X5957660Y4738920D01*
X5993500Y4718420D01*
X5957460Y4691480D01*
X5983099Y4659900D01*
X5949340Y4640580D01*
X5972560Y4596220D01*
X5929040Y4596220D01*
X5939620Y4554880D01*
X5898720Y4554880D01*
X5909299Y4513520D01*
X5870740Y4513520D01*
X5870740Y4471780D01*
X5820180Y4484760D01*
X5820180Y4451120D01*
X5769620Y4464080D01*
X5769620Y4430660D01*
X5730820Y4455440D01*
X5701520Y4430580D01*
X5675960Y4462080D01*
X5650940Y4427120D01*
X5626180Y4474400D01*
X5603780Y4451500D01*
X5587600Y4451500D01*
X5587600Y4482520D01*
X5547160Y4482520D01*
X5547160Y4513520D01*
X5498500Y4513520D01*
X5509080Y4554880D01*
X5464900Y4554880D01*
X5477740Y4596220D01*
X5435200Y4596220D01*
X5456140Y4636200D01*
X5456140Y4647900D01*
X5425820Y4647900D01*
X5425820Y4664440D01*
X5450000Y4689160D01*
X5415420Y4715080D01*
X5386790Y4715080D01*
X5415420Y4682760D01*
X5390420Y4656840D01*
X5427420Y4628920D01*
X5404880Y4585880D01*
X5448240Y4585880D01*
X5435540Y4534200D01*
X5486260Y4534200D01*
X5481440Y4487680D01*
X5526940Y4494160D01*
X5526940Y4440440D01*
X5566040Y4461840D01*
X5577480Y4461840D01*
X5577480Y4420500D01*
X5588940Y4420500D01*
X5625820Y4440680D01*
X5637300Y4395820D01*
X5678200Y4433660D01*
X5690900Y4399840D01*
X5716900Y4399840D01*
X5729580Y4433660D01*
X5769200Y4397020D01*
X5782480Y4432380D01*
X5827980Y4420700D01*
X5838180Y4460500D01*
X5880860Y4449100D01*
X5880860Y4495100D01*
X5933960Y4481460D01*
X5924120Y4534200D01*
X5972260Y4534200D01*
X5959560Y4585880D01*
X6002200Y4585880D01*
X6002200Y4605320D01*
X5981980Y4618100D01*
X5981980Y4637560D01*
X6012300Y4637560D01*
X6012300Y4667340D01*
X5989020Y4682060D01*
X6025860Y4709580D01*
X5992500Y4747240D01*
X6024680Y4780140D01*
X5981980Y4794000D01*
X5981980Y4812040D01*
X6002200Y4824820D01*
X6002200Y4844280D01*
X5959560Y4844280D01*
X5972260Y4895960D01*
X5924760Y4895960D01*
X5926360Y4942460D01*
X5880860Y4936000D01*
X5880860Y4981060D01*
X5838180Y4969640D01*
X5827920Y5009660D01*
X5814120Y5009660D01*
X5791720Y4986760D01*
G37*
D10*
X1860000Y2274580D02*
G01*
X1860000Y2305263D01*
X1862044Y2311399D01*
X1866135Y2315490D01*
X1872272Y2317534D01*
X1876364Y2317534D01*
X1882500Y2315490D01*
X1886590Y2311399D01*
X1888635Y2305263D01*
X1888635Y2274580D01*
X1914408Y2274580D02*
G01*
X1908272Y2276626D01*
X1904182Y2282763D01*
X1902136Y2292990D01*
X1902136Y2299126D01*
X1904182Y2309353D01*
X1908272Y2315490D01*
X1914408Y2317534D01*
X1918500Y2317534D01*
X1924636Y2315490D01*
X1928726Y2309353D01*
X1930772Y2299126D01*
X1930772Y2292990D01*
X1928726Y2282763D01*
X1924636Y2276626D01*
X1918500Y2274580D01*
X1914408Y2274580D01*
X1995100Y4224890D02*
G01*
X1974200Y4224890D01*
X1972100Y4243690D01*
X1974200Y4241590D01*
X1980500Y4239490D01*
X1986700Y4239490D01*
X1993000Y4241590D01*
X1997200Y4245790D01*
X1999300Y4252089D01*
X1999300Y4256289D01*
X1997200Y4262489D01*
X1993000Y4266689D01*
X1986700Y4268789D01*
X1980500Y4268789D01*
X1974200Y4266689D01*
X1972100Y4264589D01*
X1970000Y4260490D01*
X2013100Y4224890D02*
G01*
X2029799Y4268789D01*
X2046499Y4224890D02*
G01*
X2029799Y4268789D01*
X2488900Y4243589D02*
G01*
X2478000Y4272289D01*
X2488900Y4243589D02*
G01*
X2499799Y4272289D01*
X2482100Y4262689D02*
G01*
X2495699Y4262689D01*
X2516999Y4243589D02*
G01*
X2512899Y4244989D01*
X2510200Y4249090D01*
X2508800Y4255889D01*
X2508800Y4259989D01*
X2510200Y4266790D01*
X2512899Y4270889D01*
X2516999Y4272289D01*
X2519700Y4272289D01*
X2523800Y4270889D01*
X2526499Y4266790D01*
X2527899Y4259989D01*
X2527899Y4255889D01*
X2526499Y4249090D01*
X2523800Y4244989D01*
X2519700Y4243589D01*
X2516999Y4243589D01*
X2520399Y4119490D02*
G01*
X2500000Y4172890D01*
X2520399Y4119490D02*
G01*
X2540699Y4172890D01*
X2507600Y4155090D02*
G01*
X2533100Y4155090D01*
X2557500Y4119490D02*
G01*
X2557500Y4172890D01*
X2557500Y4119490D02*
G01*
X2593199Y4172890D01*
X2593199Y4119490D02*
G01*
X2593199Y4172890D01*
X2630299Y4119490D02*
G01*
X2610000Y4172890D01*
X2630299Y4119490D02*
G01*
X2650699Y4172890D01*
X2617600Y4155090D02*
G01*
X2643100Y4155090D01*
X2667500Y4119490D02*
G01*
X2667500Y4172890D01*
X2667500Y4172890D02*
G01*
X2698000Y4172890D01*
X2730100Y4119490D02*
G01*
X2725000Y4121990D01*
X2719899Y4127089D01*
X2717399Y4132190D01*
X2714799Y4139789D01*
X2714799Y4152489D01*
X2717399Y4160189D01*
X2719899Y4165290D01*
X2725000Y4170390D01*
X2730100Y4172890D01*
X2740299Y4172890D01*
X2745399Y4170390D01*
X2750500Y4165290D01*
X2753000Y4160189D01*
X2755600Y4152489D01*
X2755600Y4139789D01*
X2753000Y4132190D01*
X2750500Y4127089D01*
X2745399Y4121990D01*
X2740299Y4119490D01*
X2730100Y4119490D01*
X2810500Y4132190D02*
G01*
X2808000Y4127089D01*
X2802899Y4121990D01*
X2797799Y4119490D01*
X2787600Y4119490D01*
X2782500Y4121990D01*
X2777500Y4127089D01*
X2774899Y4132190D01*
X2772399Y4139789D01*
X2772399Y4152489D01*
X2774899Y4160189D01*
X2777500Y4165290D01*
X2782500Y4170390D01*
X2787600Y4172890D01*
X2797799Y4172890D01*
X2802899Y4170390D01*
X2808000Y4165290D01*
X2810500Y4160189D01*
X2810500Y4152489D01*
X2797799Y4152489D02*
G01*
X2810500Y4152489D01*
X2866499Y4119490D02*
G01*
X2866499Y4172890D01*
X2883299Y4119490D02*
G01*
X2883299Y4172890D01*
X2883299Y4119490D02*
G01*
X2918999Y4172890D01*
X2918999Y4119490D02*
G01*
X2918999Y4172890D01*
X1445100Y2516689D02*
G01*
X1401199Y2499989D01*
X1445100Y2516689D02*
G01*
X1401199Y2533490D01*
X1415799Y2506289D02*
G01*
X1415799Y2527190D01*
X1445100Y2547289D02*
G01*
X1401199Y2547289D01*
X1445100Y2547289D02*
G01*
X1445100Y2566089D01*
X1443000Y2572289D01*
X1440900Y2574389D01*
X1436700Y2576489D01*
X1432500Y2576489D01*
X1428400Y2574389D01*
X1426300Y2572289D01*
X1424200Y2566089D01*
X1424200Y2547289D01*
X1424200Y2561889D02*
G01*
X1401199Y2576489D01*
X1445100Y2590290D02*
G01*
X1401199Y2590290D01*
X1445100Y2590290D02*
G01*
X1445100Y2617489D01*
X1424200Y2590290D02*
G01*
X1424200Y2607089D01*
X1401199Y2590290D02*
G01*
X1401199Y2617489D01*
X1445100Y2631289D02*
G01*
X1401199Y2631289D01*
X1445100Y2631289D02*
G01*
X1445100Y2658490D01*
X1424200Y2631289D02*
G01*
X1424200Y2647990D01*
X1535600Y2526390D02*
G01*
X1539799Y2524290D01*
X1543999Y2520090D01*
X1546099Y2515889D01*
X1546099Y2507489D01*
X1543999Y2503389D01*
X1539799Y2499189D01*
X1535600Y2497089D01*
X1529399Y2494989D01*
X1518900Y2494989D01*
X1512600Y2497089D01*
X1508500Y2499189D01*
X1504300Y2503389D01*
X1502200Y2507489D01*
X1502200Y2515889D01*
X1504300Y2520090D01*
X1508500Y2524290D01*
X1512600Y2526390D01*
X1518900Y2526390D01*
X1518900Y2515889D02*
G01*
X1518900Y2526390D01*
X1546099Y2540189D02*
G01*
X1502200Y2540189D01*
X1546099Y2540189D02*
G01*
X1502200Y2569389D01*
X1546099Y2569389D02*
G01*
X1502200Y2569389D01*
X1546099Y2583189D02*
G01*
X1502200Y2583189D01*
X1546099Y2583189D02*
G01*
X1546099Y2597890D01*
X1543999Y2604090D01*
X1539799Y2608290D01*
X1535600Y2610390D01*
X1529399Y2612489D01*
X1518900Y2612489D01*
X1512600Y2610390D01*
X1508500Y2608290D01*
X1504300Y2604090D01*
X1502200Y2597890D01*
X1502200Y2583189D01*
X1794899Y4254989D02*
G01*
X1838800Y4254989D01*
X1794899Y4254989D02*
G01*
X1794899Y4236190D01*
X1796999Y4229890D01*
X1799099Y4227790D01*
X1803299Y4225690D01*
X1807500Y4225690D01*
X1811599Y4227790D01*
X1813699Y4229890D01*
X1815799Y4236190D01*
X1815799Y4254989D01*
X1815799Y4240390D02*
G01*
X1838800Y4225690D01*
X1794899Y4211889D02*
G01*
X1838800Y4211889D01*
X1794899Y4211889D02*
G01*
X1794899Y4184690D01*
X1815799Y4211889D02*
G01*
X1815799Y4195189D01*
X1838800Y4211889D02*
G01*
X1838800Y4184690D01*
X1801199Y4141689D02*
G01*
X1796999Y4145889D01*
X1794899Y4152089D01*
X1794899Y4160490D01*
X1796999Y4166790D01*
X1801199Y4170889D01*
X1805399Y4170889D01*
X1809499Y4168890D01*
X1811599Y4166790D01*
X1813699Y4162590D01*
X1817899Y4149989D01*
X1820000Y4145889D01*
X1822100Y4143789D01*
X1826300Y4141689D01*
X1832500Y4141689D01*
X1836700Y4145889D01*
X1838800Y4152089D01*
X1838800Y4160490D01*
X1836700Y4166790D01*
X1832500Y4170889D01*
X1794899Y4127890D02*
G01*
X1838800Y4127890D01*
X1794899Y4127890D02*
G01*
X1794899Y4100689D01*
X1815799Y4127890D02*
G01*
X1815799Y4111089D01*
X1838800Y4127890D02*
G01*
X1838800Y4100689D01*
X1794899Y4072289D02*
G01*
X1838800Y4072289D01*
X1794899Y4086889D02*
G01*
X1794899Y4057590D01*
X1890000Y4255390D02*
G01*
X1890000Y4232390D01*
X1906700Y4244989D01*
X1906700Y4238690D01*
X1908800Y4234490D01*
X1910900Y4232390D01*
X1917200Y4230290D01*
X1921400Y4230290D01*
X1927600Y4232390D01*
X1931800Y4236590D01*
X1933900Y4242890D01*
X1933900Y4249090D01*
X1931800Y4255390D01*
X1929700Y4257489D01*
X1925600Y4259589D01*
X1890000Y4216489D02*
G01*
X1933900Y4199789D01*
X1890000Y4183090D02*
G01*
X1933900Y4199789D01*
X1890000Y4165090D02*
G01*
X1890000Y4142089D01*
X1906700Y4154589D01*
X1906700Y4148389D01*
X1908800Y4144189D01*
X1910900Y4142089D01*
X1917200Y4139989D01*
X1921400Y4139989D01*
X1927600Y4142089D01*
X1931800Y4146289D01*
X1933900Y4152489D01*
X1933900Y4158789D01*
X1931800Y4165090D01*
X1929700Y4167190D01*
X1925600Y4169290D01*
X2588900Y4243589D02*
G01*
X2578000Y4272289D01*
X2588900Y4243589D02*
G01*
X2599799Y4272289D01*
X2582100Y4262689D02*
G01*
X2595699Y4262689D01*
X2608800Y4249090D02*
G01*
X2611499Y4247689D01*
X2615600Y4243589D01*
X2615600Y4272289D01*
X2688900Y4243589D02*
G01*
X2678000Y4272289D01*
X2688900Y4243589D02*
G01*
X2699799Y4272289D01*
X2682100Y4262689D02*
G01*
X2695699Y4262689D01*
X2710200Y4250490D02*
G01*
X2710200Y4249090D01*
X2711499Y4246390D01*
X2712899Y4244989D01*
X2715600Y4243589D01*
X2721099Y4243589D01*
X2723800Y4244989D01*
X2725200Y4246390D01*
X2726499Y4249090D01*
X2726499Y4251790D01*
X2725200Y4254490D01*
X2722500Y4258589D01*
X2708800Y4272289D01*
X2727899Y4272289D01*
X2788900Y4243589D02*
G01*
X2778000Y4272289D01*
X2788900Y4243589D02*
G01*
X2799799Y4272289D01*
X2782100Y4262689D02*
G01*
X2795699Y4262689D01*
X2811499Y4243589D02*
G01*
X2826499Y4243589D01*
X2818400Y4254490D01*
X2822500Y4254490D01*
X2825200Y4255889D01*
X2826499Y4257289D01*
X2827899Y4261390D01*
X2827899Y4264090D01*
X2826499Y4268190D01*
X2823800Y4270889D01*
X2819700Y4272289D01*
X2815600Y4272289D01*
X2811499Y4270889D01*
X2810200Y4269490D01*
X2808800Y4266790D01*
X2888900Y4243589D02*
G01*
X2878000Y4272289D01*
X2888900Y4243589D02*
G01*
X2899799Y4272289D01*
X2882100Y4262689D02*
G01*
X2895699Y4262689D01*
X2922500Y4243589D02*
G01*
X2908800Y4262689D01*
X2929300Y4262689D01*
X2922500Y4243589D02*
G01*
X2922500Y4272289D01*
X2988900Y4243589D02*
G01*
X2978000Y4272289D01*
X2988900Y4243589D02*
G01*
X2999799Y4272289D01*
X2982100Y4262689D02*
G01*
X2995699Y4262689D01*
X3025200Y4243589D02*
G01*
X3011499Y4243589D01*
X3010200Y4255889D01*
X3011499Y4254490D01*
X3015600Y4253190D01*
X3019700Y4253190D01*
X3023800Y4254490D01*
X3026499Y4257289D01*
X3027899Y4261390D01*
X3027899Y4264090D01*
X3026499Y4268190D01*
X3023800Y4270889D01*
X3019700Y4272289D01*
X3015600Y4272289D01*
X3011499Y4270889D01*
X3010200Y4269490D01*
X3008800Y4266790D01*
X2260000Y4219989D02*
G01*
X2276700Y4263890D01*
X2293500Y4219989D02*
G01*
X2276700Y4263890D01*
X2307299Y4219989D02*
G01*
X2307299Y4263890D01*
X2321099Y4219989D02*
G01*
X2321099Y4263890D01*
X2321099Y4219989D02*
G01*
X2350299Y4263890D01*
X2350299Y4219989D02*
G01*
X2350299Y4263890D01*
X2131400Y4230490D02*
G01*
X2129300Y4226289D01*
X2125100Y4222089D01*
X2120900Y4219989D01*
X2112500Y4219989D01*
X2108400Y4222089D01*
X2104200Y4226289D01*
X2102100Y4230490D01*
X2100000Y4236689D01*
X2100000Y4247190D01*
X2102100Y4253490D01*
X2104200Y4257590D01*
X2108400Y4261790D01*
X2112500Y4263890D01*
X2120900Y4263890D01*
X2125100Y4261790D01*
X2129300Y4257590D01*
X2131400Y4253490D01*
X2131400Y4247190D01*
X2120900Y4247190D02*
G01*
X2131400Y4247190D01*
X2145200Y4219989D02*
G01*
X2145200Y4263890D01*
X2145200Y4219989D02*
G01*
X2174399Y4263890D01*
X2174399Y4219989D02*
G01*
X2174399Y4263890D01*
X2188199Y4219989D02*
G01*
X2188199Y4263890D01*
X2188199Y4219989D02*
G01*
X2202899Y4219989D01*
X2209099Y4222089D01*
X2213299Y4226289D01*
X2215399Y4230490D01*
X2217500Y4236689D01*
X2217500Y4247190D01*
X2215399Y4253490D01*
X2213299Y4257590D01*
X2209099Y4261790D01*
X2202899Y4263890D01*
X2188199Y4263890D01*
X1636700Y2499989D02*
G01*
X1638800Y2504189D01*
X1645100Y2510490D01*
X1601199Y2510490D01*
X1645100Y2528389D02*
G01*
X1645100Y2551390D01*
X1628400Y2538890D01*
X1628400Y2545189D01*
X1626300Y2549290D01*
X1624200Y2551390D01*
X1617899Y2553490D01*
X1613699Y2553490D01*
X1607500Y2551390D01*
X1603299Y2547289D01*
X1601199Y2540990D01*
X1601199Y2534690D01*
X1603299Y2528389D01*
X1605399Y2526289D01*
X1609499Y2524290D01*
X1736700Y2499989D02*
G01*
X1738800Y2504189D01*
X1745100Y2510490D01*
X1701199Y2510490D01*
X1734600Y2526289D02*
G01*
X1736700Y2526289D01*
X1740900Y2528389D01*
X1743000Y2530490D01*
X1745100Y2534690D01*
X1745100Y2543090D01*
X1743000Y2547289D01*
X1740900Y2549290D01*
X1736700Y2551390D01*
X1732500Y2551390D01*
X1728400Y2549290D01*
X1722100Y2545189D01*
X1701199Y2524290D01*
X1701199Y2553490D01*
X1836700Y2499989D02*
G01*
X1838800Y2504189D01*
X1845100Y2510490D01*
X1801199Y2510490D01*
X1836700Y2524290D02*
G01*
X1838800Y2528389D01*
X1845100Y2534690D01*
X1801199Y2534690D01*
X1936700Y2499989D02*
G01*
X1938800Y2504189D01*
X1945100Y2510490D01*
X1901199Y2510490D01*
X1945100Y2536790D02*
G01*
X1943000Y2530490D01*
X1936700Y2526289D01*
X1926300Y2524290D01*
X1920000Y2524290D01*
X1909499Y2526289D01*
X1903299Y2530490D01*
X1901199Y2536790D01*
X1901199Y2540990D01*
X1903299Y2547289D01*
X1909499Y2551390D01*
X1920000Y2553490D01*
X1926300Y2553490D01*
X1936700Y2551390D01*
X1943000Y2547289D01*
X1945100Y2540990D01*
X1945100Y2536790D01*
X2030500Y2527190D02*
G01*
X2024200Y2525090D01*
X2020000Y2520889D01*
X2017899Y2514589D01*
X2017899Y2512489D01*
X2020000Y2506289D01*
X2024200Y2502089D01*
X2030500Y2499989D01*
X2032500Y2499989D01*
X2038800Y2502089D01*
X2043000Y2506289D01*
X2045100Y2512489D01*
X2045100Y2514589D01*
X2043000Y2520889D01*
X2038800Y2525090D01*
X2030500Y2527190D01*
X2020000Y2527190D01*
X2009499Y2525090D01*
X2003299Y2520889D01*
X2001199Y2514589D01*
X2001199Y2510490D01*
X2003299Y2504189D01*
X2007500Y2502089D01*
X2145100Y2510490D02*
G01*
X2143000Y2504189D01*
X2138800Y2502089D01*
X2134600Y2502089D01*
X2130500Y2504189D01*
X2128400Y2508389D01*
X2126300Y2516689D01*
X2124200Y2522990D01*
X2120000Y2527190D01*
X2115799Y2529290D01*
X2109499Y2529290D01*
X2105399Y2527190D01*
X2103299Y2525090D01*
X2101199Y2518789D01*
X2101199Y2510490D01*
X2103299Y2504189D01*
X2105399Y2502089D01*
X2109499Y2499989D01*
X2115799Y2499989D01*
X2120000Y2502089D01*
X2124200Y2506289D01*
X2126300Y2512489D01*
X2128400Y2520889D01*
X2130500Y2525090D01*
X2134600Y2527190D01*
X2138800Y2527190D01*
X2143000Y2525090D01*
X2145100Y2518789D01*
X2145100Y2510490D01*
X2305100Y2529290D02*
G01*
X2261199Y2508389D01*
X2305100Y2499989D02*
G01*
X2305100Y2529290D01*
X2398800Y2525090D02*
G01*
X2403000Y2522990D01*
X2405100Y2516689D01*
X2405100Y2512489D01*
X2403000Y2506289D01*
X2396700Y2502089D01*
X2386300Y2499989D01*
X2375799Y2499989D01*
X2367500Y2502089D01*
X2363299Y2506289D01*
X2361199Y2512489D01*
X2361199Y2514589D01*
X2363299Y2520889D01*
X2367500Y2525090D01*
X2373699Y2527190D01*
X2375799Y2527190D01*
X2382100Y2525090D01*
X2386300Y2520889D01*
X2388400Y2514589D01*
X2388400Y2512489D01*
X2386300Y2506289D01*
X2382100Y2502089D01*
X2375799Y2499989D01*
X2505100Y2525090D02*
G01*
X2505100Y2504189D01*
X2486300Y2502089D01*
X2488400Y2504189D01*
X2490500Y2510490D01*
X2490500Y2516689D01*
X2488400Y2522990D01*
X2484200Y2527190D01*
X2477899Y2529290D01*
X2473699Y2529290D01*
X2467500Y2527190D01*
X2463299Y2522990D01*
X2461199Y2516689D01*
X2461199Y2510490D01*
X2463299Y2504189D01*
X2465399Y2502089D01*
X2469499Y2499989D01*
X2605100Y2520889D02*
G01*
X2575799Y2499989D01*
X2575799Y2531390D01*
X2605100Y2520889D02*
G01*
X2561199Y2520889D01*
X2705100Y2504189D02*
G01*
X2705100Y2527190D01*
X2688400Y2514589D01*
X2688400Y2520889D01*
X2686300Y2525090D01*
X2684200Y2527190D01*
X2677899Y2529290D01*
X2673699Y2529290D01*
X2667500Y2527190D01*
X2663299Y2522990D01*
X2661199Y2516689D01*
X2661199Y2510490D01*
X2663299Y2504189D01*
X2665399Y2502089D01*
X2669499Y2499989D01*
X2794600Y2502089D02*
G01*
X2796700Y2502089D01*
X2800900Y2504189D01*
X2803000Y2506289D01*
X2805100Y2510490D01*
X2805100Y2518789D01*
X2803000Y2522990D01*
X2800900Y2525090D01*
X2796700Y2527190D01*
X2792500Y2527190D01*
X2788400Y2525090D01*
X2782100Y2520889D01*
X2761199Y2499989D01*
X2761199Y2529290D01*
X2896700Y2499989D02*
G01*
X2898800Y2504189D01*
X2905100Y2510490D01*
X2861199Y2510490D01*
X3005100Y2512489D02*
G01*
X3003000Y2506289D01*
X2996700Y2502089D01*
X2986300Y2499989D01*
X2980000Y2499989D01*
X2969499Y2502089D01*
X2963299Y2506289D01*
X2961199Y2512489D01*
X2961199Y2516689D01*
X2963299Y2522990D01*
X2969499Y2527190D01*
X2980000Y2529290D01*
X2986300Y2529290D01*
X2996700Y2527190D01*
X3003000Y2522990D01*
X3005100Y2516689D01*
X3005100Y2512489D01*
X1690000Y4252289D02*
G01*
X1733900Y4252289D01*
X1690000Y4225990D02*
G01*
X1692100Y4230090D01*
X1696300Y4234290D01*
X1700500Y4236390D01*
X1706700Y4238490D01*
X1717200Y4238490D01*
X1723500Y4236390D01*
X1727600Y4234290D01*
X1731800Y4230090D01*
X1733900Y4225990D01*
X1733900Y4217590D01*
X1731800Y4213389D01*
X1727600Y4209189D01*
X1723500Y4207089D01*
X1717200Y4204989D01*
X1706700Y4204989D01*
X1700500Y4207089D01*
X1696300Y4209189D01*
X1692100Y4213389D01*
X1690000Y4217590D01*
X1690000Y4225990D01*
X1690000Y4191190D02*
G01*
X1733900Y4191190D01*
X1690000Y4191190D02*
G01*
X1690000Y4172390D01*
X1692100Y4166190D01*
X1694200Y4164090D01*
X1698400Y4161990D01*
X1702600Y4161990D01*
X1706700Y4164090D01*
X1708800Y4166190D01*
X1710900Y4172390D01*
X1710900Y4191190D01*
X1710900Y4176590D02*
G01*
X1733900Y4161990D01*
X1690000Y4148189D02*
G01*
X1733900Y4148189D01*
X1690000Y4148189D02*
G01*
X1690000Y4120990D01*
X1710900Y4148189D02*
G01*
X1710900Y4131390D01*
X1733900Y4148189D02*
G01*
X1733900Y4120990D01*
X1690000Y4107190D02*
G01*
X1733900Y4107190D01*
X1690000Y4107190D02*
G01*
X1690000Y4079989D01*
X1710900Y4107190D02*
G01*
X1710900Y4090490D01*
X1348800Y2539290D02*
G01*
X1353000Y2535090D01*
X1355100Y2528789D01*
X1355100Y2520490D01*
X1353000Y2514189D01*
X1348800Y2509989D01*
X1344600Y2509989D01*
X1340500Y2512089D01*
X1338400Y2514189D01*
X1336300Y2518389D01*
X1332100Y2530889D01*
X1330000Y2535090D01*
X1327899Y2537190D01*
X1323699Y2539290D01*
X1317500Y2539290D01*
X1313299Y2535090D01*
X1311199Y2528789D01*
X1311199Y2520490D01*
X1313299Y2514189D01*
X1317500Y2509989D01*
X1355100Y2553090D02*
G01*
X1311199Y2553090D01*
X1355100Y2553090D02*
G01*
X1355100Y2567689D01*
X1353000Y2573989D01*
X1348800Y2578189D01*
X1344600Y2580290D01*
X1338400Y2582289D01*
X1327899Y2582289D01*
X1321599Y2580290D01*
X1317500Y2578189D01*
X1313299Y2573989D01*
X1311199Y2567689D01*
X1311199Y2553090D01*
X1355100Y2612890D02*
G01*
X1311199Y2596089D01*
X1355100Y2612890D02*
G01*
X1311199Y2629589D01*
X1325799Y2602390D02*
G01*
X1325799Y2623290D01*
X1248800Y2539290D02*
G01*
X1253000Y2535090D01*
X1255100Y2528789D01*
X1255100Y2520490D01*
X1253000Y2514189D01*
X1248800Y2509989D01*
X1244600Y2509989D01*
X1240500Y2512089D01*
X1238400Y2514189D01*
X1236300Y2518389D01*
X1232100Y2530889D01*
X1230000Y2535090D01*
X1227899Y2537190D01*
X1223699Y2539290D01*
X1217500Y2539290D01*
X1213299Y2535090D01*
X1211199Y2528789D01*
X1211199Y2520490D01*
X1213299Y2514189D01*
X1217500Y2509989D01*
X1244600Y2584389D02*
G01*
X1248800Y2582289D01*
X1253000Y2578189D01*
X1255100Y2573989D01*
X1255100Y2565590D01*
X1253000Y2561390D01*
X1248800Y2557289D01*
X1244600Y2555189D01*
X1238400Y2553090D01*
X1227899Y2553090D01*
X1221599Y2555189D01*
X1217500Y2557289D01*
X1213299Y2561390D01*
X1211199Y2565590D01*
X1211199Y2573989D01*
X1213299Y2578189D01*
X1217500Y2582289D01*
X1221599Y2584389D01*
X1255100Y2598189D02*
G01*
X1211199Y2598189D01*
X1211199Y2598189D02*
G01*
X1211199Y2623290D01*
X1593699Y4259989D02*
G01*
X1637600Y4259989D01*
X1593699Y4259989D02*
G01*
X1593699Y4241190D01*
X1595799Y4234890D01*
X1597899Y4232790D01*
X1602100Y4230690D01*
X1608299Y4230690D01*
X1612500Y4232790D01*
X1614600Y4234890D01*
X1616700Y4241190D01*
X1616700Y4259989D01*
X1593699Y4204389D02*
G01*
X1595799Y4208589D01*
X1600000Y4212689D01*
X1604200Y4214789D01*
X1610399Y4216889D01*
X1620900Y4216889D01*
X1627200Y4214789D01*
X1631300Y4212689D01*
X1635500Y4208589D01*
X1637600Y4204389D01*
X1637600Y4195990D01*
X1635500Y4191790D01*
X1631300Y4187689D01*
X1627200Y4185590D01*
X1620900Y4183490D01*
X1610399Y4183490D01*
X1604200Y4185590D01*
X1600000Y4187689D01*
X1595799Y4191790D01*
X1593699Y4195990D01*
X1593699Y4204389D01*
X1593699Y4169690D02*
G01*
X1637600Y4159189D01*
X1593699Y4148789D02*
G01*
X1637600Y4159189D01*
X1593699Y4148789D02*
G01*
X1637600Y4138290D01*
X1593699Y4127890D02*
G01*
X1637600Y4138290D01*
X1593699Y4114090D02*
G01*
X1637600Y4114090D01*
X1593699Y4114090D02*
G01*
X1593699Y4086889D01*
X1614600Y4114090D02*
G01*
X1614600Y4097289D01*
X1637600Y4114090D02*
G01*
X1637600Y4086889D01*
X1593699Y4073090D02*
G01*
X1637600Y4073090D01*
X1593699Y4073090D02*
G01*
X1593699Y4054290D01*
X1595799Y4047990D01*
X1597899Y4045889D01*
X1602100Y4043789D01*
X1606300Y4043789D01*
X1610399Y4045889D01*
X1612500Y4047990D01*
X1614600Y4054290D01*
X1614600Y4073090D01*
X1614600Y4058389D02*
G01*
X1637600Y4043789D01*
D11*
X2760000Y4354989D02*
G01*
X2735000Y4379989D01*
X2685000Y4379989D01*
X2660000Y4354989D01*
X2635000Y4379989D01*
X2585000Y4379989D01*
X2560000Y4354989D01*
X2535000Y4379989D01*
X2485000Y4379989D01*
X2460000Y4354989D01*
X2460000Y4304989D01*
X2485000Y4279989D01*
X2535000Y4279989D01*
X2560000Y4304989D01*
X2585000Y4279989D01*
X2635000Y4279989D01*
X2660000Y4304989D01*
X2685000Y4279989D01*
X2735000Y4279989D01*
X2760000Y4304989D01*
X2785000Y4279989D01*
X2835000Y4279989D01*
X2860000Y4304989D01*
X2860000Y4354989D01*
X2835000Y4379989D01*
X2785000Y4379989D01*
X2760000Y4354989D01*
X2760000Y4304989D01*
X2459989Y2405000D02*
G01*
X2484989Y2380000D01*
X2534989Y2380000D01*
X2559989Y2405000D01*
X2584989Y2380000D01*
X2634989Y2380000D01*
X2659989Y2405000D01*
X2684989Y2380000D01*
X2734989Y2380000D01*
X2759989Y2405000D01*
X2784989Y2380000D01*
X2834989Y2380000D01*
X2859989Y2405000D01*
X2884989Y2380000D01*
X2934989Y2380000D01*
X2959989Y2405000D01*
X2984989Y2380000D01*
X3034989Y2380000D01*
X3059989Y2405000D01*
X3059989Y2455000D01*
X3034989Y2480000D01*
X2984989Y2480000D01*
X2959989Y2455000D01*
X2934989Y2480000D01*
X2884989Y2480000D01*
X2859989Y2455000D01*
X2834989Y2480000D01*
X2784989Y2480000D01*
X2759989Y2455000D01*
X2734989Y2480000D01*
X2684989Y2480000D01*
X2659989Y2455000D01*
X2634989Y2480000D01*
X2584989Y2480000D01*
X2559989Y2455000D01*
X2534989Y2480000D01*
X2484989Y2480000D01*
X2459989Y2455000D01*
X2434989Y2480000D01*
X2384989Y2480000D01*
X2359989Y2455000D01*
X2359989Y2405000D01*
X2384989Y2380000D01*
X2434989Y2380000D01*
X2459989Y2405000D01*
X2459989Y2455000D01*
X1400000Y2405000D02*
G01*
X1425000Y2380000D01*
X1475000Y2380000D01*
X1500000Y2405000D01*
X1525000Y2380000D01*
X1575000Y2380000D01*
X1600000Y2405000D01*
X1625000Y2380000D01*
X1675000Y2380000D01*
X1700000Y2405000D01*
X1725000Y2380000D01*
X1775000Y2380000D01*
X1800000Y2405000D01*
X1825000Y2380000D01*
X1875000Y2380000D01*
X1900000Y2405000D01*
X1925000Y2380000D01*
X1975000Y2380000D01*
X2000000Y2405000D01*
X2025000Y2380000D01*
X2075000Y2380000D01*
X2100000Y2405000D01*
X2125000Y2380000D01*
X2175000Y2380000D01*
X2200000Y2405000D01*
X2200000Y2455000D01*
X2175000Y2480000D01*
X2125000Y2480000D01*
X2100000Y2455000D01*
X2075000Y2480000D01*
X2025000Y2480000D01*
X2000000Y2455000D01*
X1975000Y2480000D01*
X1925000Y2480000D01*
X1900000Y2455000D01*
X1875000Y2480000D01*
X1825000Y2480000D01*
X1800000Y2455000D01*
X1775000Y2480000D01*
X1725000Y2480000D01*
X1700000Y2455000D01*
X1675000Y2480000D01*
X1625000Y2480000D01*
X1600000Y2455000D01*
X1575000Y2480000D01*
X1525000Y2480000D01*
X1500000Y2455000D01*
X1475000Y2480000D01*
X1425000Y2480000D01*
X1400000Y2455000D01*
X1375000Y2480000D01*
X1325000Y2480000D01*
X1300000Y2455000D01*
X1300000Y2405000D01*
X1325000Y2380000D01*
X1375000Y2380000D01*
X1400000Y2405000D01*
X1400000Y2455000D01*
X2359989Y2455000D02*
G01*
X2334989Y2480000D01*
X2284989Y2480000D01*
X2259989Y2455000D01*
X2259989Y2405000D01*
X2284989Y2380000D01*
X2334989Y2380000D01*
X2359989Y2405000D01*
D12*
X549000Y2329989D02*
G01*
X3050000Y2329989D01*
X3110000Y2389989D01*
X3110000Y2839989D01*
X3210000Y2939989D01*
X3210000Y4229989D01*
X3110000Y4329989D01*
X3110000Y4390990D01*
X3071000Y4429989D02*
G01*
X549000Y4429989D01*
X510000Y4389989D02*
G01*
X510000Y2368989D01*
D11*
X1500000Y2455000D02*
G01*
X1500000Y2405000D01*
X1600000Y2455000D02*
G01*
X1600000Y2405000D01*
X1800000Y2455000D02*
G01*
X1800000Y2405000D01*
X1700000Y2455000D02*
G01*
X1700000Y2405000D01*
X1900000Y2455000D02*
G01*
X1900000Y2405000D01*
X2100000Y2455000D02*
G01*
X2100000Y2405000D01*
X2000000Y2455000D02*
G01*
X2000000Y2405000D01*
X1300000Y2455000D02*
G01*
X1275000Y2480000D01*
X1225000Y2480000D01*
X1200000Y2455000D01*
X1200000Y2405000D01*
X1225000Y2380000D01*
X1275000Y2380000D01*
X1300000Y2405000D01*
X2659989Y2455000D02*
G01*
X2659989Y2405000D01*
X2559989Y2455000D02*
G01*
X2559989Y2405000D01*
X2759989Y2455000D02*
G01*
X2759989Y2405000D01*
X2959989Y2455000D02*
G01*
X2959989Y2405000D01*
X2859989Y2455000D02*
G01*
X2859989Y2405000D01*
X2860000Y4304989D02*
G01*
X2885000Y4279989D01*
X2935000Y4279989D01*
X2960000Y4304989D01*
X2960000Y4354989D01*
X2935000Y4379989D01*
X2885000Y4379989D01*
X2860000Y4354989D01*
X2560000Y4304989D02*
G01*
X2560000Y4354989D01*
X2660000Y4304989D02*
G01*
X2660000Y4354989D01*
X2960000Y4304989D02*
G01*
X2985000Y4279989D01*
X3035000Y4279989D01*
X3060000Y4304989D01*
X3060000Y4354989D01*
X3035000Y4379989D01*
X2985000Y4379989D01*
X2960000Y4354989D01*
X2160000Y4354989D02*
G01*
X2135000Y4379989D01*
X2085000Y4379989D01*
X2060000Y4354989D01*
X2035000Y4379989D01*
X1985000Y4379989D01*
X1960000Y4354989D01*
X1935000Y4379989D01*
X1885000Y4379989D01*
X1860000Y4354989D01*
X1835000Y4379989D01*
X1785000Y4379989D01*
X1760000Y4354989D01*
X1735000Y4379989D01*
X1685000Y4379989D01*
X1660000Y4354989D01*
X1635000Y4379989D01*
X1585000Y4379989D01*
X1560000Y4354989D01*
X1560000Y4304989D01*
X1585000Y4279989D01*
X1635000Y4279989D01*
X1660000Y4304989D01*
X1685000Y4279989D01*
X1735000Y4279989D01*
X1760000Y4304989D01*
X1785000Y4279989D01*
X1835000Y4279989D01*
X1860000Y4304989D01*
X1885000Y4279989D01*
X1935000Y4279989D01*
X1960000Y4304989D01*
X1985000Y4279989D01*
X2035000Y4279989D01*
X2060000Y4304989D01*
X2085000Y4279989D01*
X2135000Y4279989D01*
X2160000Y4304989D01*
X2185000Y4279989D01*
X2235000Y4279989D01*
X2260000Y4304989D01*
X2260000Y4354989D01*
X2235000Y4379989D01*
X2185000Y4379989D01*
X2160000Y4354989D01*
X2160000Y4304989D01*
X1960000Y4304989D02*
G01*
X1960000Y4354989D01*
X2060000Y4304989D02*
G01*
X2060000Y4354989D01*
X1860000Y4304989D02*
G01*
X1860000Y4354989D01*
X1660000Y4304989D02*
G01*
X1660000Y4354989D01*
X1760000Y4304989D02*
G01*
X1760000Y4354989D01*
X2260000Y4304989D02*
G01*
X2285000Y4279989D01*
X2335000Y4279989D01*
X2360000Y4304989D01*
X2360000Y4354989D01*
X2335000Y4379989D01*
X2285000Y4379989D01*
X2260000Y4354989D01*
D12*
G75*
G01*
X3110000Y4390590D02*
G03*
X3070600Y4429990I-39400J0D01*
G75*
G01*
X549400Y4429990D02*
G03*
X510000Y4390590I0J-39400D01*
G75*
G01*
X510000Y2369390D02*
G03*
X549400Y2329990I39400J0D01*
M02*
